<svg width="90" height="105" viewBox="0 0 90 105" fill="none" xmlns="http://www.w3.org/2000/svg">
<path d="M62.841 103C61.5647 103 60.5302 101.977 60.5302 100.714C60.5302 99.4517 61.5647 98.4284 62.841 98.4284C69.7539 98.4284 75.3782 92.8651 75.3782 86.0269V62.6425C75.3782 47.1642 62.6478 34.5718 47 34.5718C31.3522 34.5718 18.6217 47.1642 18.6217 62.6425V83.7072C18.6217 84.9696 17.5871 85.993 16.3108 85.993C15.0346 85.993 14 84.9696 14 83.7072V62.6425C14 53.9234 17.4327 45.7261 23.6655 39.5608C29.8985 33.3953 38.1854 30 47 30C55.8146 30 64.1017 33.3955 70.3345 39.5608C76.5675 45.7261 80 53.9234 80 62.6425V86.0269C80 95.3858 72.3025 103 62.841 103Z" fill="white"/>
<path d="M68.7016 39.5608C62.7055 33.3953 54.7332 30 46.2534 30C45.8342 30 45.4165 30.0107 45 30.0272C53.0095 30.3448 60.4952 33.7003 66.1949 39.5608C72.1911 45.7261 75.4933 53.9234 75.4933 62.6425V86.0269C75.4933 94.7472 69.064 101.951 60.8238 102.894C61.0349 102.963 61.2596 103 61.4929 103C70.5948 103 78 95.3858 78 86.0269V62.6425C78.0001 53.9234 74.6979 45.7261 68.7016 39.5608Z" fill="#FFE0EB"/>
<path d="M59.9121 105H54.0879C51.8302 105 50 103.402 50 101.431V99.5688C50 97.5978 51.8302 96 54.0879 96H59.9121C62.1698 96 64 97.5978 64 99.5688V101.431C64 103.402 62.1698 105 59.9121 105Z" fill="white"/>
<path d="M60.4552 96C60.4788 96.1554 60.4923 96.3137 60.4923 96.4748V98.3624C60.4923 100.335 58.6621 101.935 56.4042 101.935H50.5433C50.359 101.935 50.1778 101.923 50 101.902C50.2659 103.651 51.9777 105 54.051 105H59.9119C62.1696 105 64 103.401 64 101.428V99.54C64 97.7282 62.456 96.2323 60.4552 96V96Z" fill="#6236FF"/>
<path d="M22.4347 50.8309L17.1171 48.416C16.1248 47.9653 15.7113 46.7658 16.2152 45.7938C22.1685 34.313 34.0409 27 47 27C59.9591 27 71.8316 34.3132 77.7848 45.7938C78.2887 46.7658 77.8752 47.9653 76.8829 48.416L71.5653 50.8309C70.6608 51.2417 69.593 50.8805 69.1227 50.0004C64.7709 41.8534 56.2696 36.6796 47 36.6796C37.7304 36.6796 29.2291 41.8535 24.8773 50.0004C24.4072 50.8807 23.3392 51.2417 22.4347 50.8309Z" fill="white"/>
<path d="M77.783 45.706C72.597 35.6172 62.9544 28.6944 52 27C59.6923 30.1091 66.1926 35.9416 70.1274 43.5964C70.6355 44.5848 70.2186 45.8044 69.2182 46.2628L67.2994 47.1419C67.939 48.0436 68.5261 48.9912 69.0516 49.9836C69.5255 50.8787 70.6019 51.2458 71.5137 50.8281L76.8739 48.3724C77.8742 47.9142 78.2911 46.6944 77.783 45.706Z" fill="#FFE0EB"/>
<path d="M17.5117 89H14.4885C12.0096 89 10 87.0796 10 84.7105V66.2895C10 63.9204 12.0096 62 14.4885 62H17.5115C19.9904 62 22 63.9204 22 66.2895V84.7104C22.0002 87.0794 19.9906 89 17.5117 89Z" fill="#332EB0"/>
<path d="M77.5115 89H74.4885C72.0096 89 70 87.0796 70 84.7105V66.2895C70 63.9204 72.0096 62 74.4885 62H77.5115C79.9904 62 82 63.9204 82 66.2895V84.7104C82 87.0794 79.9904 89 77.5115 89Z" fill="#332EB0"/>
<path d="M17.5765 62C17.5767 62.0172 17.5779 62.034 17.5779 62.0514V80.4954C17.5779 82.8584 15.5733 84.774 13.1005 84.774H10.0538C10.0358 84.774 10.018 84.7729 10 84.7726C10.0289 87.1119 12.0213 89 14.476 89H17.5226C19.9954 89 22 87.0844 22 84.7214V66.2774C22.0002 63.9316 20.0245 62.0276 17.5765 62Z" fill="#6236FF"/>
<path d="M77.5764 62C77.5765 62.0172 77.5778 62.034 77.5778 62.0514V80.4954C77.5778 82.8584 75.5732 84.774 73.1004 84.774H70.0538C70.0358 84.774 70.018 84.7729 70 84.7726C70.0289 87.1119 72.0213 89 74.476 89H77.5226C79.9954 89 82 87.0844 82 84.7214V66.2774C82 63.9316 80.0243 62.0276 77.5764 62Z" fill="#6236FF"/>
<path d="M47.9784 89C47.858 89 47.7358 88.9724 47.6171 88.914C47.1149 88.667 46.8698 87.9629 47.0696 87.3417L51.1124 74.7637C51.3121 74.1424 51.8812 73.8387 52.3829 74.0862C52.8851 74.3332 53.1302 75.0373 52.9304 75.6584L48.8876 88.2365C48.7351 88.7109 48.3673 89 47.9784 89Z" fill="white"/>
<path d="M58.7838 89C58.6096 89 58.4327 88.9671 58.2628 88.8973C57.6075 88.6282 57.3097 87.9138 57.5978 87.3017L62.7184 76.4213H57.2961C56.5801 76.4213 56 75.8794 56 75.2107C56 74.5419 56.5801 74 57.2961 74H64.704C65.1417 74 65.5501 74.2065 65.7893 74.5488C66.0284 74.8912 66.0666 75.3235 65.8905 75.6978L59.971 88.2762C59.7576 88.7298 59.2824 89 58.7838 89Z" fill="white"/>
<path fill-rule="evenodd" clip-rule="evenodd" d="M42.2309 89H42.2412C42.8844 89 43.4085 88.4647 43.4143 87.7996C43.4182 87.3402 43.4255 86.4207 43.4337 85.2874H43.8269C44.4748 85.2874 45 84.7455 45 84.0767C45 83.4079 44.4748 82.866 43.8269 82.866H43.4493C43.467 79.7958 43.4773 76.435 43.4407 75.9818C43.3666 75.0635 42.8376 74.3162 42.0932 74.0783C41.3571 73.8433 40.5695 74.1446 39.9849 74.8845C39.2848 75.7707 35.8312 82.2101 35.146 83.4918C34.9455 83.867 34.9519 84.3235 35.1629 84.6924C35.3739 85.0612 35.758 85.2875 36.173 85.2875H41.087C41.0808 86.1704 41.0744 87.0188 41.0679 87.779C41.0623 88.4474 41.583 88.9942 42.2309 89ZM41.1025 82.8661H38.1655C39.2992 80.7692 40.4152 78.7472 41.1188 77.5301C41.1219 78.8024 41.1142 80.7978 41.1025 82.8661Z" fill="white"/>
<path d="M30.3784 89C27.7882 89 27.5977 88.9417 27.4235 88.8884C26.9911 88.7561 26.6681 88.4561 26.5371 88.0655C26.3114 87.3921 26.6267 87.0132 27.4694 86.0005C28.1548 85.1767 29.4309 83.6429 31.5689 80.8389C32.204 80.0062 32.6136 79.2604 32.7869 78.6208L32.833 78.29C32.7944 77.2318 31.8445 76.3818 30.6823 76.3818C29.6561 76.3818 28.7682 77.051 28.5708 77.9729C28.4326 78.6182 27.7507 79.0379 27.0476 78.912C26.3446 78.7851 25.8865 78.1593 26.0246 77.5138C26.4603 75.4778 28.4191 74 30.6822 74C33.2993 74 35.4287 75.9545 35.4287 78.3569C35.4287 78.4072 35.4252 78.4577 35.4181 78.5075L35.3515 78.9863C35.346 79.0261 35.3384 79.0655 35.3285 79.1046C35.0886 80.0543 34.5388 81.0974 33.6944 82.2045C32.1015 84.2933 30.9788 85.6892 30.2187 86.6151C31.4952 86.619 33.1405 86.6047 34.6862 86.5867C35.4034 86.5816 35.9909 87.105 35.9999 87.7624C36.0089 88.4203 35.4354 88.96 34.7189 88.9682C32.7999 88.9908 31.4018 89 30.3784 89Z" fill="white"/>
<path d="M59.2543 61.25H49.8043V70.95H43.2043V61.25H33.7543V55.15H43.2043V45.45H49.8043V55.15H59.2543V61.25Z" fill="white"/>
<path fill-rule="evenodd" clip-rule="evenodd" d="M47 20.6557L44 0L41 21L47 20.6557Z" fill="#6236FF"/>
<path fill-rule="evenodd" clip-rule="evenodd" d="M62.5602 24.3638L64.2203 13.2594L57.0056 22.0882L62.5602 24.3638Z" fill="#6236FF"/>
<path fill-rule="evenodd" clip-rule="evenodd" d="M74.8398 32.5911L87.0305 15.6486L70.2846 28.6707L74.8398 32.5911Z" fill="#6236FF"/>
<path fill-rule="evenodd" clip-rule="evenodd" d="M14.8968 32.8894L2.70612 15.9469L19.452 28.9691L14.8968 32.8894Z" fill="#6236FF"/>
<path fill-rule="evenodd" clip-rule="evenodd" d="M25.4198 24.3189L22.5595 10.5187L30.9944 22.0882L25.4198 24.3189Z" fill="#6236FF"/>
</svg>
