<svg width="312" height="183" viewBox="0 0 312 183" fill="none" xmlns="http://www.w3.org/2000/svg">
<rect y="38" width="302" height="145" fill="white"/>
<mask id="mask0_0_418" style="mask-type:alpha" maskUnits="userSpaceOnUse" x="0" y="38" width="302" height="145">
<rect y="38" width="302" height="145" fill="white"/>
</mask>
<g mask="url(#mask0_0_418)">
<g opacity="0.294131">
<path fill-rule="evenodd" clip-rule="evenodd" d="M52.9746 61.9104C37.5562 67.9738 20.1511 60.393 14.0874 44.9737C8.0292 29.5544 15.6047 12.1484 31.0286 6.08985C46.447 0.0258374 63.8466 7.60721 69.9103 23.0265C75.9739 38.4458 68.393 55.8513 52.9746 61.9104" fill="#D6D1F2"/>
<path fill-rule="evenodd" clip-rule="evenodd" d="M16.4761 109.387C19.7432 117.976 6.79174 123.19 3.52405 114.612C0.256357 106.024 13.2084 100.81 16.4761 109.387" fill="#EDF8F9"/>
<path fill-rule="evenodd" clip-rule="evenodd" d="M24.4744 76.3878C27.7483 84.9788 14.7878 90.1872 11.5258 81.6142C8.25192 73.0244 21.2061 67.8096 24.4744 76.3878" fill="#D6D1F2"/>
<path fill-rule="evenodd" clip-rule="evenodd" d="M196 31.4861C196.011 39.4955 189.523 45.9944 181.514 46C173.505 46.0117 167.005 39.5233 167 31.5139C166.989 23.5045 173.471 17.0061 181.486 17C189.495 16.9889 195.994 23.4711 196 31.4861" fill="#D6D1F2"/>
<path fill-rule="evenodd" clip-rule="evenodd" d="M150.418 128.549C149.306 131.429 147.849 134.177 146.071 136.719C146.076 136.724 146.076 136.73 146.082 136.736C146.742 137.755 147.43 138.757 148.129 139.749C152.228 137.234 157.665 138.026 160.856 141.848C164.377 146.063 163.838 152.361 159.64 155.911C155.458 159.456 149.202 158.913 145.675 154.687C142.803 151.225 142.643 146.362 144.993 142.773C144.096 142.28 143.188 141.82 142.264 141.371H142.258C138.731 145.038 134.423 148.057 129.46 150.129C129.46 150.134 129.466 150.134 129.466 150.139C129.658 150.478 129.829 150.843 129.977 151.231C131.98 156.354 129.482 162.137 124.398 164.148C119.319 166.158 113.58 163.638 111.578 158.514C110.857 156.67 110.719 154.731 111.093 152.92C106.119 152.433 101.305 150.97 96.9246 148.65C94.6301 150.871 92.3968 153.163 90.2234 155.512C90.9001 156.255 91.4504 157.141 91.841 158.143C93.5853 162.602 91.4119 167.637 86.971 169.398C82.5472 171.149 77.5351 168.949 75.7964 164.496C74.0577 160.038 76.2366 154.997 80.6654 153.241C83.274 152.211 86.0796 152.544 88.2976 153.912C89.9092 151.38 91.4064 148.783 92.7704 146.101C89.8597 144.052 87.2136 141.582 84.9357 138.73L84.9247 138.735C83.9447 139.139 82.9769 139.538 81.9969 139.937C82.146 141.415 81.3091 142.862 79.8736 143.427C78.1349 144.119 76.1706 143.255 75.4877 141.505C74.806 139.754 75.6589 137.777 77.3976 137.09C78.7396 136.558 80.2147 136.957 81.1391 137.96C81.8489 137.472 82.5422 136.957 83.241 136.442C81.6123 134.06 80.2257 131.457 79.1302 128.654C78.1734 126.195 77.4796 123.703 77.0449 121.193C75.4162 121.138 73.7875 121.133 72.1644 121.149C71.8513 123.448 70.3382 125.519 68.0327 126.428C64.6428 127.774 60.7912 126.084 59.4596 122.672C58.1231 119.244 59.8013 115.378 63.1962 114.037C66.5966 112.691 70.4317 114.369 71.7688 117.798C71.8568 118.014 71.9283 118.241 71.9944 118.452C73.5295 118.152 75.0481 117.848 76.5832 117.554C75.5598 104.405 81.3532 91.505 91.923 83.6121C88.116 83.2349 84.6325 80.7596 83.1364 76.9212C80.9961 71.4426 83.6647 65.2618 89.1009 63.1072C94.5426 60.9525 100.689 63.65 102.829 69.1279C104.023 72.1793 103.715 75.4583 102.257 78.1336C109.014 75.7746 116.023 75.4423 122.598 76.8381C123.138 75.8737 123.699 74.9161 124.255 73.9689L124.359 73.8249C123.077 72.8888 122.048 71.5706 121.427 69.9865C119.665 65.4778 121.872 60.382 126.351 58.609C130.83 56.8372 135.881 59.0638 137.641 63.5719C139.402 68.0811 137.207 73.1713 132.728 74.9438C131.848 75.2927 130.945 75.4866 130.06 75.5254L130.065 75.6583C129.834 76.755 129.609 77.8461 129.355 78.9373C134.781 81.1916 139.689 84.6867 143.622 89.2341C144.393 88.1872 145.439 87.362 146.732 86.8468C150.456 85.3735 154.649 87.2235 156.108 90.9622C157.571 94.706 155.749 98.9271 152.025 100.4C151.524 100.594 151.018 100.738 150.512 100.805C152.47 105.956 153.251 111.273 152.993 116.452C152.998 116.452 152.998 116.446 153.004 116.446C153.279 116.28 153.582 116.142 153.901 116.015C158.083 114.358 162.793 116.424 164.432 120.622C166.078 124.838 164.025 129.574 159.844 131.23C156.388 132.598 152.559 131.418 150.424 128.56C150.418 128.555 150.418 128.555 150.418 128.549" fill="#D6D1F2"/>
<path fill-rule="evenodd" clip-rule="evenodd" d="M68.6648 81.7272C74.0556 79.6131 80.1517 82.2642 82.2733 87.6628C83.1634 89.9285 83.2082 92.3285 82.5588 94.5047C82.0942 96.0717 81.2769 97.5033 80.1405 98.7005C79.1105 99.7975 77.8397 100.687 76.3563 101.269C70.9487 103.394 64.8526 100.726 62.731 95.3439C60.6093 89.9403 63.2628 83.8536 68.6648 81.7272" fill="#D6D1F2"/>
<path fill-rule="evenodd" clip-rule="evenodd" d="M89.5258 42.6108C86.2518 34.0214 99.2064 28.813 102.474 37.3856C105.748 45.9803 92.7942 51.1886 89.5258 42.6108" fill="#D6D1F2"/>
<path fill-rule="evenodd" clip-rule="evenodd" d="M136.474 29.3898C139.748 37.9799 126.794 43.1887 123.526 34.6102C120.252 26.0201 133.206 20.8113 136.474 29.3898" fill="#D6D1F2"/>
<path fill-rule="evenodd" clip-rule="evenodd" d="M288 58.099C288.006 61.8136 285.001 64.8269 281.314 64.8269C277.617 64.8324 274.623 61.83 274.617 58.1154C274.617 58.0277 274.617 57.9236 274.634 57.836C273.375 57.7209 272.12 57.6387 270.86 57.5675C268.133 63.9284 262.664 68.8374 255.946 70.8207C255.918 72.4917 255.863 74.1463 255.776 75.8173C257.728 75.8447 259.305 77.439 259.31 79.4004C259.31 81.3892 257.706 83 255.744 83C253.764 83.0055 252.172 81.3947 252.166 79.4059C252.166 77.9979 252.962 76.7761 254.145 76.1954C253.78 74.6284 253.404 73.0451 253.012 71.4781C251.828 71.6699 250.601 71.7685 249.358 71.774C244.559 71.774 240.109 70.3276 236.389 67.8512C235.768 68.3004 235.146 68.7387 234.513 69.1716C234.786 69.5929 234.95 70.103 234.95 70.6563C234.95 72.2232 233.679 73.4888 232.119 73.4888C230.56 73.4888 229.3 72.2287 229.3 70.6618C229.295 69.0894 230.554 67.8123 232.114 67.8123C232.501 67.8123 232.877 67.895 233.21 68.0424C233.646 67.506 234.033 66.9527 234.41 66.3883C230.025 62.7444 226.988 57.5346 226.142 51.6121C224.927 51.4691 223.7 51.3436 222.456 51.2286C221.273 53.6825 218.426 54.9152 215.781 54.0496C212.891 53.0804 211.325 49.9301 212.28 47.0264C213.245 44.1226 216.365 42.5502 219.272 43.5199C221.18 44.1555 222.51 45.7383 222.914 47.5797C223.929 47.2893 224.921 47.0154 225.935 46.7524C226.164 43.0488 227.244 39.5643 228.989 36.529C227.932 35.0881 226.829 33.6527 225.69 32.2446C225.444 32.3487 225.183 32.3925 224.91 32.3925C223.579 32.3925 222.495 31.3077 222.495 29.9868C222.495 28.6505 223.574 27.5603 224.905 27.5603C226.219 27.5548 227.304 28.6451 227.304 29.9819C227.304 30.4038 227.189 30.7927 226.988 31.1434C228.231 32.0583 229.491 32.9563 230.734 33.8828C235.021 28.2889 241.739 24.6784 249.309 24.673C251.146 24.673 252.935 24.8866 254.642 25.2921C255.132 24.2018 255.596 23.1115 256.054 22.0103C254.838 20.9803 254.059 19.4298 254.059 17.6875C254.053 14.5482 256.578 12.006 259.702 12C262.822 12 265.353 14.5372 265.358 17.6711C265.363 20.8099 262.833 23.3526 259.714 23.358C259.408 23.358 259.092 23.3252 258.803 23.2868C258.617 24.3442 258.459 25.4071 258.301 26.4645C263.88 28.7656 268.379 33.1924 270.8 38.737C271.547 38.474 272.3 38.1946 273.053 37.9042C272.878 37.4111 272.774 36.8742 272.774 36.3208C272.774 33.7677 274.836 31.6913 277.382 31.6858C279.924 31.6858 281.99 33.7568 281.996 36.3153C281.996 38.8679 279.934 40.9444 277.388 40.9504C276.221 40.9504 275.135 40.5011 274.323 39.7779C273.456 40.2546 272.606 40.7532 271.739 41.2298C272.42 43.4378 272.786 45.7717 272.786 48.1988C272.791 50.2314 272.529 52.2038 272.055 54.0934C273.167 54.3843 274.296 54.6747 275.408 54.9487C276.521 52.8284 278.746 51.3875 281.304 51.382C284.99 51.382 287.995 54.3843 288 58.099" fill="#D6D1F2"/>
</g>
</g>
<g opacity="0.676549">
<path fill-rule="evenodd" clip-rule="evenodd" d="M267 54.4914C267.005 59.1872 263.204 62.9953 258.509 63C253.813 63.0047 250.005 59.2044 250 54.5086C249.995 49.8128 253.796 46.0047 258.491 46C263.187 45.9953 266.995 49.7956 267 54.4914" fill="#A158ED"/>
<path fill-rule="evenodd" clip-rule="evenodd" d="M260.001 55C261.102 54.9992 261.999 55.8955 262 56.9984C262.002 58.1045 261.105 58.9984 260.005 59C258.899 59.0008 258.002 58.1084 258 57.0016C257.999 55.9002 258.895 55.0016 260.001 55" fill="#8D3FD0"/>
<path fill-rule="evenodd" clip-rule="evenodd" d="M254.997 49C256.658 48.9984 257.998 50.3413 258 51.9965C258.002 53.6524 256.664 54.9977 255.003 55C253.347 55.0016 252.002 53.6587 252 52.0027C251.998 50.3476 253.341 49.0016 254.997 49" fill="#8D3FD0"/>
<path fill-rule="evenodd" clip-rule="evenodd" d="M255.499 56C256.327 55.9991 256.999 56.6702 257 57.4987C257.001 58.3271 256.331 58.9991 255.501 59C254.674 59.0009 254.001 58.3298 254 57.5013C253.999 56.6729 254.67 56.0009 255.499 56" fill="#8D3FD0"/>
<path fill-rule="evenodd" clip-rule="evenodd" d="M250 39.8045C249.766 40.2225 249.632 40.6896 249.618 41.1907C249.001 41.1363 248.383 41.0947 247.766 41.0607C246.428 44.1128 243.742 46.4702 240.443 47.4218C240.43 48.2223 240.402 49.0167 240.36 49.8178H240.339C240.062 49.8186 239.792 49.8813 239.558 50C239.38 49.2479 239.195 48.4883 239.002 47.7363C238.421 47.8277 237.818 47.8761 237.208 47.8769C234.852 47.8791 232.666 47.1853 230.841 45.9956C230.536 46.2125 230.231 46.4211 229.92 46.6305C229.777 46.3871 229.55 46.1921 229.28 46.0878C229.493 45.8301 229.684 45.5655 229.868 45.2934C227.716 43.5467 226.223 41.0471 225.809 38.2052C225.213 38.1364 224.61 38.0744 224 38.0192C224.063 37.9149 224.105 37.8031 224.148 37.6844C224.311 37.2105 224.324 36.723 224.225 36.2702C224.721 36.1304 225.211 35.9974 225.708 35.8719C225.819 34.0957 226.35 32.423 227.207 30.9658C226.688 30.2772 226.148 29.5879 225.587 28.9122C225.863 28.8215 226.09 28.6333 226.225 28.3823C226.835 28.8207 227.453 29.2523 228.063 29.6975C230.168 27.0135 233.466 25.2827 237.184 25.2781C238.086 25.2774 238.965 25.3809 239.803 25.5752C240.043 25.0529 240.27 24.5298 240.497 24C240.873 24.3137 241.334 24.5291 241.846 24.6122C241.754 25.1209 241.676 25.6296 241.598 26.1375C244.338 27.2425 246.548 29.3649 247.735 32.0255C248.105 31.9 248.473 31.767 248.842 31.6271C248.97 31.9756 249.19 32.2817 249.467 32.5251C249.042 32.7556 248.623 32.9929 248.198 33.2227C248.533 34.2816 248.711 35.4025 248.712 36.5665C248.714 37.5416 248.587 38.4894 248.353 39.3949C248.9 39.5339 249.453 39.6723 250 39.8045" fill="#A158ED"/>
<path fill-rule="evenodd" clip-rule="evenodd" d="M249.007 41.3602C249.022 40.8156 249.165 40.3095 249.414 39.856C249.995 38.7513 251.159 38.0016 252.496 38C254.424 37.9984 255.998 39.5616 256 41.4971C256.002 43.4319 254.431 44.9984 252.504 45C250.568 45.0016 249.002 43.4392 249 41.5037C249 41.4586 249 41.4053 249.007 41.3602" fill="#8D3FD0"/>
<path fill-rule="evenodd" clip-rule="evenodd" d="M249.12 31.685C249.044 31.4721 249 31.2401 249 31.002C248.999 29.8986 249.895 29.0007 250.998 29C252.101 28.9986 252.999 29.8946 253 30.998C253.001 32.1014 252.105 32.9986 251.002 33C250.495 33.0007 250.024 32.8068 249.672 32.4932C249.428 32.2741 249.233 31.9986 249.12 31.685" fill="#8D3FD0"/>
<mask id="mask1_0_418" style="mask-type:alpha" maskUnits="userSpaceOnUse" x="239" y="18" width="7" height="6">
<path fill-rule="evenodd" clip-rule="evenodd" d="M239.639 18.471H245.246V23.8762H239.639V18.471Z" fill="white"/>
</mask>
<g mask="url(#mask1_0_418)">
<path fill-rule="evenodd" clip-rule="evenodd" d="M241.994 23.8424C241.477 23.7599 241.011 23.5462 240.631 23.2349C240.028 22.7452 239.641 22.0057 239.639 21.1762C239.638 19.6837 240.892 18.4724 242.439 18.4709C243.988 18.4694 245.244 19.6777 245.246 21.1709C245.247 22.6642 243.994 23.8747 242.446 23.8762C242.295 23.8762 242.138 23.8627 241.994 23.8424" fill="#8D3FD0"/>
</g>
<path fill-rule="evenodd" clip-rule="evenodd" d="M240.994 38C242.1 37.9992 242.999 38.8946 243 39.9979C243.001 41.1012 242.104 41.9992 240.998 42C239.893 42.0008 239.001 41.1054 239 40.0021C238.999 38.8988 239.889 38.0008 240.994 38" fill="#8D3FD0"/>
<path fill-rule="evenodd" clip-rule="evenodd" d="M240.517 50C241.337 50.0118 241.999 50.6773 242 51.4954C242.001 52.326 241.327 53 240.502 53C239.669 53.0007 239.001 52.3292 239 51.4987C238.999 50.9108 239.333 50.4011 239.831 50.1585C240.031 50.0552 240.262 50.0007 240.499 50H240.517Z" fill="#8D3FD0"/>
<path fill-rule="evenodd" clip-rule="evenodd" d="M232.499 30C234.986 29.9978 236.998 32.0055 237 34.4923C237.003 36.9792 234.995 38.9971 232.508 39C230.022 39.0029 228.003 36.9887 228 34.5011C227.998 32.0143 230.012 30.0022 232.499 30" fill="#8D3FD0"/>
<path fill-rule="evenodd" clip-rule="evenodd" d="M234.495 42C235.324 41.9992 235.998 42.6679 236 43.4985C236.001 44.3291 235.327 44.9992 234.498 45C233.669 45.0008 233.001 44.3329 233 43.5015C232.999 42.6701 233.666 42.0008 234.495 42" fill="#8D3FD0"/>
<path fill-rule="evenodd" clip-rule="evenodd" d="M229.078 46.1216C229.37 46.2365 229.616 46.4513 229.769 46.7194C229.915 46.9417 230 47.2107 230 47.5021C230.001 48.3306 229.326 48.9992 228.498 49C227.669 49.0008 227.001 48.3339 227 47.5054C226.999 46.6761 227.666 46 228.495 46C228.702 45.9992 228.902 46.045 229.078 46.1216" fill="#8D3FD0"/>
<path fill-rule="evenodd" clip-rule="evenodd" d="M225.868 27.4826C225.754 27.6989 225.562 27.8612 225.328 27.94C225.226 27.9818 225.118 28 225.004 28C224.452 28.0007 224.001 27.5503 224 27.0042C223.999 26.4516 224.449 26.0007 225.002 26C225.548 25.9993 225.999 26.4497 226 27.0023C226 27.1763 225.952 27.3385 225.868 27.4826" fill="#8D3FD0"/>
<path fill-rule="evenodd" clip-rule="evenodd" d="M223.942 35.9598C224.034 36.3851 224.022 36.8431 223.871 37.2883C223.832 37.3998 223.793 37.5041 223.735 37.6028C223.199 38.7091 221.91 39.2665 220.713 38.8752C219.403 38.4385 218.696 37.0192 219.126 35.7091C219.563 34.4005 220.975 33.6919 222.291 34.1293C223.155 34.4161 223.758 35.129 223.942 35.9598" fill="#8D3FD0"/>
<path fill-rule="evenodd" clip-rule="evenodd" d="M236 57.9957C236.002 60.2054 234.214 61.9977 232.004 62C229.794 62.0023 228.002 60.2139 228 58.0043C227.998 55.7946 229.786 54.0023 231.996 54C234.206 53.9977 235.998 55.7861 236 57.9957" fill="#A158ED"/>
<path fill-rule="evenodd" clip-rule="evenodd" d="M233 58C233.55 57.9992 233.999 58.4477 234 58.9984C234.001 59.5523 233.553 59.9992 233.002 60C232.45 60 232.001 59.554 232 59.0008C232 58.4501 232.448 58 233 58" fill="#8D3FD0"/>
<path fill-rule="evenodd" clip-rule="evenodd" d="M230.499 55C231.329 54.9992 231.999 55.6708 232 56.4988C232.001 57.3267 231.333 57.9992 230.502 58C229.674 58.0008 229.001 57.3292 229 56.5012C229 55.6733 229.671 55.0008 230.499 55" fill="#8D3FD0"/>
<path fill-rule="evenodd" clip-rule="evenodd" d="M230.5 59C230.776 58.9994 230.999 59.2237 231 59.4994C231 59.7757 230.776 59.9994 230.5 60C230.225 60 230.001 59.7769 230 59.5006C230 59.2243 230.224 59 230.5 59" fill="#8D3FD0"/>
</g>
<path fill-rule="evenodd" clip-rule="evenodd" d="M283 119.488C283.007 125.839 277.639 130.994 271.012 131C264.385 131.006 259.007 125.863 259 119.511C258.993 113.16 264.36 108.006 270.987 108C277.615 107.993 282.993 113.136 283 119.488" fill="#8D3FD0"/>
<path fill-rule="evenodd" clip-rule="evenodd" d="M275.998 110C277.103 109.999 277.999 110.896 278 111.998C278.001 113.105 277.107 113.999 276.002 114C274.897 114.002 274.001 113.109 274 112.002C273.999 110.9 274.893 110.002 275.998 110" fill="#A158ED"/>
<path fill-rule="evenodd" clip-rule="evenodd" d="M288 117.995C288.002 119.652 286.564 120.999 284.792 121C283.798 121.001 282.909 120.581 282.32 119.915C282.057 119.623 281.852 119.28 281.731 118.902C281.322 119.105 280.91 119.304 280.493 119.492L280.485 119.468C279.924 118.786 279.844 117.793 280.274 117.04C280.719 117.179 281.17 117.319 281.617 117.463L281.633 117.467C281.688 117.174 281.787 116.897 281.929 116.64C282.453 115.669 283.538 115.001 284.784 115C286.557 114.999 287.998 116.337 288 117.995" fill="#A158ED"/>
<path fill-rule="evenodd" clip-rule="evenodd" d="M273 104.881C272.998 103.846 273.896 103.001 274.998 103C276.104 102.999 276.999 103.841 277 104.877C277.002 105.916 276.108 106.758 275.002 106.758C274.932 106.758 274.861 106.755 274.794 106.751C274.707 107.189 274.625 107.623 274.537 108.06C274.479 108.369 274.417 108.678 274.36 108.986H274.356C274.302 108.99 274.243 108.994 274.19 108.998C273.936 109.01 273.674 108.979 273.453 108.862C273.316 108.792 273.191 108.683 273.116 108.549C273.237 108.303 273.356 108.057 273.469 107.807C273.663 107.381 273.846 106.951 274.02 106.517C273.413 106.198 273.001 105.584 273 104.881" fill="#A158ED"/>
<path fill-rule="evenodd" clip-rule="evenodd" d="M280.289 111.28C280.104 110.892 280 110.461 280 110.005C279.998 108.346 281.343 107.002 282.997 107C284.655 106.998 285.998 108.34 286 109.999C286.002 111.654 284.66 112.998 283.003 113C282.308 113.001 281.664 112.761 281.153 112.362C280.785 112.075 280.489 111.708 280.289 111.28" fill="#A158ED"/>
<path fill-rule="evenodd" clip-rule="evenodd" d="M274.703 130.953C274.893 131.258 274.999 131.611 275 131.996C275.001 133.104 274.105 133.999 273.003 134C271.896 134.001 271.001 133.108 271 132C271 131.851 271.015 131.707 271.05 131.57C271.242 130.671 272.04 130 272.998 130C273.717 129.999 274.352 130.379 274.703 130.953" fill="#A158ED"/>
<path fill-rule="evenodd" clip-rule="evenodd" d="M279.004 111.389L279 111.38C279.289 111.234 279.593 111.108 279.901 111C280.304 111.387 280.673 111.797 281 112.232C280.776 112.478 280.571 112.733 280.389 113C279.605 112.841 278.987 112.135 279.004 111.389" fill="#A158ED"/>
<path fill-rule="evenodd" clip-rule="evenodd" d="M286 128.367C286.002 129.821 284.76 130.998 283.228 131C281.695 131.002 280.45 129.827 280.448 128.372C280.448 128.086 280.496 127.811 280.588 127.557L280.549 127.545C280.25 127.359 279.953 127.171 279.659 126.981C278.756 126.4 277.872 125.798 277 125.179C277.257 124.651 277.551 124.132 277.962 123.704C278.25 123.404 278.6 123.155 278.994 123L279.007 123.029C279.713 123.773 280.401 124.528 281.063 125.309C281.287 125.566 281.505 125.832 281.72 126.093L281.751 126.139C282.176 125.881 282.683 125.736 283.222 125.735C284.754 125.733 285.998 126.912 286 128.367" fill="#A158ED"/>
<path fill-rule="evenodd" clip-rule="evenodd" d="M277.002 120C275.896 120.001 275.001 119.107 275 118.002C274.999 116.896 275.892 116.002 276.998 116C278.099 115.999 278.998 116.892 279 117.998C279.001 119.104 278.103 119.999 277.002 120" fill="#A158ED"/>
<path fill-rule="evenodd" clip-rule="evenodd" d="M256 117.003C255.998 115.347 257.336 114.002 258.992 114C259.586 114 260.143 114.174 260.609 114.478C261.407 114.991 261.944 115.874 261.979 116.888L262.059 116.884L262.986 116.883C263.07 117.817 262.784 118.774 262.202 119.508L262.144 119.558C261.899 119.279 261.673 118.991 261.466 118.687C260.992 119.384 260.236 119.869 259.358 119.974C259.242 119.991 259.122 120 258.996 120C257.342 120.002 256.002 118.659 256 117.003" fill="#A158ED"/>
<mask id="mask2_0_418" style="mask-type:alpha" maskUnits="userSpaceOnUse" x="254" y="124" width="8" height="6">
<path fill-rule="evenodd" clip-rule="evenodd" d="M254 124.126H261.833V129.793H254V124.126Z" fill="white"/>
</mask>
<g mask="url(#mask2_0_418)">
<path fill-rule="evenodd" clip-rule="evenodd" d="M261.074 126.241C260.714 126.312 260.354 126.391 259.997 126.474C260.25 127.825 259.422 129.19 257.989 129.643C256.409 130.144 254.694 129.348 254.159 127.862C253.626 126.381 254.475 124.774 256.058 124.273C257.354 123.867 258.742 124.329 259.493 125.327C259.731 125.138 259.962 124.945 260.192 124.745C260.381 124.587 260.565 124.422 260.746 124.256C261.383 124.664 261.802 125.368 261.833 126.091C261.578 126.138 261.326 126.186 261.074 126.241" fill="#A158ED"/>
</g>
<path fill-rule="evenodd" clip-rule="evenodd" d="M258 105.487C257.998 104.117 259.251 103.002 260.793 103C262.338 102.998 263.592 104.111 263.594 105.482C263.594 106.289 263.163 107.007 262.489 107.459C263.056 108.156 263.66 108.829 264.303 109.474C264.531 109.704 264.762 109.933 265 110.155C264.858 110.417 264.63 110.638 264.354 110.785C264.059 110.948 263.707 111.019 263.359 110.996C263.261 110.77 263.158 110.544 263.046 110.323C262.653 109.475 262.228 108.636 261.78 107.808C261.478 107.912 261.148 107.967 260.799 107.968C259.257 107.969 258.002 106.861 258 105.487" fill="#A158ED"/>
<path fill-rule="evenodd" clip-rule="evenodd" d="M264 122.499C263.999 121.674 264.671 121.001 265.5 121C266.326 120.999 266.999 121.671 267 122.497C267.001 123.327 266.329 123.999 265.504 124C264.674 124.001 264.001 123.329 264 122.499" fill="#A158ED"/>
<path fill-rule="evenodd" clip-rule="evenodd" d="M267 105.99C266.999 105.443 267.446 105.001 267.998 105C268.552 105 268.999 105.442 269 105.988C269 106.41 268.732 106.768 268.358 106.913C268.416 107.157 268.481 107.403 268.546 107.648C268.665 108.094 268.791 108.536 268.926 108.978C268.763 109.01 268.597 109.006 268.434 108.97C268.161 108.911 267.913 108.746 267.751 108.525L267.738 107.861C267.733 107.552 267.728 107.247 267.725 106.937C267.306 106.821 267 106.44 267 105.99" fill="#A158ED"/>
<path fill-rule="evenodd" clip-rule="evenodd" d="M269.004 116C267.9 116.002 267.002 115.108 267 114.002C266.999 112.896 267.895 112.002 269 112C270.101 111.999 270.999 112.892 271 113.998C271.002 115.104 270.105 115.999 269.004 116" fill="#A158ED"/>
<path fill-rule="evenodd" clip-rule="evenodd" d="M270.5 127C269.673 127.001 269.001 126.33 269 125.503C268.999 124.673 269.67 124.001 270.497 124C271.327 123.999 271.999 124.67 272 125.5C272 126.327 271.33 126.999 270.5 127" fill="#A158ED"/>
<path fill-rule="evenodd" clip-rule="evenodd" d="M268 120.003C267.998 118.347 269.341 117.002 270.997 117C272.653 116.998 273.998 118.34 274 119.996C274.002 121.653 272.66 122.998 271.003 123C269.347 123.002 268.002 121.659 268 120.003" fill="#A158ED"/>
<path fill-rule="evenodd" clip-rule="evenodd" d="M267 118.498C267.001 119.327 266.328 119.999 265.503 120C264.674 120.001 264.001 119.329 264 118.502C263.999 117.674 264.671 117.001 265.5 117C266.326 116.999 266.999 117.671 267 118.498" fill="#A158ED"/>
<path fill-rule="evenodd" clip-rule="evenodd" d="M267 127.995L266.923 128.045C266.548 128.441 266.136 128.813 265.695 129.153L265.645 129.191C265.981 129.528 266.2 129.946 266.264 130.407C266.282 130.497 266.287 130.59 266.287 130.688C266.288 131.966 265.108 132.999 263.648 133C262.184 133.001 261.002 131.971 261 130.693C260.999 129.637 261.808 128.746 262.922 128.475C263.15 128.416 263.392 128.384 263.642 128.384C263.965 128.384 264.27 128.435 264.557 128.528L264.569 128.49C264.771 128.032 264.971 127.575 265.172 127.117L265.199 127C265.915 127.109 266.583 127.471 267 127.995" fill="#A158ED"/>
<mask id="mask3_0_418" style="mask-type:alpha" maskUnits="userSpaceOnUse" x="293" y="98" width="19" height="20">
<path fill-rule="evenodd" clip-rule="evenodd" d="M293.426 98.7754H311.668V117.21H293.426V98.7754Z" fill="white"/>
</mask>
<g mask="url(#mask3_0_418)">
<path fill-rule="evenodd" clip-rule="evenodd" d="M311.668 107.983C311.674 113.075 307.595 117.204 302.556 117.21C297.517 117.215 293.431 113.094 293.426 108.002C293.42 102.91 297.499 98.7802 302.538 98.7754C307.577 98.7698 311.663 102.891 311.668 107.983" fill="#A158ED"/>
</g>
<path fill-rule="evenodd" clip-rule="evenodd" d="M304 108C305.101 107.999 305.999 108.896 306 109.998C306.001 111.105 305.105 111.999 304.005 112C302.899 112.001 302.001 111.109 302 110.002C301.999 108.9 302.894 108.001 304 108" fill="#8D3FD0"/>
<path fill-rule="evenodd" clip-rule="evenodd" d="M299.497 101C301.434 100.998 302.997 102.564 303 104.496C303.002 106.428 301.441 107.998 299.503 108C297.571 108.002 296.001 106.435 296 104.504C295.998 102.572 297.565 101.002 299.497 101" fill="#8D3FD0"/>
<path fill-rule="evenodd" clip-rule="evenodd" d="M299.499 110C300.328 109.999 301 110.671 301 111.5C301.001 112.327 300.329 112.999 299.502 113C298.673 113.001 298.001 112.33 298 111.501C297.999 110.674 298.67 110.001 299.499 110" fill="#8D3FD0"/>
<path fill-rule="evenodd" clip-rule="evenodd" d="M293 95C290.336 95 290.331 99 293 99C295.664 99 295.669 95 293 95" fill="#A158ED"/>
<mask id="mask4_0_418" style="mask-type:alpha" maskUnits="userSpaceOnUse" x="281" y="87" width="5" height="5">
<path fill-rule="evenodd" clip-rule="evenodd" d="M281.123 87.3867H285.275V91.6847H281.123V87.3867Z" fill="white"/>
</mask>
<g mask="url(#mask4_0_418)">
<path fill-rule="evenodd" clip-rule="evenodd" d="M283.199 87.3863C280.434 87.3863 280.429 91.6847 283.199 91.6847C285.965 91.6847 285.97 87.3863 283.199 87.3863" fill="#A158ED"/>
</g>
<path fill-rule="evenodd" clip-rule="evenodd" d="M295 120C292.335 120 292.331 124 295 124C297.664 124 297.669 120 295 120" fill="#A158ED"/>
<path fill-rule="evenodd" clip-rule="evenodd" d="M293 131C290.336 131 290.331 135 293 135C295.664 135 295.669 131 293 131" fill="#A158ED"/>
<path fill-rule="evenodd" clip-rule="evenodd" d="M301 130C298.335 130 298.331 134 301 134C303.665 134 303.669 130 301 130" fill="#A158ED"/>
<path fill-rule="evenodd" clip-rule="evenodd" d="M168.893 51.6187C169.342 50.0835 170.979 48.6065 172.539 48.4074C174.106 48.2069 175.709 48.5 177.267 48.2401C179.555 47.8587 181.6 46.211 182.49 44.0308C183.381 41.851 183.087 39.2121 181.74 37.2905C180.648 35.7336 178.884 34.5348 178.532 32.6548C178.241 31.0959 179.039 29.542 179.98 28.2761C180.92 27.0106 182.051 25.8428 182.599 24.3573C183.418 22.1397 182.665 19.4218 180.828 17.9673C179.607 17.0008 177.922 16.5625 176.369 16.7753C175.551 16.887 174.811 16.3485 174.613 15.5323C174.612 15.5251 174.61 15.5178 174.608 15.5106C174.428 14.7904 174.002 14.1598 173.537 13.5865C172.336 12.1035 170.78 10.8699 168.974 10.3106C167.168 9.75089 165.099 9.92627 163.541 11.0113C161.851 12.1885 160.963 14.2243 160.327 16.2067C159.691 18.1886 159.201 20.2754 158 21.9643C155.311 22.7856 152.55 23.4251 150.525 25.4049C148.501 27.3851 147.546 30.8156 149.166 33.1496C149.923 34.2388 151.169 35.0283 151.507 36.3167C151.786 37.3852 151.341 38.5292 150.675 39.4023C150.01 40.2754 149.135 40.9553 148.371 41.7405C146.196 43.9747 144.934 47.1121 145.003 50.2649C145.026 51.324 145.485 52.3495 146.312 52.9921C148.871 54.9833 152.341 51.3189 155.081 52.6447C156.326 53.2464 156.933 54.6797 157.938 55.6399C159.634 57.2608 162.355 57.3339 164.484 56.3809C166.451 55.5006 168.28 53.7187 168.893 51.6187" fill="#190F52"/>
<path fill-rule="evenodd" clip-rule="evenodd" d="M186.743 74C188.192 80.7438 188.949 87.6097 189 94.4802C187.495 96.8249 186.303 99.3495 185.607 101.987C185.136 103.776 182.849 104.613 181.516 106C182.332 104.462 183.044 102.838 183.86 101.301C184.641 99.8272 184.461 98.0029 184.812 96.3999C183.789 98.0042 182.672 99.8009 181.65 101.405C181.438 101.244 181.212 100.996 181 100.835C181.665 99.3294 182.098 97.8239 182.296 96.2125C182.461 94.8634 182.976 93.7561 183.989 92.7559C183.708 87.7105 182.713 82.9747 181.142 78.1276L186.743 74Z" fill="#FFAB91"/>
<path fill-rule="evenodd" clip-rule="evenodd" d="M173 42C174.786 42.6457 180.048 45.4318 181.9 45.873C183.753 46.3137 185.664 47.5887 185.74 49.4138C185.795 50.7187 184.886 51.9638 185.092 53.2548C185.41 55.2421 188.143 56.249 188.437 58.2397C188.761 60.4355 185.896 62.4535 186.775 64.5053C187.488 66.1678 190.175 66.3871 190.857 68.0613C191.198 68.9012 190.895 69.8803 190.322 70.5957C189.75 71.3106 188.944 71.8153 188.154 72.3062C188.243 73.281 188.266 74.4375 188.355 75.4124C186.115 76.0823 184.334 76.9348 182.268 78C178.114 67.3641 173.23 53.3526 173 42" fill="#E5E4E3"/>
<path fill-rule="evenodd" clip-rule="evenodd" d="M184.908 87.7174C184.599 82.7952 183.471 78.0292 180.911 73.4331C175.092 73.1942 168.997 72.3053 163.31 71.0065C162.619 70.8484 160.4 73.6249 159.913 74.182C158.754 75.505 157.72 76.9745 156.83 78.5501C155.103 81.6082 153.912 85.0857 153.47 88.6763C152.606 95.712 153.071 102.86 153.755 109.835C154.424 116.657 156.085 123.931 156.11 130.853C158.115 131.105 158.664 131.422 160.67 131.674C164.347 120.583 166.583 108.866 168 97.1676C168.449 97.2346 169.26 97.3244 169.709 97.3914C171.408 108.845 172.521 120.972 172.807 132.636C174.22 133.008 175.793 133.102 177.245 132.884C177.707 132.814 178.928 127.267 179.117 126.57C181.075 119.337 182.709 111.981 183.773 104.526C184.597 98.7442 185.248 93.136 184.908 87.7174" fill="#FF4A86"/>
<path fill-rule="evenodd" clip-rule="evenodd" d="M175.212 155.602C175.475 155.602 175.738 155.474 176 155.304C175.927 157.448 175.871 159.592 175.847 161.738C174.546 162.094 174.014 162.053 172.696 161.821C172.167 159.625 171.569 157.336 171 155C172.378 155.542 173.87 155.736 175.212 155.602" fill="#FFAB91"/>
<path fill-rule="evenodd" clip-rule="evenodd" d="M170.217 137.382C170.969 131.942 173.342 126.805 176.861 123L178.446 124.731C179.654 126.05 180.209 127.958 179.929 129.831C178.7 138.051 177.931 146.358 177.609 154.686C177.333 154.843 177.057 154.962 176.781 154.962C175.37 155.086 173.803 154.907 172.355 154.405C170.8 148.776 169.461 142.854 170.217 137.382" fill="#FF4A86"/>
<path fill-rule="evenodd" clip-rule="evenodd" d="M177.412 161.002C177.766 161.017 178.106 161.119 178.382 161.337C178.662 161.56 178.894 161.845 179.156 162.092C179.785 162.685 185.028 166.331 185 167.152C184.973 167.929 184.375 168.412 183.682 168.657C182.153 169.199 180.334 169.071 178.845 168.47C177.345 167.865 176.08 166.792 174.498 166.382C173.891 166.225 173.004 166.249 173 165.391C172.995 164.092 173.484 162.556 173.959 161.302C174.014 161.157 174.216 161.145 174.289 161.283C174.432 161.552 174.67 162.063 175.054 161.977C175.371 161.906 175.573 161.646 175.827 161.469C176.254 161.173 176.85 160.978 177.412 161.002" fill="#FFF6D2"/>
<path fill-rule="evenodd" clip-rule="evenodd" d="M148.078 155.31C148.345 155.421 148.665 155.418 149 155.38C148.058 157.243 147.132 159.114 146.24 161C144.771 160.765 144.247 160.504 143 159.743C143.353 157.579 143.671 155.304 144.039 153C145.22 154.061 146.659 154.862 148.078 155.31" fill="#FFAB91"/>
<path fill-rule="evenodd" clip-rule="evenodd" d="M149.05 134.853C151.968 130.054 156.233 126.177 160.992 124L161.72 126.246C162.275 127.958 161.995 129.964 160.971 131.607C156.48 138.823 152.368 146.301 148.655 153.976C148.341 154.014 148.041 154.017 147.79 153.908C146.458 153.468 145.108 152.683 144 151.642C144.9 145.757 146.116 139.682 149.05 134.853" fill="#FF4A86"/>
<path fill-rule="evenodd" clip-rule="evenodd" d="M146.8 158.294C147.167 158.468 147.48 158.725 147.67 159.074C147.863 159.428 147.976 159.826 148.138 160.198C148.528 161.091 152.381 167.194 151.969 168.028C151.58 168.818 150.723 169.049 149.876 168.992C148.007 168.866 146.142 167.922 144.846 166.636C143.54 165.342 142.701 163.67 141.218 162.541C140.649 162.108 139.698 161.735 140.094 160.849C140.691 159.508 141.923 158.142 143.007 157.061C143.133 156.936 143.352 157.014 143.365 157.189C143.391 157.53 143.406 158.163 143.852 158.247C144.221 158.316 144.554 158.137 144.906 158.068C145.494 157.953 146.216 158.018 146.8 158.294" fill="#FFF6D2"/>
<path fill-rule="evenodd" clip-rule="evenodd" d="M157.013 70.5822C158.262 67.944 157.818 64.7753 156.84 62.0185C155.863 59.2617 154.389 56.7014 153.567 53.891C152.744 51.0807 152.67 47.8125 154.34 45.4345C156.207 42.7755 159.715 41.9465 162.901 42.0026C169.767 42.1242 176.507 45.6007 180.714 51.1908C182.873 54.0598 184.42 57.779 183.379 61.247C182.824 63.0936 181.723 64.9305 182.139 66.8154C182.613 68.9625 184.969 70.5278 184.757 72.7187C184.606 74.2729 183.142 75.6145 183.487 77.1351C183.696 78.0584 184.528 78.7016 184.853 79.5888C185.24 80.6422 184.822 81.8699 184.075 82.692C183.329 83.5137 182.305 84.0035 181.289 84.4167C174.083 87.3443 161.26 86.2165 155.404 80.995C154.665 80.3357 153.926 79.4341 154.103 78.4436C154.205 77.8761 154.594 77.411 154.79 76.8703C155.329 75.3879 158.277 74.6836 157.542 73.2935C156.807 71.903 155.737 71.4634 157.013 70.5822" fill="#F9F9F9"/>
<path fill-rule="evenodd" clip-rule="evenodd" d="M181 51C179.286 47.3356 177.113 43.803 174.079 41.0144C171.045 38.2261 167.072 36.2242 162.856 36.015C160.865 35.9157 158.697 36.2922 157.336 37.6762C155.904 39.1336 155.718 41.3991 156.331 43.3059C156.945 45.213 158.232 46.8483 159.495 48.4408" fill="#F9F9F9"/>
<path fill-rule="evenodd" clip-rule="evenodd" d="M178.713 49.6424C177.271 46.9094 175.585 44.2614 173.335 42.1252C171.086 39.9895 168.223 38.3865 165.122 38.047C164.012 37.9255 162.784 38.0024 161.94 38.7256C160.783 39.7169 160.808 41.5396 161.4 42.9348C161.991 44.3304 163.024 45.503 163.673 46.873C163.342 45.7161 163.067 44.3118 163.91 43.4449C164.734 42.5982 166.137 42.7824 167.276 43.1161C171.882 44.4646 176.041 47.2617 179 51" fill="#CCCBCA"/>
<path fill-rule="evenodd" clip-rule="evenodd" d="M174.096 50.6816C174.596 50.4192 175.12 50.1445 175.356 49.6779C175.639 49.1199 175.418 48.5428 175.077 48.0427C175.062 48.0207 175.09 47.9889 175.121 48.0039C176.65 48.7433 176.079 50.9649 174.221 51C174.01 51.0037 173.915 50.7764 174.096 50.6816" fill="#CCCBCA"/>
<path fill-rule="evenodd" clip-rule="evenodd" d="M163.352 43.0614C165.499 45.1517 167.46 47.1932 169.987 48.9445C170.021 48.9678 169.982 49.0121 169.946 48.9969C167.152 47.8239 164.39 45.8325 163.022 43.3104C162.925 43.1308 163.169 42.8836 163.352 43.0614" fill="#CCCBCA"/>
<path fill-rule="evenodd" clip-rule="evenodd" d="M178.457 51.1225C181.171 55.9061 181.534 62.5786 180.386 67.9856C180.381 68.0096 180.351 68.0013 180.354 67.9773C180.684 65.1686 180.643 62.2294 180.279 59.4298C179.9 56.5138 178.946 54.0674 178.017 51.3639C177.913 51.0587 178.307 50.8588 178.457 51.1225" fill="#FAFAFA"/>
<path fill-rule="evenodd" clip-rule="evenodd" d="M162.482 48.15C163.126 50.0545 163.824 51.7174 165.071 53.3495C166.265 54.912 167.667 56.3095 168.968 57.7865C171.249 60.3777 173.365 63.4277 172.947 66.9752C172.943 67.0085 172.886 67.0085 172.885 66.9739C172.736 62.7602 169.873 59.5865 167.083 56.6115C164.942 54.3303 162.229 51.5053 162.001 48.2683C161.982 48.0096 162.39 47.8791 162.482 48.15" fill="#FAFAFA"/>
<path fill-rule="evenodd" clip-rule="evenodd" d="M170.457 68.5108C172.48 68.7593 174.436 69.039 176.477 68.8964C178.32 68.7675 180.104 68.2341 181.934 68.0004C181.996 67.9927 182.026 68.1016 181.972 68.1369C178.694 70.2291 173.856 70.4316 170.287 69.3771C169.801 69.2339 169.982 68.4525 170.457 68.5108" fill="#CCCBCA"/>
<path fill-rule="evenodd" clip-rule="evenodd" d="M182.066 68.012C183.379 69.2964 184.316 72.6624 183.9 74.7071C183.828 75.0624 183.4 75.1193 183.315 74.7395C183.069 73.6313 183.12 72.4488 182.876 71.3223C182.637 70.2138 182.214 69.1765 182.001 68.0649C181.992 68.0146 182.034 67.9809 182.066 68.012" fill="#CCCBCA"/>
<path fill-rule="evenodd" clip-rule="evenodd" d="M169.241 81.0921C173.856 81.2632 178.157 80.8805 181.776 78.0305C181.895 77.9367 182.08 78.0797 181.962 78.182C178.78 80.9332 173.633 82.9288 169.194 81.5542C168.938 81.4751 168.917 81.0801 169.241 81.0921" fill="#CCCBCA"/>
<path fill-rule="evenodd" clip-rule="evenodd" d="M159.019 75.1503C159.038 74.9299 159.271 74.976 159.327 75.1336C159.728 76.2723 159.841 77.5194 160.284 78.6594C160.729 79.8052 161.317 80.7923 161.97 81.7603C162.059 81.8933 161.934 82.0791 161.822 81.9639C160.386 80.4909 158.807 77.6008 159.019 75.1503" fill="#CCCBCA"/>
<path fill-rule="evenodd" clip-rule="evenodd" d="M157.713 43C155.52 43.5688 153.294 44.1512 151.341 45.3289C149.39 46.5065 147.713 48.3812 147.277 50.672C146.868 52.8205 147.548 55.2071 146.555 57.1415C146.239 57.7573 145.763 58.2966 145.588 58.9691C145.429 59.5764 145.534 60.2263 145.419 60.8442C145.193 62.0505 144.197 62.909 143.466 63.8786C141.315 66.733 141.56 71.2194 144.009 73.8051C146.459 76.3907 150.797 76.7441 153.608 74.587C156.263 72.55 157.573 69.2794 157.886 65.8792C157.95 65.1883 157.956 64.4452 157.598 63.8576C157.24 63.2696 156.395 62.9547 155.871 63.3897C155.908 62.5838 157.444 62.5077 158.013 61.9548C158.485 61.4963 158.557 60.7451 158.474 60.081C158.39 59.417 158.183 58.7636 158.213 58.0949C158.244 57.4257 158.603 56.7014 159.235 56.5514C160.684 52.1449 160.018 46.9988 157.713 43" fill="#FAFAFA"/>
<path fill-rule="evenodd" clip-rule="evenodd" d="M151.578 64.7425C155.383 63.9744 159.308 63.8008 163.166 64.2284C165.247 66.3 167.301 68.487 169 70.8803C168.285 72.4313 167.266 73.9267 165.936 75C164.457 73.2454 162.583 69.4249 161.869 67.2461C158.56 67.6803 155.98 70.058 152.893 71.3232C151.128 69.5639 150.393 66.9317 151.578 64.7425" fill="#FFAB91"/>
<path fill-rule="evenodd" clip-rule="evenodd" d="M153.047 64.0127C153.169 63.951 153.259 64.1279 153.214 64.2479C152.751 65.494 152.5 66.3438 152.847 67.7371C153.114 68.8096 153.545 69.8215 153.988 70.8039C154.039 70.9176 153.914 71.0735 153.831 70.9612C152.8 69.5763 150.749 65.1712 153.047 64.0127" fill="#F0B729"/>
<path fill-rule="evenodd" clip-rule="evenodd" d="M150.331 65.7238C150.126 65.7317 149.92 65.7388 149.716 65.7406C149.583 65.7417 149.532 65.5574 149.672 65.528C150.316 65.3924 150.969 65.2977 151.619 65.1891C151.948 65.0983 152.291 65.0345 152.646 65.0018C153.094 64.9606 153.131 65.6226 152.676 65.6259C150.183 65.93 148.489 67.6291 148.344 69.8533C148.331 70.037 148.034 70.056 148.017 69.8659C147.859 68.1398 148.811 66.5959 150.331 65.7238" fill="#CCCBCA"/>
<path fill-rule="evenodd" clip-rule="evenodd" d="M148.379 61.0486C149.343 61.9946 150.159 62.7124 151.293 62.6802C152.472 62.6467 153.679 61.9497 154.813 61.3754C155.002 61.2791 155.074 61.7592 154.904 61.9062C152.925 63.6191 149.715 65.6881 148.049 61.7264C147.885 61.3383 148.169 60.8417 148.379 61.0486" fill="#CCCBCA"/>
<path fill-rule="evenodd" clip-rule="evenodd" d="M148.34 54.1137C149.552 56.7516 151.891 58.4173 154.804 57.0771C154.96 57.0055 155.081 57.2652 154.933 57.3505C152.268 58.8845 148.136 57.6518 148 54.1752C147.992 53.9646 148.262 53.9436 148.34 54.1137" fill="#CCCBCA"/>
<path fill-rule="evenodd" clip-rule="evenodd" d="M161.087 78.5798C162.74 77.1848 164.517 75.9731 166.053 74.4493C167.695 72.82 169.007 71.0038 170.349 69.1563C170.593 68.8203 171.159 69.075 170.958 69.4581C169.024 73.1405 165.378 77.1019 161.439 78.9722C161.185 79.0932 160.835 78.7926 161.087 78.5798" fill="#CCCBCA"/>
<path fill-rule="evenodd" clip-rule="evenodd" d="M171.725 37.0261C170.64 39.7733 171.255 45.9327 171.609 46.3159C171.964 46.6987 172.166 47.333 171.824 47.7274C171.476 48.129 170.833 48.0149 170.331 47.8411C167.923 47.0078 165.727 45.5712 164 43.6989C164.172 43.5463 164.466 43.2392 164.638 43.0862C166.679 41.2732 165.94 37.7184 165.693 35L171.725 37.0261Z" fill="#FFAB91"/>
<path fill-rule="evenodd" clip-rule="evenodd" d="M165.367 38.5025C165.304 37.308 165.11 36.0897 165 35L172 37.1053C171.459 38.334 171.283 40.2188 171.29 42C169.327 40.8221 167.302 39.7 165.367 38.5025" fill="#FF8A65"/>
<path fill-rule="evenodd" clip-rule="evenodd" d="M173.403 21.4367C176.404 24.9992 180.897 33.8344 175.422 37.2428C173.646 38.3488 171.231 38.1476 169.324 37.2544C167.418 36.3612 165.909 34.879 164.44 33.4258C163.693 33.6543 162.85 33.9598 162.065 33.92C161.281 33.8795 160.466 33.5173 160.129 32.8476C159.792 32.1779 160.137 31.2206 160.902 31.0492C165.887 29.9329 168.398 23.7219 169.487 19.0017C169.5 18.9471 172.005 20.207 172.242 20.3709C172.704 20.6913 173.073 21.0456 173.403 21.4367" fill="#FFAB91"/>
<path fill-rule="evenodd" clip-rule="evenodd" d="M161.02 32.4556C161.268 31.9145 161.803 31.9532 162.203 32.079C162.464 32.1616 163.058 32.4502 162.995 32.9611C162.994 32.9701 162.988 32.9768 162.983 32.9791C162.734 33.0891 162.415 32.732 162.165 32.668C161.805 32.576 161.478 32.8046 161.128 32.7315C161.04 32.7135 160.962 32.5832 161.02 32.4556" fill="#FF8A65"/>
<path fill-rule="evenodd" clip-rule="evenodd" d="M173.021 25.1943C173.057 25.0229 173.232 24.9507 173.355 25.0358C173.589 25.1968 173.688 25.4931 173.781 25.7831C173.876 26.0772 174.021 26.4027 173.998 26.7235C173.978 26.986 173.744 27.0819 173.581 26.9221C173.375 26.7214 173.274 26.363 173.167 26.0797C173.058 25.7939 172.955 25.5085 173.021 25.1943" fill="#212121"/>
<path fill-rule="evenodd" clip-rule="evenodd" d="M168.021 27.1942C168.057 27.0227 168.232 26.9509 168.355 27.0356C168.589 27.1967 168.688 27.4929 168.781 27.7829C168.876 28.0775 169.021 28.403 168.997 28.7234C168.978 28.9859 168.744 29.0818 168.581 28.9224C168.374 28.7213 168.274 28.3633 168.167 28.08C168.058 27.7938 167.955 27.5088 168.021 27.1942" fill="#212121"/>
<path fill-rule="evenodd" clip-rule="evenodd" d="M171.006 22.7748C171.131 22.3079 171.592 22.0988 171.994 22.0288C172.293 21.9768 172.853 21.9548 172.995 22.3289C173.004 22.3536 173.001 22.3778 172.98 22.3926C172.746 22.5609 172.384 22.4703 172.115 22.5501C171.786 22.6479 171.525 22.9027 171.199 22.9947C171.083 23.0274 170.972 22.904 171.006 22.7748" fill="#212121"/>
<path fill-rule="evenodd" clip-rule="evenodd" d="M165.01 24.5498C165.196 23.6159 165.888 23.1979 166.491 23.0571C166.939 22.9539 167.78 22.91 167.993 23.6581C168.007 23.7065 168.001 23.7559 167.97 23.7855C167.619 24.1219 167.077 23.9407 166.672 24.1003C166.179 24.295 165.788 24.8054 165.299 24.9893C165.124 25.0548 164.958 24.8081 165.01 24.5498" fill="#212121"/>
<path fill-rule="evenodd" clip-rule="evenodd" d="M176.227 28C172.007 28.4181 167.982 30.1431 165 32.8119C165.349 33.8141 165.628 34.7803 165.977 35.7829C167.563 36.6121 169.477 37.1962 171.24 37.6457C172.775 38.0373 175.511 38.2298 176.894 37.5468C178.853 34.5282 177.944 31.1767 176.227 28" fill="#FAFAFA"/>
<path fill-rule="evenodd" clip-rule="evenodd" d="M161.072 30.1319C161.79 29.8197 162.449 30.1189 163.123 30.4369C164.069 30.8838 165.084 31.2822 165.969 31.8635C166.033 31.906 165.99 32.0199 165.916 31.997C165.214 31.7766 164.539 31.4116 163.868 31.0957C163.032 30.7026 162.055 30.0254 161.124 30.354C160.993 30.4001 160.951 30.1846 161.072 30.1319" fill="#FAFAFA"/>
<path fill-rule="evenodd" clip-rule="evenodd" d="M163.252 33.052C164.684 34.7913 166.182 35.3021 167.958 35.7697C168.014 35.7851 168.014 35.9259 167.957 35.9383C166.221 36.3048 164.333 34.987 163.048 33.3503C162.906 33.1707 163.111 32.8812 163.252 33.052" fill="#FAFAFA"/>
<path fill-rule="evenodd" clip-rule="evenodd" d="M63.1028 39.0492C63.1371 38.9724 63.3003 38.9904 63.3046 39.0693C63.3232 39.4301 63.5097 39.8217 63.85 40.104C64.1523 40.355 64.6235 40.4326 64.9209 40.6671C65.0951 40.8044 64.9614 40.9769 64.7149 40.9966C64.1156 41.0441 63.5611 40.5802 63.3013 40.2588C62.9876 39.8708 62.9143 39.4724 63.1028 39.0492" fill="#FF8A65"/>
<path fill-rule="evenodd" clip-rule="evenodd" d="M61.8453 39.0025C61.9841 38.9816 62.0608 39.0963 61.9398 39.1404C61.3403 39.3585 60.7625 39.5696 60.2964 39.8907C59.8269 40.2135 59.6212 40.5945 59.2737 40.9582C59.2014 41.0337 58.9947 40.9999 59.0001 40.9123C59.0498 40.0762 60.5415 39.198 61.8453 39.0025" fill="#FF8A65"/>
<path fill-rule="evenodd" clip-rule="evenodd" d="M63.0394 41.0523C63.3791 40.9506 63.717 41.011 64.0551 41.1155C64.3486 41.2064 64.7152 41.259 64.9566 41.6328C65.0319 41.7497 65.0051 41.9835 64.9078 41.9965C64.6155 42.0354 64.3071 41.7429 64.0197 41.6243C63.6937 41.4905 63.3621 41.4233 63.0383 41.2697C62.9884 41.246 62.9857 41.0686 63.0394 41.0523" fill="#FF8A65"/>
<path fill-rule="evenodd" clip-rule="evenodd" d="M88.7146 36.1255C87.7713 35.8058 86.698 36.1297 85.9081 36.7263C85.1182 37.3234 84.5597 38.1592 84.0355 38.9901C80.6062 44.4205 77.9779 50.3341 76.2566 56.4902C75.2802 53.0001 76.374 52.8023 73.8602 51.1331C71.346 49.4638 66.4997 49.8899 64.0973 51.71C61.9495 53.3373 61.9907 53.6026 62.0022 56.2593C62.0142 58.9161 62.2405 61.1154 63.5564 63.4399C64.6125 65.3052 65.9317 67.0846 67.7349 68.2833C71.2538 70.6229 76.0264 70.338 79.9898 68.8213C83.9528 67.3046 87.3727 64.7211 91 62.5453" fill="#1D19BF"/>
<path fill-rule="evenodd" clip-rule="evenodd" d="M55.0068 41.3738C55.3346 40.2452 56.8994 39.8771 58.1794 39.7517C57.4445 39.6841 56.672 39.6543 55.7062 39.8159C55.6277 39.8295 55.6264 39.6968 55.6571 39.6322C56.3065 38.269 58.7609 38.4454 60.03 38.6044C60.384 38.649 60.7429 38.7145 61.1001 38.7948C61.1487 38.7438 61.1995 38.6962 61.253 38.6511C60.9151 38.5797 60.5711 38.5223 60.2122 38.4964C59.0037 38.408 57.9467 38.1687 56.3854 38.4305C56.307 38.4437 56.3056 38.3111 56.3363 38.2469C56.9857 36.8832 59.4401 37.06 60.7092 37.219C61.696 37.3427 62.7201 37.5999 63.6268 38.0454C63.4629 37.4668 63.4813 36.7982 63.8735 36.3357C64.1868 35.9663 64.7981 35.869 65.1438 36.2103C65.0334 37.1548 64.9602 38.2243 65.607 38.9389C65.9751 39.3457 66.5224 39.5642 66.9037 39.9591C67.2731 40.3417 67.4606 40.8828 67.405 41.4044C67.3493 41.9256 67.0912 42.5156 66.6486 42.8161C68.9825 46.7953 70.7857 51.067 72 55.4913C70.4724 57.3774 67.5522 58.4341 65.1592 57.8297C65.313 52.8638 64.8748 48.5437 63.6872 43.7109C60.8025 43.1166 59.3459 41.9336 56.4682 42.5594C56.5756 41.4567 57.9805 41.2718 58.8748 41.0286C57.6667 41.126 56.5843 41.0507 55.0852 41.5477C55.0094 41.5727 54.9871 41.4422 55.0068 41.3738" fill="#FFAB91"/>
<path fill-rule="evenodd" clip-rule="evenodd" d="M62.2961 56.347C63.2237 56.6397 64.0338 57.1354 65.0161 57.2171C66.0022 57.2992 67.0175 57.1222 67.93 56.6707C69.7249 55.7829 70.7962 54.1131 71.6306 52.1206C71.7296 51.8846 72.0434 52.0257 71.9949 52.2795C71.5675 54.508 69.9815 56.3982 68.2417 57.2982C66.4789 58.2101 63.6394 58.4044 62.0776 56.8364C61.8946 56.653 62.063 56.2737 62.2961 56.347" fill="#07184F"/>
<path fill-rule="evenodd" clip-rule="evenodd" d="M72.027 63.7644C73.4723 61.5502 74.2964 58.9862 74.57 56.215C74.594 55.9712 74.9058 55.9257 75.0036 56.1252C76.0119 58.1746 76.4283 60.9864 75.4227 63.1482C75.3682 63.2651 75.2179 63.1983 75.2392 63.0674C75.5772 61.009 75.6526 59.086 74.9446 57.2126C74.6104 59.7279 73.6508 62.0553 72.2005 63.9526C72.0974 64.088 71.9356 63.9043 72.027 63.7644" fill="#07184F"/>
<path fill-rule="evenodd" clip-rule="evenodd" d="M113.905 141.394C113.683 141.637 113.357 141.775 113 141.88C114.773 143.565 116.534 145.267 118.267 147C119.652 146.086 120.069 145.56 121 144.149C119.692 141.863 118.37 139.437 116.985 137C116.254 138.719 115.147 140.259 113.905 141.394" fill="#FFAB91"/>
<path fill-rule="evenodd" clip-rule="evenodd" d="M103.962 120.803C98.3026 116.689 91.5302 114.259 85 114L85.2333 116.905C85.4109 119.119 86.6924 121.278 88.659 122.676C97.2881 128.812 105.345 137.887 113.295 144.912C114.003 145.537 117.037 142.645 117.405 142.189C117.764 141.745 120.28 138.392 119.974 137.892C116.125 131.595 109.655 124.943 103.962 120.803" fill="#D8D3A7"/>
<path fill-rule="evenodd" clip-rule="evenodd" d="M117.358 147.131C117.045 147.494 116.829 147.926 116.785 148.406C116.739 148.895 116.799 149.397 116.795 149.892C116.785 151.079 115.448 159.732 116.263 160.49C117.036 161.209 118.053 161.083 118.928 160.636C120.861 159.65 122.419 157.736 123.216 155.696C124.019 153.64 124.156 151.368 125.222 149.418C125.632 148.67 126.475 147.82 125.653 146.994C124.41 145.745 122.48 144.754 120.836 144.021C120.645 143.936 120.447 144.124 120.513 144.327C120.639 144.725 120.91 145.449 120.474 145.745C120.112 145.99 119.676 145.938 119.271 146.019C118.592 146.156 117.854 146.555 117.358 147.131" fill="#FFF6D2"/>
<path fill-rule="evenodd" clip-rule="evenodd" d="M85.8881 119.144C81.2308 103.13 80.4107 86.2961 81.3361 69.6176C86.4233 69.0819 90.7757 68.7009 95.8543 69.3174C98.4116 86.552 96.7094 104.751 90.5308 121L85.8881 119.144Z" fill="#D8D3A7"/>
<path fill-rule="evenodd" clip-rule="evenodd" d="M94.727 154.441C94.3405 154.409 93.9707 154.228 93.6063 154C93.437 156.491 93.2423 158.981 93 161.468C94.8693 162.038 95.6565 162.056 97.6264 161.949C98.6858 159.47 99.862 156.892 101 154.257C98.9041 154.717 96.6846 154.76 94.727 154.441" fill="#FFAB91"/>
<path fill-rule="evenodd" clip-rule="evenodd" d="M104.97 132.61C104.738 125.773 102.683 119.126 99.2145 114L97.2736 115.966C95.7944 117.464 94.9716 119.768 95.0745 122.124C95.5266 132.464 93.5621 144.179 93.0005 154.55C92.9506 155.473 96.7097 156 97.2403 156C97.7581 155.999 101.556 155.849 101.742 155.309C104.079 148.504 105.203 139.487 104.97 132.61" fill="#EDEAC8"/>
<path fill-rule="evenodd" clip-rule="evenodd" d="M92.7339 159.004C92.2679 158.979 91.8086 159.07 91.4199 159.322C91.0237 159.578 90.6834 159.923 90.3084 160.213C89.409 160.912 82.0707 165.031 82.0039 166.11C81.94 167.131 82.6632 167.839 83.5405 168.247C85.4775 169.146 87.8792 169.207 89.9076 168.606C91.9514 168.001 93.746 166.753 95.8721 166.415C96.6884 166.285 97.8488 166.427 97.9624 165.303C98.1344 163.604 97.6872 161.53 97.2233 159.829C97.1699 159.632 96.906 159.592 96.7932 159.763C96.5724 160.097 96.1949 160.736 95.7026 160.576C95.2947 160.444 95.0642 160.078 94.7527 159.814C94.2308 159.373 93.4734 159.043 92.7339 159.004" fill="#FFF6D2"/>
<path fill-rule="evenodd" clip-rule="evenodd" d="M95.5522 123.111C92.0072 111.07 89.5778 86.0162 89.5778 86.0162C89.5778 86.0162 80 80.3094 80 69.0613C85.241 68.5157 100.588 71.7732 105.82 72.4007C108.454 89.941 106.701 108.463 100.335 125L95.5522 123.111Z" fill="#EDEAC8"/>
<mask id="mask5_0_418" style="mask-type:alpha" maskUnits="userSpaceOnUse" x="83" y="0" width="23" height="26">
<path fill-rule="evenodd" clip-rule="evenodd" d="M83 0H106V26H83V0Z" fill="white"/>
</mask>
<g mask="url(#mask5_0_418)">
<path fill-rule="evenodd" clip-rule="evenodd" d="M100.331 25.1751C101.829 21.889 102.953 18.4344 103.676 14.8979C103.862 13.9885 104.839 13.3751 105.323 12.5827C105.807 11.7899 106.133 10.8455 105.947 9.93617C105.763 9.03738 105.096 8.29605 104.315 7.81099C103.534 7.32634 102.639 7.06206 101.756 6.80285C101.891 5.96232 101.522 5.11715 101.176 4.33867C100.831 3.55978 100.339 2.85602 99.8466 2.15987C99.2927 1.37549 98.6043 0.517648 97.6439 0.461922C97.019 0.425616 96.4181 0.759549 95.9883 1.2138C95.559 1.66805 95.2719 2.2346 94.9912 2.7927C93.5088 1.10277 91.5153 0.0114715 89.2635 7.30067e-05C88.7512 -0.00245999 88.2011 0.0595984 87.8133 0.393532C87.2929 0.841872 87.2404 1.65961 87.5033 2.29328C87.7667 2.92653 88.2786 3.41877 88.7766 3.8916C87.0448 3.33223 84.9759 4.13181 83.9339 5.62079C83.4435 6.32074 83.1713 7.2284 83.4338 8.04149C83.6434 8.68993 84.1545 9.18809 84.5381 9.75253C84.9217 10.3165 85.1779 11.079 84.8286 11.6649C84.4712 12.2648 83.6353 12.4202 83.2242 12.985C82.8918 13.4423 82.9337 14.1317 83.3186 14.5454C83.7039 14.9591 84.3907 15.052 84.8726 14.7556C85.0801 14.873 85.5691 15.2086 85.7766 15.3255C85.5983 15.5299 85.4158 15.7401 85.3218 15.9947C85.2274 16.2488 85.2397 16.5608 85.4226 16.7609C85.6483 17.0079 86.0298 17.0049 86.3643 17.0062C87.8251 17.0121 89.2813 17.4625 90.488 18.2832C93.4897 20.3236 95.7715 23.6059 98.4971 26C99.2407 25.5854 99.9787 25.9485 100.331 25.1751" fill="#190F52"/>
</g>
<path fill-rule="evenodd" clip-rule="evenodd" d="M95.275 23.7303C96.3595 26.8019 95.7448 33.6886 95.3904 34.1171C95.0355 34.5451 94.8345 35.2542 95.1761 35.6952C95.5245 36.1442 96.1669 36.0166 96.6691 35.8223C99.0764 34.8907 101.273 33.2844 103 31.191C102.828 31.02 102.533 30.677 102.361 30.506C100.321 28.4785 101.06 22.0394 101.307 19L95.275 23.7303Z" fill="#FFAB91"/>
<path fill-rule="evenodd" clip-rule="evenodd" d="M101.683 25.5525C101.747 24.3751 101.889 21.074 102 20L95 24.1754C95.546 25.3864 95.723 27.2445 95.7155 29C97.6941 27.8391 99.7335 26.7331 101.683 25.5525" fill="#FF8A65"/>
<path fill-rule="evenodd" clip-rule="evenodd" d="M86.445 12.8669C85.446 17.358 85.6438 27.2368 92.2562 27.9701C94.4017 28.208 96.4946 26.9955 97.7913 25.3769C99.0884 23.7578 99.7402 21.7777 100.369 19.8415C101.158 19.7279 102.069 19.6436 102.762 19.2726C103.454 18.9011 104.018 18.2266 104 17.4795C103.981 16.7323 103.205 16.0169 102.429 16.1893C100.882 16.5324 99.6239 18.3714 99.4292 16.8605C98.0096 5.83933 91.0884 11.6314 88.8181 9.00063C88.7803 8.95722 87.1178 11.1623 86.9828 11.4106C86.7181 11.8969 86.5546 12.3736 86.445 12.8669" fill="#FFAB91"/>
<path fill-rule="evenodd" clip-rule="evenodd" d="M102.933 17.1328C102.478 16.7827 101.937 17.1913 101.568 17.5896C101.327 17.8512 100.817 18.5412 101.068 18.9912C101.072 18.9995 101.081 19.001 101.088 18.9995C101.386 18.9333 101.587 18.3674 101.823 18.1317C102.163 17.7932 102.585 17.7869 102.922 17.4742C103.007 17.3953 103.04 17.2151 102.933 17.1328" fill="#FF8A65"/>
<path fill-rule="evenodd" clip-rule="evenodd" d="M87.6817 17.081C87.5429 16.9553 87.2802 16.9828 87.169 17.116C86.9564 17.3698 86.9905 17.6684 87.0276 17.9595C87.0652 18.2549 87.0552 18.6019 87.2582 18.8596C87.4246 19.0706 87.7754 19.0336 87.8983 18.8168C88.0536 18.5441 87.989 18.1921 87.9734 17.8994C87.9569 17.6047 87.9363 17.312 87.6817 17.081" fill="#212121"/>
<path fill-rule="evenodd" clip-rule="evenodd" d="M93.6817 17.081C93.5429 16.9553 93.2802 16.9828 93.169 17.116C92.9564 17.3698 92.9905 17.6684 93.0276 17.9595C93.0652 18.2549 93.0552 18.6019 93.2582 18.8596C93.4246 19.0706 93.7754 19.0336 93.8983 18.8168C94.0536 18.5441 93.989 18.1921 93.9734 17.8994C93.9569 17.6047 93.9363 17.312 93.6817 17.081" fill="#212121"/>
<path fill-rule="evenodd" clip-rule="evenodd" d="M89.9379 13.2991C89.4874 12.9133 88.7428 12.96 88.1607 13.1101C87.7289 13.2212 86.9643 13.5033 87.0013 13.9432C87.0037 13.9719 87.0237 13.9934 87.0613 13.9968C87.4767 14.0333 87.906 13.7493 88.3159 13.6811C88.8161 13.5978 89.32 13.7045 89.813 13.6168C89.9882 13.5856 90.0628 13.4058 89.9379 13.2991" fill="#212121"/>
<path fill-rule="evenodd" clip-rule="evenodd" d="M94.9586 13.2991C94.6582 12.9133 94.1618 12.96 93.7738 13.1101C93.4859 13.2212 92.9766 13.5033 93.0008 13.9432C93.0025 13.9719 93.0158 13.9934 93.0409 13.9968C93.3178 14.0333 93.604 13.7493 93.8772 13.6811C94.2107 13.5978 94.5467 13.7045 94.8753 13.6168C94.9921 13.5856 95.0419 13.4058 94.9586 13.2991" fill="#212121"/>
<path fill-rule="evenodd" clip-rule="evenodd" d="M86 19.9899C89.6257 18.6925 93.7086 18.6696 97.3904 19.9258C97.5801 20.983 97.8103 21.9783 98 23.0354C97.1028 24.4265 95.8245 25.7226 94.6041 26.8366C93.5424 27.8056 91.4113 29.0719 89.9655 28.9968C86.9498 27.0127 86.1053 23.5819 86 19.9899" fill="#FAFAFA"/>
<path fill-rule="evenodd" clip-rule="evenodd" d="M100.836 17.0006C99.8244 17.075 99.2108 17.6565 98.5904 18.2611C97.7189 19.1111 96.741 19.9519 96.0138 20.8895C95.9607 20.958 96.0728 21.0368 96.147 20.9812C96.8537 20.4481 97.4502 19.8014 98.0696 19.1996C98.8402 18.45 99.6234 17.3839 100.894 17.2203C101.072 17.1975 101.007 16.9878 100.836 17.0006" fill="#FAFAFA"/>
<path fill-rule="evenodd" clip-rule="evenodd" d="M99.768 20.0685C99.1557 21.3552 98.1926 22.1006 97.0157 22.9214C96.9782 22.9473 97.0141 23.0117 97.0585 22.9981C98.4116 22.574 99.4599 21.325 99.9902 20.1359C100.049 20.0053 99.8281 19.9425 99.768 20.0685" fill="#FAFAFA"/>
<path fill-rule="evenodd" clip-rule="evenodd" d="M91.8308 33.5316C92.1707 32.3069 92.8473 31.1967 93.7113 30.2376C97.1215 29.5451 100.768 28.4411 103.913 27C105.477 28.1378 106.391 30.0513 106.267 31.9302C108.113 32.9373 110.457 33.2848 112.547 33.6474C114.637 34.0103 116.849 34.7117 118.049 36.3925C118.99 37.7112 119.134 39.4217 118.904 41.0044C118.52 43.6505 117.15 46.1551 115.099 47.9638C116.593 50.9691 116.404 54.9353 114.659 57.8137C114.146 58.6591 113.479 59.5868 113.762 60.5262C114.746 63.7802 113.616 67.8327 110.874 69.9684C112.225 73.3456 111.135 77.4174 108.539 80.041C108.611 79.9842 108.684 79.9274 108.756 79.8706C105.583 81.2811 101.933 82.1153 98.4374 81.9871C94.9422 81.8593 91.4953 81.1876 88.0794 80.4666C86.0077 80.0297 83.9085 79.5623 82.0554 78.5728C80.2028 77.5832 78.5977 75.9872 78.1232 74.0051C77.6487 72.0231 78.5659 69.684 80.5074 68.8657C78.5275 65.1745 79.0073 60.5312 81.1596 56.9302C80.1222 55.5944 80.0041 54.4223 80.0843 52.7586C80.164 51.0953 80.8612 49.4654 82.0219 48.2265C80.6817 45.8293 83.3142 37.141 85.487 36.2664C87.6594 35.3925 90.0366 34.9957 91.8308 33.5316" fill="#4231E8"/>
<path fill-rule="evenodd" clip-rule="evenodd" d="M82.7967 48.0141C92.0875 49.5013 101.477 49.6919 110.847 48.387C110.992 48.3668 111.068 48.5106 110.919 48.5395C101.713 50.3225 91.795 50.5096 82.4971 48.8985C81.6652 48.7542 81.9543 47.8791 82.7967 48.0141" fill="#07184F"/>
<path fill-rule="evenodd" clip-rule="evenodd" d="M95.6988 30.0271C95.8077 29.9542 96.0105 30.0388 95.9996 30.1566C95.9234 30.9646 95.4551 31.7123 95.2612 32.5131C95.0128 33.5408 95.0916 34.5171 95.1995 35.5487C95.2498 36.031 94.2863 36.1933 94.1712 35.7027C93.7802 34.0309 93.9679 31.189 95.6988 30.0271" fill="#07184F"/>
<path fill-rule="evenodd" clip-rule="evenodd" d="M94.6937 35.0704C94.8453 34.8872 95.058 35.094 94.9853 35.3198C94.2731 37.5312 93.3672 39.4659 93.0633 41.8695C92.7479 44.3647 92.8807 46.8181 93.4502 49.2437C93.6202 49.9687 92.6925 50.3296 92.5328 49.6033C91.5375 45.0761 91.7662 38.6009 94.6937 35.0704" fill="#07184F"/>
<path fill-rule="evenodd" clip-rule="evenodd" d="M92.8788 49.0203C92.9423 48.9507 93.0289 49.074 92.9906 49.1751C91.8712 52.1214 91.2273 55.0321 92.0266 58.3789C92.1683 58.9734 91.555 59.2682 91.4104 58.6799C90.6137 55.4401 90.9122 51.173 92.8788 49.0203" fill="#07184F"/>
<path fill-rule="evenodd" clip-rule="evenodd" d="M90.7183 58.0351C90.8257 57.9563 91.0426 58.0168 90.9926 58.1505C90.27 60.0643 89.1492 61.8106 88.7823 63.8176C88.4112 65.8502 89.2077 67.7694 88.9541 69.7479C88.9147 70.0533 88.375 70.0716 88.191 69.8548C85.6367 66.8469 87.5221 60.3824 90.7183 58.0351" fill="#07184F"/>
<path fill-rule="evenodd" clip-rule="evenodd" d="M89.5468 70.0512C89.7881 69.8795 90.0982 70.1769 89.9701 70.3937C87.9525 73.8075 86.5947 76.9489 88.6624 80.7014C89.1163 81.5252 87.1847 80.4728 86.7934 79.6179C85.1948 76.1248 85.9626 72.6025 89.5468 70.0512" fill="#07184F"/>
<path fill-rule="evenodd" clip-rule="evenodd" d="M98.0428 71.2063C98.092 70.9821 98.3612 70.9504 98.5328 71.0641C99.6544 71.8066 100.057 73.5257 100.784 74.6163C101.757 76.0791 103.62 79.1156 105.841 78.5384C105.999 78.4974 106.065 78.7033 105.918 78.7621C103.851 79.5844 102.329 78.1208 101.077 76.7204C99.9551 75.4658 97.6589 72.9614 98.0428 71.2063" fill="#07184F"/>
<path fill-rule="evenodd" clip-rule="evenodd" d="M78.0488 71.6537C78.5734 71.1706 79.5367 70.8385 80.274 70.4612C81.1453 70.0156 82.1 69.5818 82.7694 69.0336C82.8568 68.9617 83.0525 69.0156 82.9867 69.0968C82.1046 70.192 80.8772 71.7711 78.4413 71.9975C78.1258 72.0268 77.8952 71.795 78.0488 71.6537" fill="#07184F"/>
<path fill-rule="evenodd" clip-rule="evenodd" d="M81.5373 68.0186C85.5124 69.0081 89.5998 69.7154 93.7561 70.0693C98.161 70.4442 102.512 70.2573 106.927 70.2531C107.003 70.2531 107.033 70.3458 106.951 70.36C98.6849 71.7916 89.297 70.6387 81.3317 68.7059C80.772 68.5702 80.9747 67.8785 81.5373 68.0186" fill="#07184F"/>
<path fill-rule="evenodd" clip-rule="evenodd" d="M83.4272 58.0001C85.3419 57.9941 87.2878 58.4498 89.1795 58.6555C91.6297 58.9219 94.1004 59.0861 96.5805 59.1615C101.033 59.2971 105.427 58.9564 109.869 58.8824C110.012 58.8798 110.054 59.0183 109.914 59.0482C105.558 59.9802 100.798 60.074 96.2534 59.963C94.1705 59.9121 92.0862 59.7859 90.0216 59.5971C87.8169 59.3957 85.2083 59.2762 83.2333 58.571C82.8456 58.4323 82.9622 58.0015 83.4272 58.0001" fill="#07184F"/>
<path fill-rule="evenodd" clip-rule="evenodd" d="M92.3442 35.2104C94.101 34.9116 95.9098 35.7418 97.7418 35.4813C99.9086 35.1732 102.016 34.3708 103.86 33.015C103.942 32.9545 104.051 33.091 103.974 33.1709C102.285 34.9245 100.435 36.178 98.1793 36.6713C96.3817 37.0648 93.609 37.3769 92.119 35.9235C91.8616 35.6729 92.061 35.2585 92.3442 35.2104" fill="#07184F"/>
<path fill-rule="evenodd" clip-rule="evenodd" d="M116.457 36C121.027 39.3294 121.67 42.5293 124.935 47.1763C127.662 51.0575 130.389 54.9382 133.116 58.8194C134.06 60.1635 135.046 61.6379 134.998 63.2877C134.953 64.8517 133.985 66.2159 133.022 67.4384C131.194 69.7569 129.234 71.9685 127.156 74.0582C125.97 75.2496 124.67 76.4447 123.049 76.851C121.063 77.3489 118.943 76.5431 117.331 75.2651C115.183 73.5628 113.693 70.8944 113.784 68.1323C113.875 65.3702 115.75 62.6497 118.397 61.9865C114.311 58.8447 111.129 54.6594 109 49.9296" fill="#4231E8"/>
<path fill-rule="evenodd" clip-rule="evenodd" d="M117.188 61.1188C119.828 60.5309 123.173 62.2367 124.962 63.7905C125.065 63.8794 124.941 64.0589 124.808 63.9808C123.634 63.2916 122.349 62.6987 121.009 62.2941C119.765 61.9181 118.429 61.9513 117.212 61.5845C116.977 61.5139 116.895 61.1844 117.188 61.1188" fill="#07184F"/>
<path fill-rule="evenodd" clip-rule="evenodd" d="M119.057 60.0838C119.75 58.9205 121.135 58.9306 122.09 59.0558C123.158 59.1957 124.138 59.6905 124.97 60.741C125.041 60.8308 124.975 61.0404 124.884 60.9932C123.921 60.4907 122.961 60.0277 121.933 60.0183C121.001 60.01 120.128 60.7251 119.227 60.6424C119.047 60.6259 118.921 60.3129 119.057 60.0838" fill="#07184F"/>
<path fill-rule="evenodd" clip-rule="evenodd" d="M109.526 45.1253C109.617 44.9092 109.959 44.9917 109.956 45.2273C109.903 48.7297 109.836 51.9452 111.988 54.8919C112.033 54.9533 111.939 55.0392 111.89 54.9803C109.774 52.4366 108.11 48.4967 109.526 45.1253" fill="#07184F"/>
<path fill-rule="evenodd" clip-rule="evenodd" d="M107.127 48.0125C107.794 48.3543 108.27 48.8872 108.771 49.326C109.247 49.7426 109.952 50.1817 109.999 50.712C110.017 50.9076 109.651 51.0754 109.371 50.9647C108.659 50.6822 108.392 50.0929 108.042 49.6249C107.671 49.1291 107.157 48.6047 107.002 48.0636C106.988 48.0164 107.063 47.9797 107.127 48.0125" fill="#07184F"/>
<path fill-rule="evenodd" clip-rule="evenodd" d="M98.1871 80.363C98.9774 78.8218 100.061 77.2912 101.233 76.0127C102.977 76.0444 104.876 76.127 106.604 76.356C110.251 73.7217 113.512 70.5594 116.249 67C117.752 67.139 118.978 68.1563 119.89 69.3497C120.803 70.5431 121.184 72.1227 120.916 73.5968C117.83 75.3043 111.482 77.24 108.396 78.9472C108.396 79.998 108.047 81.0396 107.246 81.7263C106.57 82.3049 105.723 82.7586 104.846 82.797C104.839 82.8296 104.832 82.8623 104.826 82.8945C104.744 83.3672 104.994 83.828 104.885 84.2803C104.831 84.5023 104.567 84.7124 104.327 84.6277C103.629 84.3805 103.454 83.5115 103.504 82.8455C103.505 82.8389 103.506 82.8314 103.506 82.8248C103.244 83.3072 103.1 83.8094 103.101 84.3902C103.101 85.0598 102.155 85.2473 101.927 84.5999C101.631 83.7591 101.783 82.8235 102.196 82.0476C102.357 81.7435 102.574 81.394 102.831 81.0788C102.811 81.0607 102.79 81.0435 102.77 81.0254C101.995 81.9792 100.953 82.8619 101.353 84.1215C101.5 84.5866 100.89 85.0178 100.523 84.6497C99.7418 83.8668 99.7081 82.7957 100.181 81.8318C100.468 81.2461 100.899 80.7152 101.285 80.1922C101.338 80.1198 101.389 80.0479 101.439 79.9764C101.321 79.8943 101.201 79.8122 101.082 79.7354C100.566 80.0889 100.1 80.5426 99.7365 81.0502C99.5587 81.2986 99.5112 81.616 99.5009 81.9209C99.4912 82.2259 99.5129 82.5344 99.4525 82.8336C99.3925 83.1328 99.232 83.4321 98.9565 83.5671C98.6809 83.7017 98.1111 83.6934 98.1325 83.3893C98.1969 82.4695 97.7658 81.1843 98.1871 80.363" fill="#FFAB91"/>
<mask id="mask6_0_418" style="mask-type:alpha" maskUnits="userSpaceOnUse" x="241" y="41" width="17" height="43">
<path fill-rule="evenodd" clip-rule="evenodd" d="M241 41H258V84H241V41Z" fill="white"/>
</mask>
<g mask="url(#mask6_0_418)">
<path fill-rule="evenodd" clip-rule="evenodd" d="M241.859 41C244.95 41.6515 247.522 44.0469 249.048 46.9182C250.575 49.7891 251.169 53.0999 251.406 56.3718C251.59 58.9258 251.578 61.5401 252.365 63.9666C253.146 66.372 254.66 68.4288 255.924 70.6C257.188 72.7709 258.245 75.2482 257.95 77.7684C257.66 80.2374 255.995 82.4607 253.793 83.4291C251.591 84.3975 248.938 84.1088 246.932 82.7542C246.642 82.5574 246.358 82.3346 246.161 82.0376C245.978 81.7624 245.879 81.4377 245.782 81.1187C244.188 75.8633 242.594 70.6079 241 65.3529L241.859 41Z" fill="#10B2AE"/>
</g>
<path fill-rule="evenodd" clip-rule="evenodd" d="M250.007 74.3296C250.786 72.0636 253.983 71.407 256.054 72.5524C258.076 73.6708 258.956 76.7758 256.542 77.988C256.442 78.0383 256.309 77.9191 256.404 77.8391C258.227 76.3025 257.619 73.7534 255.4 72.8201C253.332 71.95 251.53 72.9629 250.309 74.4746C250.204 74.6032 249.956 74.4793 250.007 74.3296" fill="#00796B"/>
<path fill-rule="evenodd" clip-rule="evenodd" d="M251.073 69.7487C252.457 68.8477 254.617 68.6744 255.98 69.7034C256.028 69.7396 255.983 69.8214 255.925 69.8049C254.334 69.3413 252.786 69.1493 251.327 70.1322C249.943 71.065 249.666 72.4117 249.356 73.9C249.33 74.0253 249.13 74.0371 249.095 73.9113C248.661 72.3621 249.785 70.5888 251.073 69.7487" fill="#00796B"/>
<path fill-rule="evenodd" clip-rule="evenodd" d="M250.909 68.0113C250.968 67.9701 251.027 68.0509 250.986 68.1017C250.53 68.6662 250.083 69.2122 249.779 69.8755C249.469 70.553 249.446 71.2377 249.23 71.9271C249.205 72.0071 249.062 72.0368 249.042 71.9354C248.777 70.5752 249.807 68.7859 250.909 68.0113" fill="#00796B"/>
<path fill-rule="evenodd" clip-rule="evenodd" d="M237.834 151.492C238.204 151.541 238.598 151.435 239 151.282C238.509 153.824 238.041 156.37 237.618 158.923C235.717 159.108 234.974 158.962 233.155 158.444C232.809 155.728 232.379 152.889 232 150C233.845 150.9 235.915 151.405 237.834 151.492" fill="#FFAB91"/>
<path fill-rule="evenodd" clip-rule="evenodd" d="M233.312 128.215C235.219 121.399 239.072 115.25 244.099 111L245.743 113.485C246.996 115.38 247.337 117.912 246.654 120.256C243.659 130.54 242.97 142.839 241.074 153.42C240.905 154.361 236.672 153.908 236.093 153.768C235.528 153.632 231.417 152.487 231.345 151.895C230.439 144.438 231.393 135.074 233.312 128.215" fill="#CAFDFF"/>
<path fill-rule="evenodd" clip-rule="evenodd" d="M237.861 157.371C238.339 157.458 238.782 157.659 239.115 158.004C239.454 158.356 239.714 158.783 240.023 159.165C240.763 160.081 247.192 165.968 246.996 167.066C246.81 168.106 245.903 168.643 244.913 168.843C242.729 169.283 240.28 168.769 238.371 167.681C236.447 166.586 234.934 164.906 232.861 164.058C232.066 163.732 230.854 163.597 231.014 162.443C231.257 160.696 232.22 158.722 233.107 157.126C233.21 156.941 233.487 156.964 233.559 157.163C233.701 157.551 233.927 158.282 234.466 158.24C234.911 158.204 235.235 157.892 235.615 157.702C236.253 157.384 237.101 157.234 237.861 157.371" fill="#FFF6D2"/>
<path fill-rule="evenodd" clip-rule="evenodd" d="M246.026 122.389C248.253 105.581 246.436 88.5718 242.862 72C237.586 72.2852 233.085 72.6063 228 74.0453C228.108 91.7375 232.714 109.707 241.581 125L246.026 122.389Z" fill="#CAFDFF"/>
<path fill-rule="evenodd" clip-rule="evenodd" d="M223.027 158.033C223.343 158.056 223.67 157.937 224 157.774C223.741 160.125 223.502 162.48 223.301 164.839C221.704 165.116 221.066 165.024 219.495 164.654C219.036 162.191 218.498 159.62 218 157C219.616 157.718 221.398 158.062 223.027 158.033" fill="#FFAB91"/>
<path fill-rule="evenodd" clip-rule="evenodd" d="M217.161 134.366C218.479 127.643 221.609 121.441 225.924 117L227.572 119.299C228.829 121.052 229.294 123.482 228.816 125.795C226.72 135.945 226.847 147.896 225.77 158.262C225.674 159.184 221.794 159.02 221.259 158.923C220.736 158.827 216.924 157.986 216.823 157.418C215.541 150.258 215.836 141.13 217.161 134.366" fill="#CAFDFF"/>
<path fill-rule="evenodd" clip-rule="evenodd" d="M222.983 164.071C223.429 164.124 223.849 164.29 224.177 164.603C224.511 164.922 224.778 165.319 225.085 165.669C225.825 166.508 232.11 171.796 231.999 172.872C231.893 173.891 231.092 174.469 230.195 174.725C228.213 175.29 225.927 174.95 224.101 174.019C222.263 173.081 220.765 171.551 218.805 170.863C218.052 170.598 216.929 170.545 217.004 169.418C217.117 167.711 217.878 165.738 218.594 164.137C218.677 163.951 218.933 163.956 219.012 164.143C219.167 164.51 219.421 165.203 219.914 165.128C220.322 165.065 220.6 164.742 220.938 164.534C221.504 164.185 222.276 163.986 222.983 164.071" fill="#FFF6D2"/>
<path fill-rule="evenodd" clip-rule="evenodd" d="M228.448 126.111C231.993 114.069 234.422 89.016 234.422 89.016C234.422 89.016 244 83.3093 244 72.0613C238.759 71.5157 223.412 74.7732 218.181 75.4011C215.546 92.9409 217.299 111.463 223.665 128L228.448 126.111Z" fill="#CAFDFF"/>
<path fill-rule="evenodd" clip-rule="evenodd" d="M237.344 21.9858C238.364 19.876 238.677 17.4089 238.219 15.098C239.245 14.0682 239.166 12.4769 238.523 11.1556C237.068 8.16279 233.522 6.67512 230.305 7.05963C229.582 7.14626 228.847 7.32123 228.244 7.74329C227.641 8.16578 227.186 8.8742 227.212 9.62742C226.404 9.45501 225.519 9.35216 224.791 9.75374C224.064 10.1557 223.658 11.2542 224.203 11.8948C222.87 11.5952 221.394 12.1235 220.525 13.2113C220.254 13.5506 220.034 13.9543 220.004 14.393C219.936 15.36 220.755 16.1175 221.498 16.7086C221.003 16.4943 220.452 17.0692 220.233 17.5766C220.014 18.084 220.116 18.6879 220.359 19.1833C220.602 19.6784 220.973 20.0915 221.32 20.5157C223.287 22.9196 224.602 25.889 225.076 29L237.344 21.9858Z" fill="#190F52"/>
<path fill-rule="evenodd" clip-rule="evenodd" d="M229.725 27.7303C228.64 30.8019 229.255 37.6886 229.61 38.1171C229.964 38.5451 230.166 39.2542 229.824 39.6952C229.476 40.1442 228.833 40.0166 228.331 39.8223C225.923 38.8907 223.727 37.2844 222 35.191C222.172 35.0204 222.467 34.677 222.638 34.506C224.679 32.4789 223.94 26.0394 223.693 23L229.725 27.7303Z" fill="#FFAB91"/>
<path fill-rule="evenodd" clip-rule="evenodd" d="M223.317 28.5527C223.253 27.3753 223.111 24.0736 223 23L230 27.1756C229.454 28.3866 229.277 30.2448 229.284 32C227.306 30.839 225.266 29.7334 223.317 28.5527" fill="#FF8A65"/>
<path fill-rule="evenodd" clip-rule="evenodd" d="M237.555 16.6311C238.554 21.1922 238.356 31.2249 231.744 31.9697C229.598 32.2113 227.505 30.9803 226.208 29.336C224.911 27.6917 224.259 25.6812 223.63 23.7143C222.842 23.599 221.93 23.5138 221.238 23.1366C220.545 22.7597 219.982 22.0743 220 21.3155C220.019 20.5567 220.794 19.8306 221.571 20.0053C223.117 20.3541 224.376 22.2218 224.57 20.6869C224.924 17.8972 225.643 13.997 228.594 12.5744C230.377 11.7152 232.597 11.9123 234.417 12.5596C236.206 13.1954 237.183 14.9308 237.555 16.6311" fill="#FFAB91"/>
<path fill-rule="evenodd" clip-rule="evenodd" d="M222.067 21.1331C222.522 20.7825 223.063 21.191 223.431 21.5898C223.673 21.8513 224.183 22.5413 223.932 22.9912C223.928 22.9995 223.919 23.001 223.912 22.9995C223.614 22.9333 223.413 22.367 223.177 22.1318C222.837 21.7934 222.415 21.787 222.078 21.474C221.994 21.3951 221.96 21.2154 222.067 21.1331" fill="#FF8A65"/>
<path fill-rule="evenodd" clip-rule="evenodd" d="M236.318 20.0812C236.457 19.9551 236.72 19.983 236.831 20.1161C237.043 20.3699 237.009 20.6685 236.973 20.9592C236.935 21.2546 236.944 21.6015 236.742 21.8596C236.575 22.0706 236.225 22.0336 236.101 21.8168C235.946 21.5437 236.011 21.1918 236.027 20.8995C236.043 20.6048 236.064 20.3122 236.318 20.0812" fill="#212121"/>
<path fill-rule="evenodd" clip-rule="evenodd" d="M231.318 20.081C231.456 19.9553 231.72 19.9828 231.831 20.116C232.043 20.3698 232.01 20.6684 231.973 20.9595C231.934 21.2545 231.944 21.6015 231.742 21.8596C231.575 22.0706 231.224 22.0336 231.101 21.8168C230.946 21.5437 231.011 21.1917 231.027 20.8994C231.043 20.6047 231.064 20.312 231.318 20.081" fill="#212121"/>
<path fill-rule="evenodd" clip-rule="evenodd" d="M236.041 18.2992C236.341 17.9134 236.838 17.9601 237.226 18.1097C237.514 18.2213 238.023 18.5033 237.999 18.9433C237.998 18.972 237.984 18.9934 237.959 18.9968C237.682 19.0329 237.396 18.7494 237.123 18.6812C236.789 18.5978 236.453 18.7041 236.125 18.6168C236.008 18.5857 235.958 18.4059 236.041 18.2992" fill="#212121"/>
<path fill-rule="evenodd" clip-rule="evenodd" d="M230.041 17.2993C230.342 16.9136 230.838 16.9599 231.227 17.1099C231.514 17.2214 232.024 17.5034 231.999 17.9433C231.998 17.9715 231.985 17.9934 231.959 17.9968C231.683 18.0329 231.396 17.7494 231.123 17.6812C230.79 17.5974 230.454 17.7041 230.125 17.6169C230.008 17.5858 229.958 17.406 230.041 17.2993" fill="#212121"/>
<path fill-rule="evenodd" clip-rule="evenodd" d="M239 22.9902C235.374 21.6924 231.291 21.6695 227.609 22.9261C227.42 23.9833 227.189 24.9786 227 26.0358C227.897 27.4265 229.175 28.7229 230.396 29.837C231.457 30.806 233.588 32.0719 235.035 31.9968C238.05 30.0131 238.895 26.5822 239 22.9902" fill="#FAFAFA"/>
<path fill-rule="evenodd" clip-rule="evenodd" d="M223.164 20.0007C224.175 20.0937 224.789 20.8206 225.409 21.5764C226.281 22.6389 227.259 23.6899 227.986 24.8614C228.039 24.9475 227.927 25.046 227.853 24.9765C227.146 24.3097 226.55 23.5018 225.931 22.7495C225.16 21.8125 224.376 20.4799 223.105 20.2753C222.928 20.2463 222.993 19.9847 223.164 20.0007" fill="#FAFAFA"/>
<path fill-rule="evenodd" clip-rule="evenodd" d="M224.232 23.0914C224.844 24.807 225.807 25.8011 226.984 26.8955C227.022 26.9302 226.986 27.016 226.942 26.9974C225.588 26.4324 224.54 24.7669 224.01 23.1812C223.952 23.0071 224.172 22.9233 224.232 23.0914" fill="#FAFAFA"/>
<path fill-rule="evenodd" clip-rule="evenodd" d="M229.378 30.7599C232.115 31.4404 235.14 31.0804 237.774 32.0289C238.303 32.2191 238.812 32.5039 239.159 32.9379C239.507 33.3718 239.67 33.9733 239.479 34.4925C239.264 35.0793 238.675 35.4351 238.222 35.8732C237.426 36.6449 237.013 37.782 237.134 38.8741C239.298 38.641 241.781 39.6958 243.531 40.9664C246.802 43.341 248.099 47.5878 248.227 51.5775C248.355 55.5676 247.528 59.5334 247.5 63.5252C247.453 70.2705 249.678 76.8091 250.737 83.4742C250.935 84.7197 251.092 85.9874 250.938 87.2396C250.757 88.7115 250.154 90.0977 249.775 91.5326C249.256 93.4938 249.158 95.5614 249.49 97.5613C238.565 100.82 227.002 101.92 215.721 100.179C215.818 96.5271 213.902 93.0759 213.531 89.4407C213.06 84.823 215.442 80.3128 215.26 75.6758C215.152 72.94 214.16 70.3255 213.329 67.7119C210.784 59.7119 209.679 51.273 210.08 42.9016C210.194 40.5321 210.511 37.9756 212.167 36.2467C213.966 34.3673 216.821 33.9947 219.436 33.7335C219.937 32.2729 220.591 31.3425 220.541 29.8025C220.528 29.4077 220.502 28.9897 220.695 28.6428C220.929 28.2219 221.443 28.011 221.931 28.0005C222.42 27.99 222.894 28.1467 223.357 28.3013C225.415 28.9893 227.191 30.2016 229.312 30.7431C229.334 30.7489 229.356 30.7544 229.378 30.7599" fill="#20CECE"/>
<path fill-rule="evenodd" clip-rule="evenodd" d="M234.556 34.7638C235.08 33.9365 237.182 32.0924 235.324 31.4125C235.018 31.301 235.26 30.9112 235.563 31.0185C237.189 31.5928 236.449 33.2351 235.712 34.1341C234.874 35.1569 234.376 36.1674 234.538 37.4571C234.703 38.7772 235.497 39.9807 236.242 41.1116C238.697 44.8362 239.884 48.755 240.134 53.037C240.416 57.8756 239.647 62.6897 239.395 67.5152C239.27 69.9151 239.275 72.3263 239.6 74.7148C239.943 77.2342 240.647 79.7008 241.171 82.1931C242.327 87.6997 242.045 93.2288 241.686 98.7844C241.669 99.0572 241.178 99.0796 241.193 98.803C241.469 94.002 241.739 89.1385 240.997 84.3582C240.624 81.9558 239.967 79.596 239.478 77.2109C239.017 74.9627 238.783 72.7043 238.777 70.4205C238.755 61.539 241.673 52.0066 237.163 43.5664C236.083 41.5436 234.402 39.7442 234.057 37.4753C233.914 36.5378 234.025 35.6037 234.556 34.7638" fill="#20CECE"/>
<path fill-rule="evenodd" clip-rule="evenodd" d="M218.346 95.5753C223.398 96.4256 228.565 96.7311 233.733 96.4536C236.298 96.3159 238.842 96.0323 241.352 95.6193C243.897 95.2005 246.337 94.5767 248.821 94.0042C248.961 93.972 249.077 94.1328 248.936 94.1835C244.339 95.8298 238.985 96.5822 233.927 96.8813C228.675 97.1916 223.344 96.8925 218.216 95.9944C217.854 95.9309 217.981 95.5137 218.346 95.5753" fill="#20CECE"/>
<path fill-rule="evenodd" clip-rule="evenodd" d="M247.179 60.0533C247.188 59.9744 247.302 59.9869 247.302 60.0658C247.298 62.8666 247.237 65.6313 247.512 68.4231C247.797 71.3201 248.392 74.1252 248.999 76.9511C249.009 76.9985 248.95 77.0209 248.935 76.9744C248.063 74.299 247.59 71.4382 247.301 68.6115C247.013 65.8003 246.857 62.8684 247.179 60.0533" fill="#00796B"/>
<path fill-rule="evenodd" clip-rule="evenodd" d="M249.479 77.9452C251.044 76.7565 250.598 74.2828 252.008 72.8984C252.953 71.9714 254.766 71.7666 255.939 72.2618C257.122 72.7616 257.518 74.041 257.886 75.2071C258.277 76.4444 257.628 77.801 256.471 78.2744C254.48 79.0882 252.576 79.8955 251.264 80.6598C251.264 81.7603 250.915 82.8515 250.118 83.5709C249.948 83.724 249.767 83.8687 249.578 84C248.799 81.672 247.552 79.5155 246 77.6479C247.172 77.702 248.361 77.789 249.479 77.9452" fill="#FFAB91"/>
<path fill-rule="evenodd" clip-rule="evenodd" d="M246.335 78.0696C247.269 79.1994 248.078 80.4417 248.722 81.8037C249.305 83.0367 249.91 84.4793 250 85.8861C250.008 86.0228 249.845 86.0369 249.801 85.926C249.274 84.5954 248.95 83.2096 248.323 81.917C247.704 80.6408 246.941 79.4712 246.058 78.4075C245.879 78.1926 246.155 77.8527 246.335 78.0696" fill="#00796B"/>
<path fill-rule="evenodd" clip-rule="evenodd" d="M221.068 89.7236C222.067 89.0612 223.149 88.5502 224.119 87.8361C225.141 87.083 226.081 86.2345 226.921 85.2957C227.727 84.3937 228.444 83.4218 229.05 82.3841C229.334 81.8965 229.595 81.3961 229.829 80.8847C230.096 80.3021 230.243 79.6143 230.623 79.0935C230.726 78.9532 231.001 78.9633 231 79.1749C230.996 80.238 230.213 81.4898 229.7 82.3981C229.065 83.5223 228.301 84.5875 227.431 85.5556C225.838 87.329 223.585 89.3017 221.201 89.9929C221.03 90.0425 220.922 89.8207 221.068 89.7236" fill="#00796B"/>
<path fill-rule="evenodd" clip-rule="evenodd" d="M216.372 75.5223C217.016 74.6767 217.321 73.6023 217.211 72.5621C214.516 70.7633 211.962 68.7716 209.577 66.61C212.977 61.4802 216.376 56.3508 219.774 51.221C220.678 49.8571 221.617 48.4569 223 47.5275C222.614 44.8997 221.952 42.324 220.691 39.9591C219.836 38.3577 218.758 36.8139 217.234 35.7574C216.685 35.3775 216.061 35.0584 215.385 35.0075C213.804 34.8884 212.548 36.2015 211.605 37.4183C203.606 47.7408 198.495 59.8759 195 72.2717C196.835 73.8798 198.647 75.7065 200.767 76.955C204.489 79.1466 208.848 80.0902 213.117 81C214.9 79.9398 216.148 77.9889 216.386 75.9981C216.425 75.6756 216.059 75.6507 216.372 75.5223" fill="#20CECE"/>
<path fill-rule="evenodd" clip-rule="evenodd" d="M211.034 73.3709C211.884 72.1667 213.026 71.1403 214.426 71C216.978 74.5915 220.015 77.7823 223.414 80.4404C225.024 80.2093 226.794 80.126 228.419 80.0939C228.616 80.3268 228.809 80.5709 229 80.8194C227.976 83.1773 226.748 85.2828 225.063 87C225.059 86.98 225.055 86.9599 225.052 86.9394C224.235 86.9007 223.445 86.4429 222.816 85.8591C222.069 85.1662 221.744 84.1152 221.744 83.0553C218.869 81.3324 212.953 79.3792 210.079 77.6567C209.828 76.1689 210.183 74.5751 211.034 73.3709" fill="#FFAB91"/>
<path fill-rule="evenodd" clip-rule="evenodd" d="M210.024 66.6597C211.536 63.3718 213.328 60.2248 215.331 57.2261C217.273 54.3198 219.404 51.4532 221.899 49.0184C221.954 48.9648 222.033 49.0392 221.985 49.1001C219.794 51.9429 217.55 54.7169 215.577 57.7291C213.659 60.6566 211.966 63.7262 210.426 66.8767C210.295 67.1455 209.899 66.9298 210.024 66.6597" fill="#00796B"/>
<path fill-rule="evenodd" clip-rule="evenodd" d="M212.312 70.0124C213.61 70.4432 215.024 70.9937 215.974 71.9899C216.702 72.7535 217.26 73.9415 216.874 74.9673C216.857 75.013 216.79 75.0112 216.784 74.9594C216.643 73.7127 216.218 72.7424 215.17 71.9469C214.263 71.2582 213.185 70.8994 212.134 70.4751C211.868 70.3674 212.035 69.9204 212.312 70.0124" fill="#00796B"/>
<path fill-rule="evenodd" clip-rule="evenodd" d="M210.675 73.9444C211.357 72.4755 212.471 71.467 213.79 71.0087C213.992 70.9386 214.091 71.3107 213.89 71.3893C212.699 71.8559 211.641 72.8252 211.009 74.1602C210.273 75.7169 210.37 77.2124 210.476 78.9207C210.481 78.9929 210.391 79.033 210.362 78.9651C209.714 77.4518 210.009 75.3773 210.675 73.9444" fill="#00796B"/>
<path fill-rule="evenodd" clip-rule="evenodd" d="M210.909 69.0086C210.976 68.9701 211.037 69.07 210.973 69.1188C209.827 69.9974 208.879 71.0869 208.233 72.463C207.563 73.8903 207.445 75.2729 207.355 76.8427C207.344 77.0462 207.104 77.0539 207.073 76.8562C206.596 73.826 208.534 70.3757 210.909 69.0086" fill="#00796B"/>
<path fill-rule="evenodd" clip-rule="evenodd" d="M202.009 67.8734C202.426 67.1433 203.868 66.6123 204.91 66.3364C206.166 66.004 207.543 65.9038 208.866 66.0995C209.092 66.1329 209.008 66.3423 208.787 66.325C207.512 66.2254 206.246 66.2969 205.051 66.6222C203.879 66.9415 203.195 67.5331 202.193 67.9841C202.075 68.0374 201.968 67.9457 202.009 67.8734" fill="#00796B"/>
<path fill-rule="evenodd" clip-rule="evenodd" d="M205.016 68.871C205.73 68.0182 207.354 67.3507 208.828 67.0051C208.965 66.973 209.072 67.1011 208.94 67.1418C208.196 67.3722 207.474 67.6382 206.84 67.963C206.244 68.2681 205.796 68.6354 205.262 68.9718C205.144 69.0459 204.941 68.9606 205.016 68.871" fill="#00796B"/>
<path fill-rule="evenodd" clip-rule="evenodd" d="M218.012 51.7396C218.634 49.478 219.267 47.2287 219.97 45.0111C219.977 44.9891 220.005 45.0029 219.999 45.026C219.47 47.332 218.873 49.5988 218.261 51.866C218.195 52.1119 217.943 51.9895 218.012 51.7396" fill="#00796B"/>
<path fill-rule="evenodd" clip-rule="evenodd" d="M48 89.9897C48.0055 95.5124 43.5325 99.9945 38.0099 100C32.4874 100.005 28.0055 95.533 28 90.0096C27.9938 84.4869 32.4668 80.0055 37.9894 80C43.5126 79.9938 47.9938 84.4663 48 89.9897" fill="#8D3FD0"/>
<path fill-rule="evenodd" clip-rule="evenodd" d="M41.4985 82C42.3275 81.9994 42.9994 82.6721 43 83.4988C43.0006 84.3285 42.3305 84.9994 41.5015 85C40.6725 85.0012 40.0006 84.3316 40 83.5018C39.9994 82.6751 40.6695 82.0012 41.4985 82" fill="#A158ED"/>
<path fill-rule="evenodd" clip-rule="evenodd" d="M51 88.496C51.0012 89.877 49.9228 90.9988 48.5937 91C47.8485 91.0012 47.1816 90.6509 46.7403 90.0959C46.5427 89.8528 46.3892 89.5669 46.2985 89.2513C45.9916 89.4206 45.6823 89.5868 45.3694 89.743L45.3634 89.7232C44.9431 89.1552 44.8834 88.3273 45.2052 87.6997C45.5396 87.8157 45.8775 87.9329 46.2125 88.0526L46.225 88.0557C46.2656 87.812 46.3403 87.5807 46.4466 87.3667C46.84 86.5575 47.6533 86.0012 48.5883 86C49.9181 85.9988 50.9982 87.1143 51 88.496" fill="#A158ED"/>
<path fill-rule="evenodd" clip-rule="evenodd" d="M39 78.5672C38.9988 77.7047 39.672 77.0006 40.4988 77C41.328 76.9988 41.9994 77.701 42 78.5641C42.0012 79.4303 41.331 80.1313 40.5012 80.1319C40.4488 80.1319 40.3958 80.1288 40.3458 80.1257C40.2804 80.4905 40.2185 80.8521 40.153 81.2169C40.1095 81.4742 40.0631 81.7314 40.0202 81.9887H40.0167C39.9768 81.9918 39.9321 81.9949 39.8923 81.998C39.7018 82.0079 39.5054 81.9825 39.3399 81.8849C39.2369 81.8265 39.1435 81.7358 39.0869 81.6245C39.1774 81.4195 39.2673 81.2144 39.3518 81.0056C39.4976 80.6508 39.6345 80.2922 39.7649 79.9306C39.3101 79.6646 39.0006 79.1532 39 78.5672" fill="#A158ED"/>
<path fill-rule="evenodd" clip-rule="evenodd" d="M45.2408 83.5664C45.087 83.2435 45 82.8843 45 82.5041C44.9981 81.1214 46.1194 80.0013 47.4975 80C48.8793 79.9987 49.9981 81.1163 50 82.499C50.0013 83.8779 48.8837 84.9981 47.5025 85C46.9231 85.0006 46.3869 84.801 45.9606 84.4685C45.6538 84.2289 45.4079 83.9231 45.2408 83.5664" fill="#A158ED"/>
<path fill-rule="evenodd" clip-rule="evenodd" d="M39.7769 98.7149C39.92 98.9432 39.9995 99.2085 40 99.4973C40.0005 100.328 39.329 100.999 38.5019 101C37.672 101.001 37.0011 100.331 37 99.5C37 99.3883 37.0114 99.2804 37.0375 99.1774C37.1818 98.5035 37.7803 98 38.4986 98C39.0379 97.9995 39.5141 98.2844 39.7769 98.7149" fill="#A158ED"/>
<path fill-rule="evenodd" clip-rule="evenodd" d="M43.0045 83.3891L43 83.3801C43.2889 83.2336 43.593 83.1078 43.9015 83C44.3036 83.3875 44.6728 83.7972 45 84.2316C44.7762 84.4776 44.5711 84.7326 44.3892 85C43.6045 84.8412 42.9866 84.1345 43.0045 83.3891" fill="#A158ED"/>
<path fill-rule="evenodd" clip-rule="evenodd" d="M49 98.025C49.0015 99.116 47.8978 99.9988 46.5356 100C45.1734 100.001 44.0668 99.1202 44.0653 98.0291C44.0653 97.8144 44.1076 97.6086 44.1893 97.4176L44.1544 97.4087C43.8892 97.2689 43.6248 97.1285 43.3634 96.9857C42.5612 96.5503 41.7747 96.0988 41 95.6341C41.2288 95.2385 41.4895 94.8489 41.8549 94.5277C42.1111 94.3028 42.4223 94.116 42.7722 94L42.784 94.022C43.4117 94.5794 44.0229 95.1457 44.6119 95.7317C44.8102 95.9244 45.0048 96.1243 45.1957 96.32L45.2232 96.354C45.6005 96.1606 46.0513 96.0518 46.5304 96.0512C47.8926 96.05 48.9985 96.934 49 98.025" fill="#A158ED"/>
<path fill-rule="evenodd" clip-rule="evenodd" d="M41.5016 91C40.6724 91.0007 40.0007 90.3303 40 89.5016C39.9993 88.6724 40.6691 88.0013 41.4984 88C42.3244 87.9993 42.9987 88.6691 43 89.4984C43.0007 90.3276 42.327 90.9993 41.5016 91" fill="#A158ED"/>
<path fill-rule="evenodd" clip-rule="evenodd" d="M25 88.5023C24.9986 87.1221 26.1454 86.0013 27.5643 86C28.0737 86 28.5512 86.1447 28.9505 86.3981C29.6347 86.8255 30.0952 87.562 30.1251 88.4068L30.1932 88.4035L30.9876 88.4028C31.0597 89.1812 30.8148 89.9781 30.3163 90.5899L30.2659 90.6317C30.0564 90.3988 29.8626 90.1593 29.6851 89.9058C29.279 90.4871 28.6308 90.8912 27.8785 90.9781C27.7792 90.9927 27.6758 91 27.5684 91C26.1502 91.0013 25.002 89.8825 25 88.5023" fill="#A158ED"/>
<mask id="mask7_0_418" style="mask-type:alpha" maskUnits="userSpaceOnUse" x="23" y="94" width="6" height="5">
<path fill-rule="evenodd" clip-rule="evenodd" d="M23 94.1051H28.8745V98.8274H23V94.1051Z" fill="white"/>
</mask>
<g mask="url(#mask7_0_418)">
<path fill-rule="evenodd" clip-rule="evenodd" d="M28.3057 95.8675C28.0357 95.9269 27.7651 95.9925 27.4975 96.0619C27.6877 97.1875 27.0667 98.325 25.9915 98.7025C24.8065 99.12 23.5201 98.4569 23.1193 97.2188C22.7191 95.9844 23.3563 94.645 24.5437 94.2275C25.5157 93.8894 26.5561 94.2744 27.1195 95.1056C27.2983 94.9481 27.4711 94.7875 27.6439 94.6206C27.7855 94.4894 27.9235 94.3519 28.0591 94.2138C28.5373 94.5538 28.8517 95.14 28.8745 95.7425C28.6831 95.7819 28.4941 95.8219 28.3057 95.8675" fill="#A158ED"/>
</g>
<path fill-rule="evenodd" clip-rule="evenodd" d="M26 77.4865C25.9985 76.1166 27.072 75.0015 28.3943 75C29.7181 74.9985 30.793 76.1113 30.7945 77.482C30.7952 78.2894 30.4252 79.0069 29.848 79.459C30.334 80.156 30.8514 80.8289 31.4023 81.4738C31.5979 81.7036 31.7964 81.9334 32 82.1549C31.8781 82.4165 31.6826 82.638 31.4461 82.7855C31.1936 82.948 30.8915 83.0191 30.5938 82.9956C30.5091 82.7703 30.4216 82.5443 30.3252 82.3228C29.9881 81.4753 29.6239 80.6361 29.2401 79.8083C28.981 79.9118 28.6979 79.967 28.3994 79.9678C27.0771 79.9693 26.0015 78.861 26 77.4865" fill="#A158ED"/>
<path fill-rule="evenodd" clip-rule="evenodd" d="M31 92.4992C30.9992 91.6741 31.6706 91.0008 32.5004 91C33.3261 90.9992 33.9992 91.6708 34 92.4966C34.0008 93.3267 33.3294 93.9992 32.5038 94C31.6739 94.0008 31.0008 93.3292 31 92.4992" fill="#A158ED"/>
<path fill-rule="evenodd" clip-rule="evenodd" d="M34 78.7426C33.9992 78.3325 34.4461 78.0006 34.9984 78C35.5516 78 35.9992 78.3313 36 78.7409C36 79.0572 35.7324 79.3258 35.3584 79.4345C35.4158 79.618 35.481 79.8021 35.5462 79.9862C35.6649 80.3203 35.7913 80.6517 35.9255 80.9835C35.7626 81.0077 35.5966 81.0048 35.4344 80.9778C35.1614 80.9329 34.9131 80.8093 34.751 80.6436L34.7378 80.1461C34.7331 79.9143 34.7285 79.6853 34.7246 79.4529C34.3057 79.3661 34 79.0796 34 78.7426" fill="#A158ED"/>
<path fill-rule="evenodd" clip-rule="evenodd" d="M35.5032 88C34.6749 88.0012 34.0012 87.3309 34 86.5017C33.9994 85.672 34.6714 85.0012 35.5003 85C36.3257 84.9994 36.9994 85.6691 37 86.4988C37.0012 87.328 36.3286 87.9994 35.5032 88" fill="#A158ED"/>
<path fill-rule="evenodd" clip-rule="evenodd" d="M36.4996 97C35.6732 97.0008 35.0008 96.3296 35 95.503C34.9992 94.6734 35.6702 94.0008 36.4966 94C37.3268 93.9992 37.9992 94.6704 38 95.5C38 96.3266 37.3298 96.9992 36.4996 97" fill="#A158ED"/>
<path fill-rule="evenodd" clip-rule="evenodd" d="M35 89.5023C34.9987 88.1221 36.1175 87.0013 37.4977 87C38.8779 86.9987 39.998 88.1168 40 89.497C40.0013 90.8772 38.8832 91.9987 37.5023 92C36.1221 92.0013 35.0013 90.8825 35 89.5023" fill="#A158ED"/>
<path fill-rule="evenodd" clip-rule="evenodd" d="M34 89.4983C34.0008 90.327 33.3283 90.9992 32.5033 91C31.6742 91.0008 31.0008 90.3295 31 89.5017C30.9992 88.6739 31.6708 88.0008 32.5 88C33.3258 87.9992 33.9992 88.6705 34 89.4983" fill="#A158ED"/>
<path fill-rule="evenodd" clip-rule="evenodd" d="M34 97.8292L33.9359 97.8708C33.6234 98.2009 33.2802 98.5104 32.9121 98.7939L32.8709 98.8262C33.1506 99.1065 33.3336 99.4546 33.387 99.8388C33.4013 99.914 33.4055 99.9917 33.4055 100.073C33.4069 101.138 32.423 101.999 31.207 102C29.9868 102.001 29.0014 101.142 29 100.077C28.9993 99.1979 29.6735 98.4551 30.6019 98.2295C30.792 98.1798 30.9935 98.1537 31.2021 98.1537C31.4705 98.153 31.7246 98.1959 31.9638 98.2736L31.9745 98.2413C32.1425 97.8603 32.3091 97.4792 32.4764 97.0976L32.4992 97C33.0958 97.0908 33.6526 97.3928 34 97.8292" fill="#A158ED"/>
<mask id="mask8_0_418" style="mask-type:alpha" maskUnits="userSpaceOnUse" x="56" y="72" width="15" height="17">
<path fill-rule="evenodd" clip-rule="evenodd" d="M56.3363 72.659H70.7381V88.3283H56.3363V72.659Z" fill="white"/>
</mask>
<g mask="url(#mask8_0_418)">
<path fill-rule="evenodd" clip-rule="evenodd" d="M70.7382 80.4859C70.7426 84.8134 67.5226 88.3235 63.5444 88.3283C59.5663 88.3324 56.3401 84.8297 56.3363 80.5015C56.3319 76.1733 59.5519 72.6631 63.5301 72.6591C67.5082 72.6543 70.7338 76.1577 70.7382 80.4859" fill="#A158ED"/>
</g>
<path fill-rule="evenodd" clip-rule="evenodd" d="M64.5003 82C65.3259 81.9989 65.9994 82.6722 66 83.4983C66.0011 84.3289 65.3286 84.9989 64.5036 85C63.6741 85.0006 63.0006 84.3316 63 83.5017C62.9989 82.675 63.6708 82.0006 64.5003 82" fill="#8D3FD0"/>
<path fill-rule="evenodd" clip-rule="evenodd" d="M59.997 75C61.6575 74.9985 62.9978 76.3409 63 77.9967C63.0015 79.6525 61.6641 80.9985 60.003 81C58.3469 81.0015 57.0007 79.6584 57 78.0033C56.9985 76.3475 58.341 75.0015 59.997 75" fill="#8D3FD0"/>
<path fill-rule="evenodd" clip-rule="evenodd" d="M60.4987 82C61.3278 81.9992 62 82.6705 62 83.4996C62.0008 84.3269 61.3295 84.9992 60.5021 85C59.6731 85.0008 59.0008 84.3303 59 83.5013C58.9992 82.6739 59.6697 82.0008 60.4987 82" fill="#8D3FD0"/>
<path fill-rule="evenodd" clip-rule="evenodd" d="M55.4998 69C53.5019 69 53.4983 72 55.4998 72C57.4983 72 57.5019 69 55.4998 69" fill="#A158ED"/>
<mask id="mask9_0_418" style="mask-type:alpha" maskUnits="userSpaceOnUse" x="45" y="63" width="5" height="5">
<path fill-rule="evenodd" clip-rule="evenodd" d="M45.1233 63.3867H49.2752V67.6847H45.1233V63.3867Z" fill="white"/>
</mask>
<g mask="url(#mask9_0_418)">
<path fill-rule="evenodd" clip-rule="evenodd" d="M47.1989 63.3863C44.4339 63.3863 44.4289 67.6847 47.1989 67.6847C49.9647 67.6847 49.9697 63.3863 47.1989 63.3863" fill="#A158ED"/>
</g>
<path fill-rule="evenodd" clip-rule="evenodd" d="M57.5001 91C55.5015 91 55.4985 94 57.5001 94C59.4982 94 59.5018 91 57.5001 91" fill="#A158ED"/>
<path fill-rule="evenodd" clip-rule="evenodd" d="M55.4998 100C53.5019 100 53.4983 103 55.4998 103C57.4983 103 57.5019 100 55.4998 100" fill="#A158ED"/>
<path fill-rule="evenodd" clip-rule="evenodd" d="M61.5 100C59.5015 100 59.4985 103 61.5 103C63.4985 103 63.5015 100 61.5 100" fill="#A158ED"/>
</svg>
