<svg width="235" height="130" viewBox="0 0 235 130" fill="none" xmlns="http://www.w3.org/2000/svg">
<g clip-path="url(#clip0_0_4305)">
<g opacity="0.173433">
<path d="M42.9441 103.025C42.1976 105.043 42.3889 107.305 42.5739 109.492C42.7839 111.975 42.9823 114.32 41.7045 115.8C40.695 116.969 38.7998 117.586 35.9105 117.685C33.0469 117.784 31.0579 117.134 30 115.753C28.0901 113.259 29.3422 108.65 30.1709 105.6C30.4394 104.612 30.6561 103.814 30.7526 103.191C30.6225 103.197 30.4911 103.201 30.3577 103.201C30.0819 103.201 29.8136 103.185 29.5517 103.158C29.449 103.717 29.2419 104.479 29.0264 105.273C28.1334 108.56 26.7838 113.527 29.066 116.507C30.2907 118.106 32.4062 118.915 35.3598 118.915C35.5529 118.915 35.7502 118.911 35.9505 118.905C39.1832 118.793 41.3562 118.042 42.5936 116.609C44.2101 114.737 43.9801 112.017 43.7576 109.386C43.4605 105.874 43.1774 102.523 46.6129 100.524C46.3656 100.208 46.1619 99.8556 46.0108 99.4747C44.5109 100.352 43.498 101.527 42.9441 103.025Z" fill="#2B3237"/>
<path d="M30.4897 103.089C33.9859 102.918 36.3128 100.585 36.5622 99.4317C35.0586 100.601 33.1196 101.244 30.782 101.348C30.7071 101.364 30.6299 101.373 30.5507 101.373C30.511 101.374 30.4713 101.374 30.4319 101.374C27.5991 101.374 25.3093 100.63 23.6244 99.1612C23.6185 99.1559 23.613 99.1505 23.6071 99.1453C23.5983 99.174 23.5938 99.2052 23.5938 99.239C23.5938 100.26 25.8088 102.711 29.2738 103.057C29.5389 103.083 29.8105 103.099 30.0899 103.099C30.2249 103.099 30.3579 103.095 30.4897 103.089Z" fill="#C3BFB8"/>
<path d="M22.4354 92.6266C22.4273 92.4609 22.4217 92.2944 22.4217 92.126C22.4217 89.4563 23.5026 86.655 25.539 85.5848C25.2239 85.381 25.004 85.0413 24.9623 84.6475C24.1605 85.0858 23.449 85.7489 22.8696 86.6143C21.8731 88.1027 21.3242 90.0602 21.3242 92.126C21.3242 92.3815 21.3338 92.6343 21.3507 92.8848C21.5262 92.7372 21.7431 92.6355 21.9866 92.603C22.1412 92.5825 22.2923 92.5928 22.4354 92.6266Z" fill="#2B3237"/>
<path d="M38.4938 92.6029C38.7372 92.6353 38.9542 92.7371 39.1297 92.8848C39.1466 92.6343 39.1562 92.3814 39.1562 92.126C39.1562 90.0601 38.6074 88.1027 37.6108 86.6144C37.0314 85.7489 36.3198 85.0858 35.518 84.6475C35.4763 85.0414 35.2564 85.381 34.9414 85.5848C36.9778 86.6551 38.0587 89.4563 38.0587 92.126C38.0587 92.2942 38.0531 92.4608 38.045 92.6266C38.1883 92.5926 38.3394 92.5824 38.4938 92.6029Z" fill="#2B3237"/>
<path d="M30.4053 101.452C30.4442 101.452 30.4836 101.452 30.5229 101.451C30.6014 101.451 30.6779 101.442 30.752 101.425C33.0675 101.321 34.9883 100.673 36.4777 99.4959C36.5934 99.4044 36.7073 99.3106 36.8178 99.2127C38.291 97.9073 39.208 96.0998 39.4698 93.9856C39.525 93.5394 39.3543 93.1178 39.0528 92.8492C38.8863 92.7009 38.6804 92.5985 38.4495 92.5659C38.303 92.5453 38.1596 92.5555 38.0239 92.5896C37.5579 92.7063 37.1852 93.1181 37.1189 93.6543C36.7014 97.0254 34.0946 98.9418 29.9736 98.9107C29.9708 98.9106 29.9681 98.9106 29.9652 98.9106C29.9581 98.9106 29.9511 98.9117 29.9442 98.9118C26.1495 98.7702 23.7593 96.8798 23.3613 93.6651C23.2949 93.1288 22.9222 92.7171 22.4563 92.6003C22.3204 92.5663 22.1771 92.5561 22.0306 92.5766C21.7996 92.6092 21.5937 92.7115 21.4273 92.8599C21.1258 93.1286 20.9551 93.5502 21.0103 93.9964C21.271 96.1021 22.1822 97.9033 23.6451 99.2075C23.651 99.2127 23.6564 99.2182 23.6623 99.2235C25.3309 100.702 27.5991 101.452 30.4053 101.452Z" fill="#E0DCD3"/>
<path d="M25.1637 85.4266C25.3657 85.5585 25.6054 85.636 25.8633 85.636C26.5794 85.636 27.8085 85.0459 27.8085 84.318C27.8085 83.5901 26.5794 83 25.8633 83C25.147 83 24.5664 83.5901 24.5664 84.318C24.5664 84.3658 24.5692 84.4128 24.574 84.4592C24.6167 84.8657 24.8415 85.2163 25.1637 85.4266Z" fill="#E6A123"/>
<path d="M35.9064 84.4592C35.9112 84.4127 35.914 84.3657 35.914 84.318C35.914 83.5901 35.3334 83 34.6171 83C33.9009 83 32.6719 83.5901 32.6719 84.318C32.6719 85.0459 33.9009 85.636 34.6171 85.636C34.8751 85.636 35.1147 85.5585 35.3168 85.4266C35.6389 85.2162 35.8637 84.8657 35.9064 84.4592Z" fill="#E6A123"/>
<path fill-rule="evenodd" clip-rule="evenodd" d="M45.3154 97.8272C45.3154 95.4616 47.2023 93.5438 49.5301 93.5438C51.8579 93.5438 53.7449 95.4616 53.7449 97.8272C53.7449 100.193 51.858 102.111 49.5302 102.111C48.2018 102.111 47.0177 101.486 46.2451 100.51C45.9907 100.188 45.7812 99.8288 45.6258 99.4409C45.4263 98.9426 45.3154 98.3983 45.3154 97.8272ZM46.076 97.8272C46.076 99.7659 47.6225 101.338 49.5301 101.338C51.4378 101.338 52.9843 99.7659 52.9843 97.8272C52.9843 95.8885 51.4377 94.3168 49.5301 94.3168C47.6225 94.3168 46.076 95.8885 46.076 97.8272Z" fill="#E0DCD3"/>
<path fill-rule="evenodd" clip-rule="evenodd" d="M46.2881 97.992C46.2881 96.0813 47.8122 94.5323 49.6923 94.5323C51.5724 94.5323 53.0965 96.0814 53.0965 97.992C53.0965 99.9027 51.5724 101.452 49.6923 101.452C47.8123 101.452 46.2881 99.9028 46.2881 97.992ZM48.0798 97.9921C48.0798 98.8972 48.8017 99.6309 49.6923 99.6309C50.5829 99.6309 51.3049 98.8972 51.3049 97.9921C51.3049 97.0872 50.5829 96.3533 49.6923 96.3533C48.8018 96.3533 48.0798 97.0871 48.0798 97.9921Z" fill="#F7F1E6"/>
<ellipse cx="49.6923" cy="97.992" rx="1.78317" ry="1.81222" fill="#2B3237"/>
</g>
<path fill-rule="evenodd" clip-rule="evenodd" d="M196.898 94.5276C197.714 98.0668 188.924 111.045 181.652 121H157.192C152.801 116.989 149.274 113.017 149.684 110.894C150.711 105.567 155.33 110.463 155.792 107.806C156.254 105.148 132.699 87.773 136.393 81.5987C140.088 75.4244 155.33 88.9315 156.254 83.4337C157.178 77.9363 142.86 53.2166 147.017 48.6212C151.173 44.0256 158.199 50.3053 162.076 46.9563C165.953 43.6071 155.877 13.3237 165.428 11.158C174.661 9.06458 186.506 28.2814 187.892 39.002C189.277 49.7224 173.271 64.9947 175.621 69.0336C177.342 71.9901 197.36 54.5856 201.517 60.3998C205.674 66.214 181.594 85.9848 183.473 89.7054C185.351 93.4262 195.524 88.5691 196.898 94.5276Z" fill="#5A33E4"/>
<path fill-rule="evenodd" clip-rule="evenodd" d="M173.79 81.0906C174.438 89.4841 172.471 97.8426 170.916 106H168.455C169.941 99.1324 171.731 91.8113 171.884 83.0606C172.048 73.6122 165.098 61.8129 165.001 46.4603C164.911 32.5532 175.923 28.3492 173.882 14.8089C173.841 14.4814 173.328 12.2925 173.111 11.6973C172.827 10.85 172.675 10.3982 172.675 10.3982C172.547 10.0129 173.17 9.82765 173.306 10.2108C174.334 13.1083 174.873 15.0241 174.99 18.0738C175.294 27.1957 168.412 32.6442 166.731 41.8496C164.388 54.8603 172.851 70.8428 173.79 81.0906Z" fill="white"/>
<path fill-rule="evenodd" clip-rule="evenodd" d="M174 119H52.628L30 27H151.372L174 119Z" fill="white"/>
<path fill-rule="evenodd" clip-rule="evenodd" d="M171 115H54.753L34 32H150.247L171 115Z" fill="#DDE3ED" stroke="url(#paint0_linear_0_4305)" stroke-width="0.5"/>
<path fill-rule="evenodd" clip-rule="evenodd" d="M235 119H53V120.794C53 122.565 54.3733 124 56.0673 124H231.861C233.595 124 235 122.531 235 120.719V119Z" fill="#DDE3ED"/>
<path fill-rule="evenodd" clip-rule="evenodd" d="M30.1711 27L29.2927 30.5226C28.9004 32.0954 28.9025 33.7528 29.2985 35.3248L49.2336 114.468C49.7552 116.538 51.1522 118.219 53 119L30.1711 27Z" fill="#DDE3ED"/>
<path fill-rule="evenodd" clip-rule="evenodd" d="M110.14 120.75C110.284 120.75 110.4 120.896 110.4 121.075V121.925C110.4 122.104 110.284 122.25 110.14 122.25H60.8595C60.7162 122.25 60.5998 122.104 60.5998 121.925V121.075C60.5998 120.896 60.7162 120.75 60.8595 120.75H110.14ZM111 121.925V121.075C111 120.482 110.614 120 110.14 120H60.8595C60.3856 120 60 120.482 60 121.075V121.925C60 122.518 60.3856 123 60.8595 123H110.14C110.614 123 111 122.518 111 121.925Z" fill="#0E2549"/>
<path fill-rule="evenodd" clip-rule="evenodd" d="M127.111 123H116.889C116.398 123 116 122.552 116 122C116 121.448 116.398 121 116.889 121H127.111C127.602 121 128 121.448 128 122C128 122.552 127.602 123 127.111 123Z" fill="#0E2549"/>
<path fill-rule="evenodd" clip-rule="evenodd" d="M138.11 123H134.89C134.399 123 134 122.552 134 122C134 121.448 134.399 121 134.89 121H138.11C138.601 121 139 121.448 139 122C139 122.552 138.601 123 138.11 123Z" fill="#0E2549"/>
<path fill-rule="evenodd" clip-rule="evenodd" d="M145.11 123H141.89C141.399 123 141 122.552 141 122C141 121.448 141.399 121 141.89 121H145.11C145.601 121 146 121.448 146 122C146 122.552 145.601 123 145.11 123Z" fill="#0E2549"/>
<path fill-rule="evenodd" clip-rule="evenodd" d="M171.611 120H54.3889C54.174 120 54 119.776 54 119.5C54 119.224 54.174 119 54.3889 119H171.611C171.826 119 172 119.224 172 119.5C172 119.776 171.826 120 171.611 120Z" fill="#D1D7EB"/>
<path fill-rule="evenodd" clip-rule="evenodd" d="M100.166 54C99.9582 53.5707 95.1124 43.4226 97.8204 38.0473C98.6404 36.4199 100.067 35.3969 102.061 35.0073L102.137 35L112.411 35.0006C112.756 35.0199 120.872 35.5326 120.992 40.7992C121.097 45.3519 120.083 50.3251 120.072 50.3747L119.294 50.2161C119.304 50.1674 120.301 45.2787 120.199 40.8172C120.096 36.3531 112.694 35.8105 112.376 35.7895H102.176C100.456 36.1349 99.2297 37.0134 98.5306 38.4008C95.9954 43.4333 100.833 53.5565 100.882 53.6579L100.166 54Z" fill="#5A33E4"/>
<path fill-rule="evenodd" clip-rule="evenodd" d="M114.768 28C114.768 28 113.64 39.6177 114.588 40.9026C115.535 42.1874 121 44.5549 121 44.5549L111.837 71L92.2686 69.1437L91 49.4818C91 49.4818 99.9318 42.34 100.471 40.8732C101.216 38.8435 101.218 28 101.218 28H114.768Z" fill="white"/>
<path fill-rule="evenodd" clip-rule="evenodd" d="M111.871 72L92.2666 70.0838L91 49.8647L91.0949 49.7867C93.5202 47.789 99.9061 42.3481 100.322 41.1824C101.032 39.1912 101.042 28.3493 101.042 28.24C101.042 28.1073 101.148 28.0001 101.279 28.0001H101.279C101.41 28.0001 101.516 28.1075 101.516 28.24C101.516 28.6896 101.506 39.276 100.768 41.3449C100.247 42.8049 92.7464 49.0426 91.489 50.0808L92.7143 69.6455L111.543 71.4858L120.411 45.1181C119.412 44.663 115.079 42.6409 114.216 41.4339C113.261 40.0995 114.235 29.4294 114.349 28.2173C114.361 28.0853 114.477 27.9881 114.608 28.0012C114.738 28.0137 114.834 28.1309 114.822 28.2626C114.38 32.9512 113.957 40.2529 114.6 41.1527C115.333 42.1758 119.325 44.1098 120.801 44.7689L121 44.8577L111.871 72Z" fill="#0E2549"/>
<path fill-rule="evenodd" clip-rule="evenodd" d="M167.887 50.507C164.891 52.2127 153 64.8912 153 64.8912L161.534 69C161.534 69 168.456 55.962 169.682 55.7956C171.984 55.4833 178.945 55.6936 181.192 54.1765C184.591 51.881 186.348 48.957 185.943 48.0464C185.724 47.5556 179.831 51.1173 178.538 51.151C174.886 51.2473 170.022 49.2912 167.887 50.507Z" fill="white"/>
<path fill-rule="evenodd" clip-rule="evenodd" d="M153.793 64.6128L161.665 68.3763C162.067 67.6295 163.541 64.9066 165.107 62.1995C168.861 55.7089 169.468 55.6274 169.727 55.5924C170.36 55.5071 171.335 55.4618 172.464 55.4089C175.381 55.2729 179.376 55.0867 180.917 54.0531C184.114 51.9099 185.663 49.3047 185.522 48.4791C185.1 48.5573 183.726 49.2416 182.605 49.7993C180.903 50.6469 179.142 51.5233 178.452 51.5411C176.974 51.582 175.315 51.2868 173.712 51.004C171.435 50.6016 169.284 50.2217 168.115 50.8832C165.464 52.382 155.426 62.8941 153.793 64.6128ZM161.869 69L153 64.76L153.224 64.5231C153.701 64.0178 164.946 52.1296 167.882 50.4698C169.199 49.7245 171.431 50.1188 173.794 50.536C175.375 50.8153 177.008 51.1035 178.44 51.0669C179.025 51.0513 180.893 50.1213 182.394 49.3739C184.56 48.2961 185.409 47.9009 185.746 48.0206C185.828 48.0498 185.891 48.1074 185.925 48.1829C186.417 49.2792 184.452 52.2549 181.181 54.4477C179.53 55.5549 175.458 55.7446 172.486 55.8832C171.368 55.9352 170.403 55.9804 169.791 56.0628C169.07 56.2373 165.25 62.6763 161.976 68.8002L161.869 69Z" fill="#0E2549"/>
<path fill-rule="evenodd" clip-rule="evenodd" d="M123.37 43.464C129.212 45.6201 127.8 77.1713 127.8 77.1713C128.754 80.8818 131 100.747 131 100.747L90.0546 109L85.2264 84.2058C85.2264 84.2058 82.2037 42.4623 98.2465 40.0174C99.7859 39.7829 104.49 42.0067 109.518 41.5154C111.698 41.3025 112.81 43.9339 113.894 40.0719C113.894 40.0719 122.099 42.9951 123.37 43.464Z" fill="#EAB7C2"/>
<path fill-rule="evenodd" clip-rule="evenodd" d="M106 45.7392L109.206 42L111.982 45.448L111 47.3443L115 67.3316L113.921 82L107.822 66.4939L108.326 47.6507L106 45.7392Z" fill="#0E2549"/>
<path fill-rule="evenodd" clip-rule="evenodd" d="M114.148 82.1126L117.786 41C120.491 41 132.055 48.2371 132.055 48.2371C132.174 47.9965 136.25 55.2394 139.844 62.1666C141.818 65.9716 143.646 69.6813 144.593 72.0032C144.901 72.7585 158.886 57.4948 158.806 58.3979C158.806 58.3979 167.059 60.8985 166.999 62.3317C166.94 63.7647 154.183 88.1862 144.78 92.6002C143.037 93.4187 133.12 87.1138 132.602 77.7367L135.408 115.97L114 116L114.148 82.1126Z" fill="white"/>
<path fill-rule="evenodd" clip-rule="evenodd" d="M114.625 82.1006L114.48 115.523L135.198 115.494L132.472 78.2625C132.457 78.0944 132.445 77.9248 132.435 77.7546L132.912 77.7241L132.949 78.2251C133.549 84.7828 138.722 89.5306 141.753 91.3316C143.26 92.2269 144.288 92.4603 144.64 92.2951C149.528 89.9948 155.159 82.2912 159.022 76.2337C163.521 69.1805 166.499 62.9881 166.522 62.4246C166.554 61.6599 162.434 59.9286 158.592 58.7593C157.975 59.1717 155.13 62.0932 152.607 64.6849C146.422 71.0374 144.99 72.3893 144.543 72.3039C144.449 72.2856 144.371 72.2223 144.335 72.1339C141.733 65.7355 132.879 49.6821 132.046 48.6565L132.005 48.6308C131.894 48.5612 121.152 41.8383 118.209 41.4905L114.625 82.1006ZM114 116L114.148 82.0686L117.772 41H117.991C120.637 41 131.199 47.5642 132.199 48.1896C132.356 48.2188 132.584 48.4741 134.081 51.0967C135.101 52.8838 136.393 55.2335 137.72 57.7129C139.281 60.6278 143.047 67.7644 144.703 71.7709C145.596 71.2022 149.425 67.269 152.264 64.3528C158.128 58.3298 158.422 58.1346 158.727 58.2732C158.756 58.2863 158.782 58.3042 158.804 58.326C159.226 58.4571 161.031 59.0263 162.811 59.7241C166.605 61.2126 167.018 61.9892 166.999 62.4441C166.967 63.2383 163.746 69.716 159.425 76.4893C155.528 82.5999 149.835 90.3769 144.844 92.7261C143.999 93.1244 142.23 92.1699 141.508 91.7409C138.947 90.2191 134.895 86.6429 133.2 81.6591L135.712 115.969L114 116Z" fill="#0E2549"/>
<path fill-rule="evenodd" clip-rule="evenodd" d="M98.6664 40L113.595 82.3433C113.634 85.7189 114.485 99.2803 113.597 113.615L113.449 116H84.3913L83.5103 113.985C83.5103 113.985 74 107.431 74 88.8725C74 68.0775 75.1399 61.0124 77.9178 50.5786C78.3188 49.072 93.2022 40 98.6664 40Z" fill="white"/>
<path fill-rule="evenodd" clip-rule="evenodd" d="M84.9255 115.52H113.97L114.105 113.344C114.827 101.769 114.421 90.8711 114.203 85.0161C114.153 83.6644 114.113 82.5914 114.104 81.9157L99.0546 39.4826C95.6796 39.5906 89.4606 42.8094 86.9118 44.2064C81.8801 46.965 78.5888 49.4121 78.444 49.9525C75.7525 60.0032 74.4844 67.0773 74.4844 88.447C74.4844 98.0447 77.0848 104.363 79.2661 107.973C81.6201 111.869 83.9888 113.518 84.0123 113.534L84.069 113.573L84.9255 115.52ZM114.425 116H84.6081L83.6791 113.888C83.2889 113.606 81.0819 111.912 78.8505 108.219C76.6378 104.557 74 98.1542 74 88.447C74 67.0212 75.2732 59.9214 77.976 49.8295C78.4269 48.1458 93.7057 39 99.2252 39H99.397L99.4536 39.1605L114.587 81.831L114.588 81.8706C114.595 82.5376 114.636 83.6235 114.687 84.9983C114.905 90.8615 115.312 101.775 114.589 113.374L114.425 116Z" fill="#0E2549"/>
<path fill-rule="evenodd" clip-rule="evenodd" d="M107.594 5.01794C110.011 4.96608 115.882 4.7655 116.429 9.00955C117.054 13.8501 117.035 20.1793 116.968 23.5192C116.942 24.8373 115.951 25.9356 114.639 26.1028L99.9462 27.9782C98.6001 28.1501 97.3386 27.2886 97.0134 25.9749C95.9194 21.5534 93.6868 12.1803 94.0368 10.6794C95.2282 5.57261 103.766 5.0998 107.594 5.01794Z" fill="#0E2549"/>
<path fill-rule="evenodd" clip-rule="evenodd" d="M101.35 31.3361C100.423 30.6099 99.664 27.3748 99.0793 23.649C99.0624 23.5411 98.9899 23.4511 98.8902 23.4088C97.8202 22.9559 96.2192 21.9005 96.0168 20.0411C95.8414 18.4302 97.0767 18.618 98.0802 19.0181C98.2593 19.0894 98.4462 18.943 98.4242 18.7499C97.9048 14.2339 97.639 10.2507 97.639 10.2507L115.632 8C115.632 8 116.126 12.0236 116.546 16.5523C116.565 16.7553 117.224 27.6003 116.92 28.6275C116.754 29.1868 116.361 29.6833 115.803 30.117C115.803 30.117 114.769 31.1819 108.23 32L101.35 31.3361Z" fill="white"/>
<path fill-rule="evenodd" clip-rule="evenodd" d="M108.191 33C108.072 33 107.97 32.9105 107.954 32.7877C107.937 32.6547 108.03 32.533 108.16 32.5158C114.287 31.7162 115.412 30.6753 115.423 30.6648L115.443 30.6459C115.973 30.2163 116.313 29.7463 116.455 29.2488C116.731 28.2732 116.121 17.4781 116.081 17.0189C115.731 13.0898 115.326 9.49413 115.216 8.54447L98.094 10.7801C98.1564 11.6999 98.4116 15.2771 98.845 19.2122C98.865 19.394 98.7929 19.5672 98.6518 19.6756C98.5156 19.7807 98.3395 19.8037 98.1813 19.7378C97.4835 19.4476 96.9599 19.3942 96.7066 19.5876C96.5145 19.7344 96.4424 20.0518 96.4924 20.5308C96.6957 22.4806 98.4245 23.4452 99.1583 23.7693C99.3334 23.8468 99.455 24.0079 99.4839 24.2005C100.327 29.8036 101.109 31.475 101.617 31.8905C101.719 31.9744 101.736 32.1274 101.653 32.2319C101.571 32.3368 101.42 32.3534 101.317 32.2692C100.471 31.5769 99.7167 28.9616 99.012 24.2741C99.008 24.2479 98.9911 24.2254 98.9683 24.2153C98.1575 23.8571 96.2473 22.7859 96.0175 20.5821C95.9485 19.9211 96.0839 19.4558 96.4198 19.1989C96.8241 18.8901 97.4774 18.9201 98.362 19.288C98.362 19.2888 98.3724 19.2848 98.3705 19.2663C97.8682 14.706 97.6048 10.6247 97.6022 10.5839L97.5877 10.3562L115.634 8L115.662 8.24337C115.667 8.28436 116.15 12.4045 116.557 16.9753C116.566 17.0792 117.233 28.2577 116.913 29.3836C116.745 29.9776 116.353 30.5281 115.748 31.0206C115.584 31.1728 114.268 32.2085 108.221 32.9981C108.211 32.9994 108.201 33 108.191 33Z" fill="#0E2549"/>
<path fill-rule="evenodd" clip-rule="evenodd" d="M105.514 20C105.263 20 105.05 19.856 105.03 19.6665L105.001 19.3898C104.981 19.1907 105.181 19.0168 105.448 19.0013C105.713 18.9844 105.949 19.1346 105.97 19.3337L105.999 19.6104C106.019 19.8095 105.819 19.9834 105.552 19.9989C105.539 19.9997 105.527 20 105.514 20Z" fill="#0E2549"/>
<path fill-rule="evenodd" clip-rule="evenodd" d="M113.525 19C113.287 19 113.083 18.871 113.054 18.6955L113.003 18.3856C112.973 18.1964 113.158 18.0248 113.419 18.0024C113.679 17.98 113.915 18.1153 113.946 18.3044L113.997 18.6144C114.027 18.8036 113.842 18.9752 113.581 18.9976C113.562 18.9992 113.543 19 113.525 19Z" fill="#0E2549"/>
<path fill-rule="evenodd" clip-rule="evenodd" d="M102.299 17C102.204 17 102.11 16.9671 102.052 16.9059C101.959 16.8072 101.994 16.6723 102.13 16.6048C104.452 15.4514 106.743 16.2956 106.84 16.3322C106.986 16.3876 107.042 16.5186 106.966 16.6244C106.89 16.7304 106.71 16.7715 106.563 16.7162C106.48 16.6848 104.487 15.9591 102.468 16.9621C102.416 16.9878 102.357 17 102.299 17Z" fill="#0E2549"/>
<path fill-rule="evenodd" clip-rule="evenodd" d="M111.067 24C110.946 24 110.832 23.9166 110.789 23.7829C110.735 23.6137 110.816 23.4277 110.969 23.3675C111.457 23.1765 112.012 22.7982 112.023 22.5779C112.042 22.1879 112.018 22.1273 111.177 20.4239C110.987 20.0389 110.757 19.5732 110.479 19.005L110.457 18.9485C110.437 18.8756 109.949 17.1582 110.004 16.3071C110.022 16.0437 110.181 15.8098 110.477 15.6121C111.402 14.9934 113.59 14.7453 114.823 15.337C114.972 15.4088 115.04 15.6005 114.976 15.7654C114.91 15.9301 114.737 16.0059 114.588 15.9339C113.606 15.4629 111.73 15.6356 110.883 16.1075C110.662 16.2304 110.598 16.3304 110.592 16.356C110.554 16.9461 110.874 18.2367 111.011 18.7232C111.283 19.2781 111.508 19.734 111.694 20.1122C112.569 21.8829 112.641 22.0275 112.611 22.6134C112.572 23.3947 111.4 23.8901 111.165 23.9815C111.133 23.9942 111.1 24 111.067 24Z" fill="#0E2549"/>
<path fill-rule="evenodd" clip-rule="evenodd" d="M92.2433 116C92.1699 116 92.0973 115.968 92.0497 115.906C91.9683 115.802 91.9891 115.654 92.096 115.574L103.61 107.048C103.716 106.969 103.869 106.989 103.95 107.094C104.032 107.198 104.011 107.346 103.904 107.426L92.3901 115.952C92.3461 115.984 92.2946 116 92.2433 116Z" fill="#0E2549"/>
<path fill-rule="evenodd" clip-rule="evenodd" d="M132.754 114C132.717 114 132.679 113.991 132.643 113.973L120.134 107.475C120.014 107.413 119.965 107.261 120.027 107.138C120.088 107.014 120.236 106.965 120.357 107.027L132.865 113.525C132.986 113.588 133.035 113.739 132.973 113.862C132.93 113.95 132.844 114 132.754 114Z" fill="#0E2549"/>
<path fill-rule="evenodd" clip-rule="evenodd" d="M112 96.0001C112 96.5523 111.552 97 111 97C110.448 97 110 96.5523 110 96.0001C110 95.4477 110.448 95 111 95C111.552 95 112 95.4477 112 96.0001Z" fill="#0E2549"/>
<path fill-rule="evenodd" clip-rule="evenodd" d="M95 40.8207L99.8889 37L110 41.1211L106.758 45L95 40.8207Z" fill="#EAB7C2"/>
<path fill-rule="evenodd" clip-rule="evenodd" d="M120 41.5898L116.64 38L109 41.4557L111.88 45L120 41.5898Z" fill="#EAB7C2"/>
<path fill-rule="evenodd" clip-rule="evenodd" d="M117.265 38.1312L120.188 41.1513L112.756 44.1695L110.256 41.1962L117.265 38.1312ZM106.692 44.4594L95.969 40.7522L100.214 37.526L109.49 41.2035L106.692 44.4594ZM121 41.3199L117.378 37.5776L109.874 40.8593L100.138 37L95 40.9054L106.843 45L109.877 41.4698L112.613 44.7257L121 41.3199Z" fill="#1B2746"/>
<path fill-rule="evenodd" clip-rule="evenodd" d="M80.3215 100L106 111.662L97.2521 130L72 118.258L80.3215 100Z" fill="#F65F9C"/>
<path fill-rule="evenodd" clip-rule="evenodd" d="M86.7301 108.385C87.1415 111.935 89.7251 118.215 91.6206 120.898C92.5505 122.214 95.6582 127.006 95.9921 128.226C96.1945 128.966 92.4536 127.15 92.2812 127.107L92.0516 128.501C92.0516 128.501 91.3091 129.214 90.6533 128.936C90.0918 128.698 89.812 127.817 89.2707 127.683C89.2212 127.671 88.1846 127.838 87.8224 127.749C87.3633 127.636 87.0126 126.716 86.6783 126.437C86.4325 126.232 85.5466 126.592 85.1514 126.334C84.5185 125.921 84.7607 125.042 84.3176 124.739C83.9 124.453 83.264 125.053 82.5569 124.52C81.8654 123.998 84.7549 119.901 84.7002 118.973C84.5087 115.717 71.2638 97.5716 77.8211 85.1034C80.761 79.5132 85.3395 96.3811 86.7301 108.385Z" fill="white"/>
<path fill-rule="evenodd" clip-rule="evenodd" d="M89.1846 127.222C89.2096 127.222 89.227 127.224 89.2472 127.229C89.6014 127.318 89.8387 127.627 90.068 127.925C90.2441 128.154 90.4262 128.392 90.6337 128.481C91.0015 128.639 91.4756 128.33 91.6881 128.148L91.9407 126.596L92.1894 126.659C92.2365 126.671 92.3051 126.702 92.6338 126.85C94.4579 127.674 95.2043 127.91 95.4906 127.936C95.0232 126.596 92.1963 122.177 91.2933 120.882C89.468 118.265 86.8861 111.988 86.4746 108.393C85.2796 97.9428 81.8435 84.9491 79.369 84.4864C78.9702 84.4109 78.5819 84.7326 78.2145 85.4397C76.1639 89.3894 75.9213 94.4346 77.4934 100.436C78.8314 105.544 81.184 110.353 82.902 113.865C84.0686 116.25 84.9114 117.973 84.9612 118.827C84.9866 119.265 84.5818 120.066 83.9191 121.337C83.4561 122.225 82.5938 123.879 82.7776 124.144C83.0896 124.381 83.3795 124.329 83.6862 124.274C83.9547 124.225 84.2326 124.176 84.4858 124.351C84.7576 124.539 84.8301 124.854 84.9002 125.158C84.9708 125.465 85.0376 125.756 85.2961 125.926C85.4309 126.015 85.7458 125.981 85.9987 125.953C86.3323 125.916 86.6203 125.885 86.8097 126.045C86.9635 126.175 87.1017 126.392 87.248 126.621C87.4264 126.9 87.6486 127.248 87.8326 127.294C88.0497 127.348 88.6776 127.276 88.9459 127.244C89.0797 127.229 89.1427 127.222 89.1846 127.222ZM90.8566 129C90.7226 129 90.5852 128.976 90.4491 128.917C90.1286 128.78 89.9082 128.493 89.6951 128.215C89.5155 127.982 89.3452 127.76 89.1609 127.698C89.1265 127.701 89.0701 127.708 88.9998 127.716C88.5253 127.771 87.996 127.824 87.7192 127.755C87.3533 127.663 87.0984 127.264 86.8515 126.877C86.7306 126.688 86.6055 126.492 86.5065 126.408C86.4511 126.38 86.2095 126.407 86.0499 126.425C85.7048 126.463 85.3137 126.506 85.0374 126.323C84.6211 126.048 84.5212 125.614 84.4411 125.265C84.3868 125.03 84.3399 124.826 84.2186 124.742C84.1293 124.68 83.9895 124.701 83.7691 124.741C83.4315 124.802 82.9693 124.885 82.4898 124.519C81.9711 124.123 82.5366 122.968 83.5018 121.116C83.9743 120.21 84.5098 119.183 84.4906 118.855C84.4465 118.097 83.5782 116.322 82.4791 114.075C80.7524 110.545 78.3877 105.711 77.0376 100.557C75.4345 94.4378 75.69 89.2774 77.7971 85.2196C78.2712 84.3063 78.8287 83.9019 79.4552 84.0201C81.1832 84.343 82.8198 88.8975 83.8883 92.6613C85.2113 97.3206 86.3533 103.181 86.9429 108.338C87.3469 111.869 89.8847 118.037 91.6789 120.61C92.4577 121.726 95.6332 126.636 95.9841 127.935C96.0242 128.084 95.9876 128.221 95.8831 128.311C95.6165 128.539 95.0115 128.444 92.4408 127.283C92.398 127.264 92.3555 127.244 92.3155 127.227L92.1272 128.385L92.071 128.44C92.0427 128.467 91.4858 129 90.8566 129Z" fill="#0E2549"/>
<path fill-rule="evenodd" clip-rule="evenodd" d="M82.8113 118C82.8113 118 72.94 111.561 71.2897 97.7906C69.6393 84.0208 75.5783 61 75.5783 61L87.4972 72.833C87.4972 72.833 84.7985 91.5137 85.6991 95.7875C86.5995 100.061 93 118 93 118H82.8113Z" fill="white"/>
<path fill-rule="evenodd" clip-rule="evenodd" d="M94 118H83.2029L83.1431 117.962C83.0392 117.894 80.5649 116.278 77.8468 112.925C75.3406 109.834 72.1691 104.629 71.2934 97.395C69.6256 83.614 75.6091 60.4126 75.6698 60.1798C75.7034 60.0512 75.8351 59.975 75.9636 60.0075C76.0924 60.0411 76.1696 60.1723 76.1362 60.3009C76.0758 60.5329 70.115 83.6469 71.772 97.3372C72.6328 104.45 75.7476 109.567 78.209 112.607C80.6547 115.628 82.9573 117.254 83.3473 117.519H93.3148C92.4343 115.064 86.8242 99.3561 85.9811 95.3948C85.065 91.0895 87.6983 72.9179 87.8111 72.1465C87.8303 72.0148 87.9537 71.9245 88.0841 71.943C88.2158 71.9623 88.3071 72.0842 88.2878 72.2158C88.2603 72.4038 85.5544 91.0732 86.4526 95.2947C87.3564 99.5422 93.8187 117.497 93.884 117.678L94 118Z" fill="#0E2549"/>
<path fill-rule="evenodd" clip-rule="evenodd" d="M102.225 76.1439L92.7752 76.164V69.8207H94.9344H99.8863H102.225V76.1439ZM95.7095 68.6363C95.7095 68.194 96.0438 67.8342 96.4545 67.8342H98.3662C98.7769 67.8342 99.1113 68.194 99.1113 68.6363V68.9863H95.7095V68.6363ZM99.8863 68.9863V68.6363C99.8863 67.7341 99.2045 67 98.3662 67H96.4545C95.6162 67 94.9344 67.7341 94.9344 68.6363V68.9863H92V77L103 76.9766V68.9863H99.8863Z" fill="#E2474B"/>
<path fill-rule="evenodd" clip-rule="evenodd" d="M93.2363 74C93.1058 74 93 73.776 93 73.5C93 73.224 93.1058 73 93.2363 73H99.7637C99.8944 73 100 73.224 100 73.5C100 73.776 99.8944 74 99.7637 74" fill="#0E2549"/>
<path fill-rule="evenodd" clip-rule="evenodd" d="M98 56.5C98 57.8807 99.1192 59 100.5 59C101.881 59 103 57.8807 103 56.5C103 55.1193 101.881 54 100.5 54C99.1192 54 98 55.1193 98 56.5Z" fill="#EBF4FE"/>
<path fill-rule="evenodd" clip-rule="evenodd" d="M100 53.8223C98.7993 53.8223 97.8225 54.7991 97.8225 55.9999C97.8225 57.2007 98.7993 58.1775 100 58.1775C101.201 58.1775 102.178 57.2007 102.178 55.9999C102.178 54.7991 101.201 53.8223 100 53.8223ZM100 59C98.3458 59 97 57.6543 97 55.9999C97 54.3457 98.3458 53 100 53C101.654 53 103 54.3457 103 55.9999C103 57.6543 101.654 59 100 59Z" fill="#0E2549"/>
<path fill-rule="evenodd" clip-rule="evenodd" d="M117 67C116.449 67 116 66.5514 116 66C116 65.4486 116.449 65 117 65C117.551 65 118 65.4486 118 66C118 66.5514 117.551 67 117 67Z" fill="#0E2549"/>
<path fill-rule="evenodd" clip-rule="evenodd" d="M126 65C125.449 65 125 64.5514 125 64.0001C125 63.4486 125.449 63 126 63C126.551 63 127 63.4486 127 64.0001C127 64.5514 126.551 65 126 65Z" fill="#0E2549"/>
<path fill-rule="evenodd" clip-rule="evenodd" d="M124.555 50.7927C123.966 50.1571 123.271 49.7832 122.487 49.6754C122.154 48.631 120.882 44.4047 120.789 40.5017C120.741 38.4743 119.548 35.8741 114.139 35L114 35.7821C117.894 36.4116 119.898 38.0054 119.958 40.5197C120.049 44.3177 121.187 48.2951 121.616 49.6686C120.804 49.7758 120.073 50.205 119.439 50.9533C116.454 54.4746 116.353 64.5699 116.759 66L117.561 65.7928C117.186 64.4707 117.316 54.719 120.085 51.4522C120.698 50.7296 121.372 50.3977 122.149 50.4381C122.833 50.4736 123.416 50.7616 123.932 51.3183C126.732 54.3376 126.105 63.658 126.099 63.7517L126.928 63.8053C126.956 63.4089 127.583 54.0599 124.555 50.7927Z" fill="#5A33E4"/>
<path fill-rule="evenodd" clip-rule="evenodd" d="M100.263 54C99.9773 53.4288 93.3301 39.9619 99.8664 36L100.303 36.663C94.3755 40.2559 100.933 53.5267 101 53.6603L100.263 54Z" fill="#5A33E4"/>
<path fill-rule="evenodd" clip-rule="evenodd" d="M116.304 21C116.304 21 118.069 28.5427 115.979 30.4891C113.889 32.4354 105.003 33.5002 103.407 32.7676C101.811 32.035 99 23.5107 99 23.5107C99 23.5107 102.547 24.8959 104.513 24.8827C106.479 24.8694 111.357 24.9424 113.578 23.5217C115.12 22.5344 116.304 21 116.304 21Z" fill="#0E2549"/>
<path fill-rule="evenodd" clip-rule="evenodd" d="M109.006 25.7547C108.887 26.3773 110.483 28.2539 111.855 27.9712C114.093 27.5099 114.275 24.7586 113.763 25.0171C113.562 25.1185 112.895 26.0242 111.546 26.2552C110.091 26.5048 109.086 25.3371 109.006 25.7547Z" fill="white"/>
<path fill-rule="evenodd" clip-rule="evenodd" d="M102.774 18.0912C103.094 19.4905 103.595 21.0079 103.922 21.2233C104.461 21.5796 107.604 21.4269 108.099 20.8939C108.287 20.6529 108.368 19.0757 108.344 17.6365L102.774 18.0912ZM105.37 22C104.567 22 103.85 21.8997 103.536 21.6919C102.818 21.2175 102.23 18.6578 102.067 17.8847L102 17.5696L108.978 17L108.987 17.3107C109.016 18.3431 109.037 20.7952 108.599 21.2665C108.154 21.7453 106.652 22 105.37 22Z" fill="#5A33E4"/>
<path fill-rule="evenodd" clip-rule="evenodd" d="M111.782 17.0178C112.032 18.4401 112.397 19.9854 112.602 20.2051C112.739 20.3271 113.235 20.4345 114.022 20.3918C115.053 20.3359 115.823 20.0772 115.96 19.9199C116.188 19.6592 116.316 18.0864 116.316 16.6554L111.782 17.0178ZM113.69 21C113.15 21 112.459 20.9318 112.111 20.6219C111.663 20.2234 111.221 17.8105 111.052 16.7915L111 16.4789L116.993 16L116.998 16.3239C117.008 17.1079 117.005 19.7104 116.503 20.2845C116.087 20.7592 114.774 20.9512 114.064 20.9895C113.954 20.9956 113.827 21 113.69 21Z" fill="#5A33E4"/>
<path fill-rule="evenodd" clip-rule="evenodd" d="M108.334 18C108.2 18 108.074 17.9272 108.023 17.8086C107.956 17.6539 108.041 17.4801 108.213 17.4201C110.29 16.6951 111.716 17.1245 111.776 17.1432C111.95 17.1974 112.042 17.3686 111.981 17.5251C111.921 17.6813 111.732 17.7642 111.558 17.7105C111.545 17.7068 110.287 17.3398 108.455 17.9795C108.415 17.9934 108.374 18 108.334 18Z" fill="#5A33E4"/>
<path fill-rule="evenodd" clip-rule="evenodd" d="M98.1479 11.6263C98.1479 11.6263 111.346 13.6799 116.486 8.15923C121.625 2.63881 112.473 3.74574 107.06 5.11523C101.647 6.48493 94.0986 8.75222 98.1479 11.6263Z" fill="#0E2549"/>
<path fill-rule="evenodd" clip-rule="evenodd" d="M97 74.8648C97 74.9394 96.776 75 96.5 75C96.224 75 96 74.9394 96 74.8648V71.1352C96 71.0606 96.224 71 96.5 71C96.776 71 97 71.0606 97 71.1352" fill="#0E2549"/>
<g filter="url(#filter0_d_0_4305)">
<rect y="35" width="63" height="26" rx="13" fill="white"/>
</g>
<rect x="7" y="40" width="43" height="4" fill="#32FBFF" fill-opacity="0.270815"/>
<path d="M56.272 37.144C57.4133 37.144 58.3253 37.4427 59.008 38.04C59.7013 38.6373 60.048 39.48 60.048 40.568C60.048 41.5707 59.7173 42.3547 59.056 42.92C58.4053 43.4747 57.5413 43.7573 56.464 43.768L56.384 44.968H53.984L53.904 41.992H54.864C55.6853 41.992 56.3093 41.8907 56.736 41.688C57.1733 41.4853 57.392 41.1173 57.392 40.584C57.392 40.2107 57.2907 39.9173 57.088 39.704C56.8853 39.4907 56.6027 39.384 56.24 39.384C55.856 39.384 55.5573 39.496 55.344 39.72C55.1307 39.9333 55.024 40.2267 55.024 40.6H52.448C52.4267 39.9493 52.56 39.3627 52.848 38.84C53.1467 38.3173 53.584 37.9067 54.16 37.608C54.7467 37.2987 55.4507 37.144 56.272 37.144ZM55.216 49.128C54.736 49.128 54.3413 48.9893 54.032 48.712C53.7333 48.424 53.584 48.072 53.584 47.656C53.584 47.2293 53.7333 46.872 54.032 46.584C54.3413 46.296 54.736 46.152 55.216 46.152C55.6853 46.152 56.0693 46.296 56.368 46.584C56.6773 46.872 56.832 47.2293 56.832 47.656C56.832 48.072 56.6773 48.424 56.368 48.712C56.0693 48.9893 55.6853 49.128 55.216 49.128Z" fill="#32C5FF"/>
<rect x="15" y="48" width="26" height="2" fill="#A1A1A1" fill-opacity="0.181026"/>
<rect x="7.5" y="47.5" width="3" height="3" fill="white" stroke="#EEEEEE"/>
<rect x="7.5" y="53.5" width="3" height="3" fill="white" stroke="#EEEEEE"/>
<rect x="15" y="54" width="26" height="2" fill="#A1A1A1" fill-opacity="0.181026"/>
<path d="M8 53.9911L8.82002 55L11 53" stroke="#55DBA0" stroke-width="2"/>
<g filter="url(#filter1_d_0_4305)">
<rect x="134" width="28" height="28" rx="14" fill="#FFC0D9"/>
</g>
<path d="M148.806 9.662C150.09 9.662 151.116 9.998 151.884 10.67C152.664 11.342 153.054 12.29 153.054 13.514C153.054 14.642 152.682 15.524 151.938 16.16C151.206 16.784 150.234 17.102 149.022 17.114L148.932 18.464H146.232L146.142 15.116H147.222C148.146 15.116 148.848 15.002 149.328 14.774C149.82 14.546 150.066 14.132 150.066 13.532C150.066 13.112 149.952 12.782 149.724 12.542C149.496 12.302 149.178 12.182 148.77 12.182C148.338 12.182 148.002 12.308 147.762 12.56C147.522 12.8 147.402 13.13 147.402 13.55H144.504C144.48 12.818 144.63 12.158 144.954 11.57C145.29 10.982 145.782 10.52 146.43 10.184C147.09 9.836 147.882 9.662 148.806 9.662ZM147.618 23.144C147.078 23.144 146.634 22.988 146.286 22.676C145.95 22.352 145.782 21.956 145.782 21.488C145.782 21.008 145.95 20.606 146.286 20.282C146.634 19.958 147.078 19.796 147.618 19.796C148.146 19.796 148.578 19.958 148.914 20.282C149.262 20.606 149.436 21.008 149.436 21.488C149.436 21.956 149.262 22.352 148.914 22.676C148.578 22.988 148.146 23.144 147.618 23.144Z" fill="white"/>
<g opacity="0.475888">
<path d="M44.0123 12.0051C44.0602 11.8716 44.1945 11.7894 44.3353 11.8078C44.4759 11.8261 44.5849 11.94 44.597 12.0813L45.0791 17.7158L45.9821 14.4606C46.019 14.3276 46.141 14.2361 46.2795 14.2396C46.4175 14.2427 46.5359 14.339 46.5669 14.4735L47.0697 16.6551L47.9282 13.0477C47.9618 12.9065 48.0913 12.8098 48.236 12.8161C48.3809 12.8229 48.5004 12.9319 48.5206 13.0756L49.1613 17.6439L49.4486 16.7155C49.4877 16.5891 49.6046 16.5029 49.7368 16.5029H52.965C53.4388 15.7894 53.776 15.0791 53.8882 14.3958C54.1344 12.8835 53.8942 11.6364 53.1727 10.6895C52.4441 9.73359 51.3373 9.1882 49.786 9.02203C49.6369 9.00705 49.5007 9 49.3657 9C48.2678 9 47.1609 9.40835 46.3102 10.099C45.4607 9.40835 44.3528 9 43.257 9C43.1206 9 42.9856 9.00705 42.8356 9.02203C41.2843 9.1882 40.1764 9.73359 39.4487 10.6895C38.7273 11.6364 38.4869 12.8835 38.7332 14.3958C38.8472 15.0898 39.193 15.8116 39.6782 16.5361H42.3868L44.0123 12.0051Z" fill="#5A33E4"/>
<path d="M49.4958 19.1841C49.4539 19.3206 49.3232 19.4096 49.1822 19.398C49.0409 19.3865 48.9263 19.2777 48.9067 19.1363L48.2982 14.766L47.5089 18.1074C47.4765 18.2449 47.3545 18.3418 47.2144 18.3419C47.214 18.3419 47.2136 18.3419 47.2133 18.3419C47.0726 18.3414 46.9509 18.2434 46.9193 18.1053L46.3922 15.8017L45.355 19.5687C45.3183 19.7017 45.1981 19.7922 45.0634 19.7922C45.054 19.7922 45.0446 19.7918 45.0352 19.7909C44.8893 19.7772 44.774 19.6602 44.7615 19.5131L44.2523 13.5193L43.0175 16.9868C42.9743 17.108 42.8603 17.1889 42.7324 17.1889H40.2373C41.2442 18.5108 42.6242 19.819 43.8334 20.9651C43.8334 20.9651 44.8639 22.0074 45.1731 22.2746C45.4065 22.4759 45.9106 22.8807 46.4578 22.8807C47.0042 22.8807 47.5095 22.4759 47.7415 22.2746C48.0508 22.0074 49.0813 20.9651 49.0813 20.9651C50.3007 19.8094 51.6937 18.4885 52.7028 17.1553H50.119L49.4958 19.1841Z" fill="#F65F9C"/>
<path d="M53.6764 16.5067H53.0129H49.7502C49.6165 16.5067 49.4984 16.5911 49.4589 16.7149L49.1685 17.6243L48.521 13.1496C48.5006 13.0089 48.3798 12.9021 48.2333 12.8954C48.0871 12.8893 47.9562 12.984 47.9223 13.1223L47.0546 16.6558L46.5464 14.5189C46.5151 14.3871 46.3955 14.2927 46.256 14.2898C46.1159 14.2863 45.9927 14.376 45.9554 14.5063L45.0428 17.6947L44.5554 12.1757C44.5432 12.0373 44.4331 11.9258 44.291 11.9078C44.1487 11.8897 44.0129 11.9703 43.9645 12.1011L42.3216 16.5392H39.5842H38.305C38.1365 16.5392 38 16.6716 38 16.8348C38 16.9981 38.1365 17.1304 38.305 17.1304H40.0234H42.5362C42.6649 17.1304 42.7798 17.0521 42.8233 16.9347L44.0668 13.5752L44.5796 19.3822C44.5922 19.5247 44.7083 19.6381 44.8553 19.6513C44.8648 19.6522 44.8742 19.6526 44.8837 19.6526C45.0194 19.6526 45.1404 19.5649 45.1773 19.436L46.2219 15.7865L46.7527 18.0183C46.7845 18.1521 46.9072 18.247 47.0488 18.2475C47.0492 18.2475 47.0495 18.2475 47.0499 18.2475C47.191 18.2475 47.3139 18.1535 47.3465 18.0203L48.1414 14.7831L48.7542 19.0171C48.774 19.1542 48.8893 19.2595 49.0317 19.2707C49.1737 19.2819 49.3053 19.1957 49.3475 19.0634L49.9751 17.0979H52.5771H53.6764C53.8448 17.0979 53.9814 16.9655 53.9814 16.8023C53.9814 16.639 53.8448 16.5067 53.6764 16.5067Z" fill="#F7F1E6"/>
</g>
<path d="M222.845 81.1375H229.087C229.429 81.1375 229.705 80.8631 229.705 80.5247C229.705 80.1862 229.429 79.9119 229.087 79.9119H222.845C222.504 79.9119 222.228 80.1862 222.228 80.5247C222.228 80.8631 222.504 81.1375 222.845 81.1375Z" fill="#4F667A"/>
<path d="M222.845 83.9671H225.966C226.308 83.9671 226.584 83.6927 226.584 83.3543C226.584 83.0158 226.308 82.7415 225.966 82.7415H222.845C222.504 82.7415 222.228 83.0158 222.228 83.3543C222.228 83.6927 222.504 83.9671 222.845 83.9671Z" fill="#4F667A"/>
<path d="M229.087 85.6012H222.845C222.504 85.6012 222.228 85.8756 222.228 86.214C222.228 86.5525 222.504 86.8268 222.845 86.8268H229.087C229.429 86.8268 229.705 86.5525 229.705 86.214C229.705 85.8756 229.428 85.6012 229.087 85.6012Z" fill="#4F667A"/>
<path d="M222.845 89.6564H225.966C226.308 89.6564 226.584 89.382 226.584 89.0436C226.584 88.7052 226.308 88.4308 225.966 88.4308H222.845C222.504 88.4308 222.228 88.7052 222.228 89.0436C222.228 89.382 222.504 89.6564 222.845 89.6564Z" fill="#4F667A"/>
<path d="M229.087 91.2485H222.845C222.504 91.2485 222.228 91.5229 222.228 91.8614C222.228 92.1998 222.504 92.4742 222.845 92.4742H229.087C229.429 92.4742 229.705 92.1998 229.705 91.8614C229.705 91.5229 229.428 91.2485 229.087 91.2485Z" fill="#4F667A"/>
<path d="M222.845 95.3036H225.966C226.308 95.3036 226.584 95.0293 226.584 94.6908C226.584 94.3524 226.308 94.078 225.966 94.078H222.845C222.504 94.078 222.228 94.3524 222.228 94.6908C222.228 95.0293 222.504 95.3036 222.845 95.3036Z" fill="#4F667A"/>
<path d="M229.087 96.9491H222.845C222.504 96.9491 222.228 97.2235 222.228 97.5619C222.228 97.9004 222.504 98.1747 222.845 98.1747H229.087C229.429 98.1747 229.705 97.9004 229.705 97.5619C229.705 97.2235 229.428 96.9491 229.087 96.9491V96.9491Z" fill="#4F667A"/>
<path d="M225.966 99.7786H222.845C222.504 99.7786 222.228 100.053 222.228 100.391C222.228 100.73 222.504 101.004 222.845 101.004H225.966C226.308 101.004 226.584 100.73 226.584 100.391C226.584 100.053 226.308 99.7786 225.966 99.7786Z" fill="#4F667A"/>
<path d="M223.793 109.242C223.793 111.605 222.851 113.819 221.143 115.478C219.465 117.107 217.252 118 214.898 118C214.855 118 214.813 118 214.77 117.999C214.394 117.993 214.021 117.966 213.653 117.914C211.771 117.653 210.023 116.803 208.644 115.459C206.996 113.852 206.058 111.719 206.003 109.454C205.928 106.385 207.492 103.508 210.106 101.861V80.717C210.106 78.5414 211.609 76.7055 213.647 76.1632C214.045 76.0566 214.465 76 214.897 76C217.538 76 219.688 78.1157 219.688 80.717V101.861C222.229 103.464 223.793 106.259 223.793 109.242Z" fill="#E9F5FF"/>
<path d="M223.793 109.242C223.793 111.605 222.867 113.819 221.188 115.478C219.538 117.107 217.362 118 215.048 118C213.516 118 212.59 118 212.59 118C213.006 118 213.418 117.971 213.824 117.914C215.67 117.655 217.377 116.815 218.73 115.478C220.41 113.819 221.335 111.605 221.335 109.242C221.335 106.259 219.797 105.94 217.3 104.337V80.717C217.3 78.5414 215.821 76.7055 213.818 76.1632C214.209 76.0566 214.622 76 215.047 76C217.644 76 219.757 78.1157 219.757 80.717V101.861C222.255 103.464 223.793 106.259 223.793 109.242Z" fill="#CDEAF7"/>
<path d="M221.136 109.36C221.136 111.056 220.458 112.647 219.227 113.838C218.02 115.008 216.423 115.65 214.725 115.65C214.695 115.65 214.667 115.65 214.639 115.649C214.318 115.645 214.001 115.616 213.689 115.566C212.391 115.356 211.188 114.754 210.23 113.823C209.042 112.668 208.365 111.138 208.326 109.514C208.271 107.223 209.489 105.081 211.505 103.924C212.079 103.595 212.436 102.985 212.436 102.333V80.8701C212.436 79.9967 212.945 79.2372 213.687 78.8636C214 78.7054 214.355 78.6169 214.73 78.6169C215.995 78.6169 217.024 79.628 217.024 80.8701V102.333C217.024 102.985 217.381 103.595 217.955 103.924C219.917 105.05 221.136 107.133 221.136 109.36Z" fill="#FF6E6E"/>
<path d="M221.136 109.36C221.136 111.056 220.458 112.647 219.227 113.838C218.02 115.008 216.423 115.65 214.725 115.65C214.696 115.65 214.667 115.65 214.639 115.649C214.318 115.645 214.001 115.616 213.689 115.566C214.988 115.358 216.187 114.763 217.141 113.838C218.372 112.647 219.05 111.056 219.05 109.36C219.05 107.133 217.831 105.05 215.869 103.924C215.295 103.595 214.938 102.985 214.938 102.333V80.8701C214.938 79.9967 214.429 79.238 213.688 78.8636C214 78.7054 214.355 78.6169 214.731 78.6169C215.996 78.6169 217.024 79.628 217.024 80.8701V102.333C217.024 102.985 217.382 103.595 217.955 103.924C219.917 105.05 221.136 107.133 221.136 109.36Z" fill="#F44E92"/>
<path d="M216.874 80.818V86.093H212.261V80.818C212.261 79.96 212.772 79.2139 213.519 78.8469C213.834 78.6915 214.19 78.6046 214.568 78.6046C215.839 78.6046 216.874 79.5978 216.874 80.818Z" fill="white"/>
<path d="M217.203 80.818V86.093H215.143V80.818C215.143 79.96 214.641 79.2147 213.908 78.8469C214.217 78.6915 214.567 78.6046 214.938 78.6046C216.187 78.6046 217.203 79.5978 217.203 80.818Z" fill="white"/>
<path fill-rule="evenodd" clip-rule="evenodd" d="M82.1832 50.3096C82.1832 50.3096 68.7058 99.5302 85.9759 116.868C86.2386 117.132 83.6388 116.868 83.6388 116.868C83.6388 116.868 64.2207 102.302 80.2447 49C80.1929 49.1725 82.1832 50.3096 82.1832 50.3096Z" fill="#FBD3DB"/>
<path fill-rule="evenodd" clip-rule="evenodd" d="M88.0649 73L90.0328 77.4598C90.0328 77.4598 85.2015 92.8908 90.9983 105.987C91.0705 106.15 88.7772 104.769 88.7576 104.722C85.6319 97.1903 88.0649 73 88.0649 73Z" fill="#FBD3DB"/>
<path fill-rule="evenodd" clip-rule="evenodd" d="M132.759 91L130 74.964C130 74.964 132.344 71.7625 133.305 73.7798C134.266 75.797 136 85.9075 136 85.9075C136 85.9075 132.016 78.1859 132.016 74.964C132.016 71.742 132.759 91 132.759 91Z" fill="#C07485" fill-opacity="0.346099"/>
</g>
<defs>
<filter id="filter0_d_0_4305" x="-30" y="20" width="123" height="86" filterUnits="userSpaceOnUse" color-interpolation-filters="sRGB">
<feFlood flood-opacity="0" result="BackgroundImageFix"/>
<feColorMatrix in="SourceAlpha" type="matrix" values="0 0 0 0 0 0 0 0 0 0 0 0 0 0 0 0 0 0 127 0" result="hardAlpha"/>
<feOffset dy="15"/>
<feGaussianBlur stdDeviation="15"/>
<feColorMatrix type="matrix" values="0 0 0 0 0 0 0 0 0 0 0 0 0 0 0 0 0 0 0.0406742 0"/>
<feBlend mode="normal" in2="BackgroundImageFix" result="effect1_dropShadow_0_4305"/>
<feBlend mode="normal" in="SourceGraphic" in2="effect1_dropShadow_0_4305" result="shape"/>
</filter>
<filter id="filter1_d_0_4305" x="104" y="-15" width="88" height="88" filterUnits="userSpaceOnUse" color-interpolation-filters="sRGB">
<feFlood flood-opacity="0" result="BackgroundImageFix"/>
<feColorMatrix in="SourceAlpha" type="matrix" values="0 0 0 0 0 0 0 0 0 0 0 0 0 0 0 0 0 0 127 0" result="hardAlpha"/>
<feOffset dy="15"/>
<feGaussianBlur stdDeviation="15"/>
<feColorMatrix type="matrix" values="0 0 0 0 0 0 0 0 0 0 0 0 0 0 0 0 0 0 0.0406742 0"/>
<feBlend mode="normal" in2="BackgroundImageFix" result="effect1_dropShadow_0_4305"/>
<feBlend mode="normal" in="SourceGraphic" in2="effect1_dropShadow_0_4305" result="shape"/>
</filter>
<linearGradient id="paint0_linear_0_4305" x1="20.8478" y1="35.9841" x2="25.7033" y2="119.467" gradientUnits="userSpaceOnUse">
<stop stop-color="#88929D"/>
<stop offset="1" stop-color="#0E2549"/>
</linearGradient>
<clipPath id="clip0_0_4305">
<rect width="235" height="130" fill="white"/>
</clipPath>
</defs>
</svg>
