<svg width="260" height="271" viewBox="0 0 260 271" fill="none" xmlns="http://www.w3.org/2000/svg">
<path d="M0 30C0 13.4315 13.4315 0 30 0H230C246.569 0 260 13.4315 260 30V271H0V30Z" fill="#DDE0FF"/>
<mask id="mask0_0_4057" style="mask-type:alpha" maskUnits="userSpaceOnUse" x="0" y="0" width="260" height="271">
<path d="M0 30C0 13.4315 13.4315 0 30 0H230C246.569 0 260 13.4315 260 30V271H0V30Z" fill="white"/>
</mask>
<g mask="url(#mask0_0_4057)">
<path fill-rule="evenodd" clip-rule="evenodd" d="M187.238 110.984C187.238 110.984 200.314 141.06 190.099 164.633C181.517 178.857 130.03 145.123 137.795 117.487C142.289 106.513 151.688 108.139 157.817 115.454C163.947 122.77 167.624 135.776 172.528 139.027C177.431 142.279 167.624 115.047 169.667 110.171C171.711 105.294 182.743 103.668 187.238 110.984Z" fill="white"/>
<path fill-rule="evenodd" clip-rule="evenodd" d="M187.238 110.984C187.238 110.984 200.314 141.06 190.099 164.633C181.517 178.857 130.03 145.123 137.795 117.487C142.289 106.513 151.688 108.139 157.817 115.454C163.947 122.77 167.624 135.776 172.528 139.027C177.431 142.279 167.624 115.047 169.667 110.171C171.711 105.294 182.743 103.668 187.238 110.984Z" stroke="#0A053A" stroke-width="0.75"/>
<path fill-rule="evenodd" clip-rule="evenodd" d="M102.65 90C102.65 90 87.4423 95.7579 80.3808 114.756C73.3202 133.756 71.6901 201.356 77.665 219.204C83.6399 237.052 145.561 236.476 165.114 223.81C181.409 210.568 164.028 181.541 161.312 157.936C158.597 134.331 158.597 114.181 148.819 106.696C139.042 99.212 102.65 90 102.65 90Z" fill="white"/>
<path d="M153.131 111.759C151.95 109.714 150.535 108.01 148.819 106.696C139.042 99.212 102.65 90 102.65 90C102.65 90 87.4424 95.7579 80.3799 114.756C73.3202 133.756 71.6902 201.356 77.6651 219.204C83.639 237.052 145.561 236.476 165.114 223.81C181.409 210.568 164.028 181.541 161.312 157.936C160.596 151.711 160.069 145.725 159.5 140.149" stroke="#0A053A" stroke-width="0.75"/>
<path fill-rule="evenodd" clip-rule="evenodd" d="M137.513 119.126C137.513 119.126 144.36 166.758 141.138 170.015C137.917 173.272 126.639 174.493 123.014 170.422C122.611 160.245 121 119.126 121 116.684C121 114.241 137.513 119.126 137.513 119.126Z" fill="#FF4591"/>
<path fill-rule="evenodd" clip-rule="evenodd" d="M149 114.52C149 114.52 136.683 131.631 115.061 122.125C93.4383 112.618 97.2705 88.9878 100.555 86C103.565 93.0624 109.586 118.594 149 114.52Z" fill="#C62E73"/>
<path fill-rule="evenodd" clip-rule="evenodd" d="M151.579 106.186C151.579 106.186 155.229 115.92 141.033 120.786C126.837 125.653 105.745 115.108 101.285 102.941C96.8229 90.7735 98.8501 78.607 107.774 76.1728C116.697 73.7395 149.146 97.6682 151.579 106.186Z" fill="#FF4591"/>
<path fill-rule="evenodd" clip-rule="evenodd" d="M145 104.642C145 104.642 118.849 116.757 107 86.0656C116.807 79.6039 145 104.642 145 104.642Z" fill="#DADFE5"/>
<path fill-rule="evenodd" clip-rule="evenodd" d="M156.02 51.0662C156.02 51.0662 161.322 83.5558 154.574 100.755C149.271 108.401 125.653 101.71 114.085 89.2887C102.516 76.8661 99.1418 55.8433 104.444 42.9438C109.747 30.0434 134.329 29.5655 142.041 32.4319C149.753 35.2993 155.538 45.8103 156.02 51.0662Z" fill="white"/>
<path d="M110.995 85.5098C101.951 72.9261 99.6481 54.6112 104.444 42.943C109.747 30.0434 134.329 29.5655 142.041 32.432C149.753 35.2994 155.538 45.8104 156.02 51.0663C156.02 51.0663 161.322 83.5561 154.574 100.756C150.673 106.38 136.858 104.245 125.222 97.7778" stroke="#0A053A" stroke-width="0.75"/>
<path fill-rule="evenodd" clip-rule="evenodd" d="M129 79C129 80.6565 130.343 82 132 82C133.656 82 135 80.6565 135 79C135 77.3435 133.656 76 132 76C130.343 76 129 77.3435 129 79Z" fill="#DADFE5"/>
<path fill-rule="evenodd" clip-rule="evenodd" d="M151 99C151 99 149.364 100.348 147.118 99.6784C146.274 100.473 150.207 102.532 151 99Z" fill="#0E2549"/>
<mask id="mask1_0_4057" style="mask-type:alpha" maskUnits="userSpaceOnUse" x="92" y="15" width="68" height="67">
<path fill-rule="evenodd" clip-rule="evenodd" d="M92.8213 15.8394H159.858V81.4914H92.8213V15.8394Z" fill="white"/>
</mask>
<g mask="url(#mask1_0_4057)">
<path fill-rule="evenodd" clip-rule="evenodd" d="M157.615 39.202C157.615 39.202 160.966 40.5029 159.476 45.3371C157.988 50.1695 154.452 50.7278 149.8 49.2399C145.148 47.7529 143.101 53.5158 137.891 52.9575C132.681 52.4001 128.215 50.1695 124.866 52.2139C121.516 54.2593 122.82 59.65 115.19 60.5796C111.282 62.438 111.655 66.5277 112.027 69.874C112.399 73.2194 114.259 79.9119 114.632 80.8416C113.701 81.7702 112.399 81.5841 111.468 81.0267C110.538 80.4693 109.049 73.4055 106.63 72.1046C104.211 70.8027 101.234 70.8027 100.117 70.0601C99.001 69.3157 97.8851 60.5796 96.3956 59.65C94.908 58.7204 92.4879 55.188 92.8596 51.4714C93.2331 47.7529 95.0933 48.4964 95.6513 44.0353C96.2093 39.5742 96.3956 36.2279 98.6293 34.1826C100.861 32.1381 101.885 25.0789 105.42 25.6373C108.956 26.1947 112.399 26.0039 117.609 23.0299C122.82 20.0558 123.94 9.1134 132.681 21.9141C134.906 25.172 139.38 21.1706 143.846 22.4715C148.312 23.7734 149.287 31.5109 149.428 29.1641C150.09 18.1742 152.183 31.1592 156.127 33.8113C158.715 35.5505 157.615 39.202 157.615 39.202Z" fill="#0E2549"/>
</g>
<path fill-rule="evenodd" clip-rule="evenodd" d="M109.111 74.2374C109.111 74.2374 100.144 64.3351 96.4755 71.7623C92.8069 79.1885 111.557 89.9155 111.965 84.5525C112.373 79.1885 109.111 74.2374 109.111 74.2374Z" fill="white"/>
<path d="M110.872 81.5028C110.261 77.4497 108.139 74.2374 108.139 74.2374C108.139 74.2374 99.1524 64.3351 95.4766 71.7623C91.7999 79.1885 110.59 89.9155 111 84.5525" stroke="#0A053A" stroke-width="0.75"/>
<path fill-rule="evenodd" clip-rule="evenodd" d="M106.061 75.7717C106.061 75.7717 102.966 73.9357 102.201 75.9276C100.602 80.1026 109.056 85.055 109 82.1082C108.945 79.1615 106.853 76.4275 106.061 75.7717Z" fill="#DADFE5"/>
<path fill-rule="evenodd" clip-rule="evenodd" d="M108 81.4381C108 81.4381 106.119 73.9562 101.724 73.1142C98.1797 72.381 97.5926 75.3856 98.2184 76.2546C98.8451 77.1245 99.3675 76.2241 99.3728 75.3847C99.3782 74.5454 100.782 73.1214 103.142 75.3568C105.502 77.5941 106.726 79.9646 106.963 81.0891C107.201 82.2144 107.73 82.2567 108 81.4381Z" fill="#DADFE5"/>
<path fill-rule="evenodd" clip-rule="evenodd" d="M144.959 177.097C144.959 177.097 152.021 168.705 154.25 170.172C156.477 171.64 152.104 174.723 151.447 176.854C151.133 177.877 162.002 174.673 162.929 176.231C163.855 177.789 155.436 180.167 155.436 180.167C155.436 180.167 163.501 179.228 162.932 180.648C162.364 182.067 155.582 183.124 153.851 183.175C153.851 183.175 162.344 182.276 161.541 183.885C160.738 185.493 153.101 186.47 153.101 186.47C153.101 186.47 158.736 186.15 157.954 187.549C157.171 188.95 148.152 190.851 143.534 189.584C140.451 188.037 139.389 181.21 144.959 177.097Z" fill="white"/>
<path fill-rule="evenodd" clip-rule="evenodd" d="M144.959 177.097C144.959 177.097 152.021 168.705 154.25 170.172C156.477 171.64 152.104 174.723 151.447 176.854C151.133 177.877 162.002 174.673 162.929 176.231C163.855 177.789 155.436 180.167 155.436 180.167C155.436 180.167 163.501 179.228 162.932 180.648C162.364 182.067 155.582 183.124 153.851 183.175C153.851 183.175 162.344 182.276 161.541 183.885C160.738 185.493 153.101 186.47 153.101 186.47C153.101 186.47 158.736 186.15 157.954 187.549C157.171 188.95 148.152 190.851 143.534 189.584C140.451 188.037 139.389 181.21 144.959 177.097Z" stroke="#0A053A" stroke-width="0.75"/>
<path fill-rule="evenodd" clip-rule="evenodd" d="M140.699 176.643C140.699 176.643 143.67 174.558 146.431 177.895C149.19 181.23 150.464 188.528 146.431 191.03C142.397 193.532 139 190.404 139 190.404L140.699 176.643Z" fill="#DADFE5"/>
<path fill-rule="evenodd" clip-rule="evenodd" d="M100.798 128.475C100.798 128.475 100.798 112.601 87.2252 113.008C73.6501 113.414 73.6501 141.093 76.5299 163.073C79.4097 185.053 79.4097 194.211 90.1031 197.874C99.4909 201.09 123.352 201.064 139.338 194.955C143.641 193.309 146.381 189.059 145.957 184.513C145.644 181.161 144.429 177.714 140.972 176.573C133.569 174.131 110.671 178.337 106.146 173.045C101.621 167.754 100.798 128.475 100.798 128.475Z" fill="white"/>
<path fill-rule="evenodd" clip-rule="evenodd" d="M78.972 117.557C73.6038 126.664 74.1499 146.118 76.2697 162.432C79.1263 184.408 79.1263 193.564 89.7346 197.226C99.0469 200.441 122.715 200.415 138.572 194.306C142.842 192.662 145.56 188.413 145.139 183.868C144.829 180.517 143.623 177.069 140.194 175.929C132.85 173.488 110.136 177.692 105.648 172.402C101.16 167.113 100.343 127.843 100.343 127.843" fill="white"/>
<path d="M78.972 117.557C73.6038 126.664 74.1499 146.118 76.2697 162.432C79.1263 184.408 79.1263 193.564 89.7346 197.226C99.0469 200.441 122.715 200.415 138.572 194.306C142.842 192.662 145.56 188.413 145.139 183.868C144.829 180.517 143.623 177.069 140.194 175.929C132.85 173.488 110.136 177.692 105.648 172.402C101.16 167.113 100.343 127.843 100.343 127.843" stroke="#0A053A" stroke-width="0.75"/>
<path fill-rule="evenodd" clip-rule="evenodd" d="M104 175.055C104 175.055 95.6072 176.668 94.2079 185C93.3693 182.581 94.7676 174.249 104 175.055Z" fill="#DADFE5"/>
<path fill-rule="evenodd" clip-rule="evenodd" d="M102 173.859C102 173.859 96.2943 172.962 93.0323 177C92.6251 176.327 96.0898 170.944 102 173.859Z" fill="#DADFE5"/>
<path fill-rule="evenodd" clip-rule="evenodd" d="M182.744 109.726C184.37 109.264 185.377 107.628 184.866 106.102C184.618 105.361 184.196 104.604 183.488 104.004C181.487 102.306 173.775 102.762 170.133 105.372C169.772 105.63 169.475 105.974 169.306 106.371C168.378 108.541 169.73 110.561 171.081 110.744C172.397 110.92 176.235 111.573 182.744 109.726Z" fill="#DADFE5"/>
<path fill-rule="evenodd" clip-rule="evenodd" d="M182 103.356C182 103.356 180.54 92.8268 178.245 91.0041C175.95 89.1814 174.073 90.3972 174.073 90.3972C174.073 90.3972 170.526 89.7893 168.648 91.2064C166.771 92.6245 166.561 92.8268 164.685 95.2564C162.807 97.6861 162.807 98.9009 163.224 99.9134C163.642 100.926 165.311 102.141 165.311 102.141C165.311 102.141 164.476 103.761 165.728 105.177C166.979 106.595 170.641 106.179 170.641 106.179L171.778 107C171.778 107 179.288 106.191 182 103.356Z" fill="white"/>
<path fill-rule="evenodd" clip-rule="evenodd" d="M181.8 103.684C181.8 103.684 180.346 92.9365 178.06 91.0758C175.775 89.2152 173.905 90.4562 173.905 90.4562C173.905 90.4562 170.372 89.8357 168.501 91.2824C166.632 92.7299 166.423 92.9365 164.555 95.4167C162.684 97.8969 162.684 99.137 163.099 100.171C163.516 101.204 165.177 102.444 165.177 102.444C165.177 102.444 164.346 104.098 165.593 105.544C166.839 106.992 170.487 106.566 170.487 106.566L171.619 107.405" fill="white"/>
<path d="M181.8 103.684C181.8 103.684 180.346 92.9365 178.06 91.0758C175.775 89.2152 173.905 90.4562 173.905 90.4562C173.905 90.4562 170.372 89.8357 168.501 91.2824C166.632 92.7299 166.423 92.9365 164.555 95.4167C162.684 97.8969 162.684 99.137 163.099 100.171C163.516 101.204 165.177 102.444 165.177 102.444C165.177 102.444 164.346 104.098 165.593 105.544C166.839 106.992 170.487 106.566 170.487 106.566L171.619 107.405" stroke="#0A053A" stroke-width="0.75"/>
<path fill-rule="evenodd" clip-rule="evenodd" d="M174.147 94C174.147 94 174.523 96.6618 174.335 98.096C174.71 98.3006 175.65 98.096 176.778 98.7098C177.342 98.9144 177.906 96.8664 177.906 96.8664C177.906 96.8664 178.282 98.7098 177.53 99.7338C176.59 100.349 173.959 99.7338 173.018 99.5292C172.831 98.7098 174.147 94 174.147 94Z" fill="#0E2549"/>
<path fill-rule="evenodd" clip-rule="evenodd" d="M119.605 64C119.605 64 122.404 67.1572 120.072 67.9467C117.972 68.539 119.605 64 119.605 64Z" fill="white"/>
<path fill-rule="evenodd" clip-rule="evenodd" d="M118.605 81C118.605 81 121.405 84.1573 119.072 84.9468C116.972 85.5383 118.605 81 118.605 81Z" fill="white"/>
<path fill-rule="evenodd" clip-rule="evenodd" d="M128.605 54C128.605 54 131.405 57.1579 129.071 57.9467C126.972 58.5392 128.605 54 128.605 54Z" fill="white"/>
<path fill-rule="evenodd" clip-rule="evenodd" d="M150.949 67C150.907 67 150.865 66.997 150.823 66.9901C150.304 66.914 149.939 66.382 150.008 65.8035L150.115 64.9195C150.183 64.3401 150.656 63.9307 151.178 64.0098C151.696 64.0869 152.061 64.6179 151.992 65.1974L151.887 66.0814C151.823 66.6124 151.416 67 150.949 67Z" fill="#0E2549"/>
<path fill-rule="evenodd" clip-rule="evenodd" d="M133.949 69C133.907 69 133.865 68.997 133.823 68.9901C133.304 68.914 132.94 68.3819 133.008 67.8024L133.114 66.9184C133.184 66.3399 133.658 65.9315 134.178 66.0096C134.697 66.0867 135.061 66.6177 134.992 67.1972L134.887 68.0813C134.823 68.6133 134.416 69 133.949 69Z" fill="#0E2549"/>
<path fill-rule="evenodd" clip-rule="evenodd" d="M136.48 63.4948C136.352 63.5374 136.21 63.5518 136.063 63.5302C135.998 63.5213 132.869 63.1152 130.345 64.8512C129.987 65.0968 129.467 65.0318 129.181 64.7051C128.895 64.3785 128.954 63.9146 129.312 63.669C132.416 61.5342 136.126 62.047 136.282 62.0703C136.736 62.1369 137.054 62.5173 136.992 62.9202C136.952 63.1931 136.748 63.4058 136.48 63.4948Z" fill="#0E2549"/>
<path fill-rule="evenodd" clip-rule="evenodd" d="M143.433 81C142.925 81 142.31 80.9466 141.563 80.8205C141.217 80.7613 140.967 80.2666 141.004 79.7156C141.041 79.1655 141.349 78.7687 141.695 78.824C142.94 79.0365 144.25 79.02 144.712 78.8056C144.683 78.6824 144.636 78.5155 144.594 78.3613C144.308 77.329 143.777 75.4062 143.516 71.0998C143.484 70.5478 143.737 70.0579 144.083 70.0046C144.427 69.9522 144.735 70.3558 144.768 70.9078C145.009 74.8911 145.469 76.5558 145.744 77.5512C145.943 78.2701 146.131 78.9501 145.877 79.7815C145.775 80.1162 145.504 81 143.433 81Z" fill="#0E2549"/>
<path fill-rule="evenodd" clip-rule="evenodd" d="M153.306 61.6621C153.173 61.6866 153.035 61.6688 152.901 61.6022C152.842 61.5733 149.984 60.2173 147.137 61.9042C146.732 62.143 146.257 61.9198 146.073 61.4067C145.889 60.8914 146.065 60.2817 146.468 60.0429C149.971 57.9672 153.351 59.6187 153.493 59.6908C153.906 59.8974 154.107 60.4916 153.943 61.0202C153.832 61.3767 153.583 61.6122 153.306 61.6621Z" fill="#0E2549"/>
<path fill-rule="evenodd" clip-rule="evenodd" d="M100.226 126C100.226 126 98.3405 126.333 97.8832 132.314C97.4258 138.296 100.263 143.75 97.8832 149.028C95.5032 154.306 98.294 170.218 101.969 172.818C105.644 175.418 105.705 174.902 107.248 176.567C108.791 178.233 122.674 179.464 128.584 178.409C134.494 177.353 137.288 176.759 140.822 178.801C144.356 180.842 144.963 184 144.963 184C144.963 184 146.559 173.395 128.899 175.506C110.977 175.682 103.959 176.489 103.403 166.013C100.573 155 100.226 126 100.226 126Z" fill="#4AEAFF"/>
<path fill-rule="evenodd" clip-rule="evenodd" d="M78 178.198C78 178.198 93.3506 175.915 96.7749 186.849C100.199 197.782 98.6508 199 98.6508 199C98.6508 199 87.8872 197.929 83.3865 193.517C78.8849 189.104 78 178.198 78 178.198Z" fill="#4AEAFF"/>
<path fill-rule="evenodd" clip-rule="evenodd" d="M74.504 150C74.504 150 77.8198 206.859 79.7408 211.247C81.66 215.635 86.1976 223.933 90.5622 225.487C94.925 227.041 98 231 98 231C98 231 81.0128 228.134 77.3223 219.076C72.2361 195.102 74.504 150 74.504 150Z" fill="#4AEAFF"/>
<path fill-rule="evenodd" clip-rule="evenodd" d="M159 138.21C159 138.21 163.575 136.776 162.98 141.407C162.386 146.036 161.976 155.296 163.281 157.433C164.586 159.57 163.715 161 163.715 161L161.289 159.443L159 138.21Z" fill="#4AEAFF"/>
<path fill-rule="evenodd" clip-rule="evenodd" d="M175 166.59C175 166.59 175.058 150.796 193 154.588L189.897 164.572C189.897 164.572 185.912 168.723 181.27 167.89C176.627 167.056 175 166.59 175 166.59Z" fill="#4AEAFF"/>
<path fill-rule="evenodd" clip-rule="evenodd" d="M171.863 110.521C171.863 110.521 171.341 115.889 173.276 119.189C175.211 122.49 175.998 136.369 175.998 136.369C175.998 136.369 176.267 144.723 170.632 138.991C164.999 133.258 162.722 121.853 162.034 120.681C161.347 119.509 171.269 137.122 172.078 137.753C172.887 138.383 175.643 141.062 173.276 130.448C170.908 119.833 169.233 111.702 170.022 109.714C170.81 107.726 171.863 110.521 171.863 110.521Z" fill="#4AEAFF"/>
<path fill-rule="evenodd" clip-rule="evenodd" d="M99 91C99 91 98.149 95.6765 98.4067 98.0254C98.6663 100.373 86.7455 109.799 85.6265 113.454C84.5074 117.11 75 131 75 131C75 131 77.9654 114.897 84.6667 103.993C91.368 93.0883 99 91 99 91Z" fill="#4AEAFF"/>
<path fill-rule="evenodd" clip-rule="evenodd" d="M166.891 81.6405C166.891 81.6405 171.143 78.8868 174.864 80.5148C178.586 82.1428 179.751 82.2508 183.025 84.8872C186.299 87.5236 184.35 88.2747 189.248 93.6273C194.145 98.9789 193.252 100.995 192.074 102.285C190.895 103.575 188.555 99.7432 184.627 104.042C180.7 108.342 185.585 110.078 176.976 111.728C168.366 113.378 165.74 113.834 161.691 115.674C157.644 117.513 155.749 117.688 155.099 114.595C154.452 111.504 157.186 109.892 157.189 104.878C157.191 99.8634 159.181 99.9319 159.644 92.5119C160.107 85.0919 166.891 81.6405 166.891 81.6405Z" fill="#BDCBDB"/>
<path fill-rule="evenodd" clip-rule="evenodd" d="M150.697 90.9966C150.697 90.9966 147.542 92.9451 145.161 92.4154C142.779 91.8856 141.489 93.8505 141.093 92.5415C140.696 91.2335 141.589 88.2977 143.461 89.1539C145.334 90.0102 145.979 88.5837 147.194 89.4391C148.41 90.2953 152.068 90.3522 150.697 90.9966Z" fill="#0E2549"/>
</g>
</svg>
