<svg width="260" height="271" viewBox="0 0 260 271" fill="none" xmlns="http://www.w3.org/2000/svg">
<path d="M0 30C0 13.4315 13.4315 0 30 0H230C246.569 0 260 13.4315 260 30V271H0V30Z" fill="#FFECD6"/>
<mask id="mask0_0_3971" style="mask-type:alpha" maskUnits="userSpaceOnUse" x="0" y="0" width="260" height="271">
<path d="M0 30C0 13.4315 13.4315 0 30 0H230C246.569 0 260 13.4315 260 30V271H0V30Z" fill="white"/>
</mask>
<g mask="url(#mask0_0_3971)">
<path fill-rule="evenodd" clip-rule="evenodd" d="M74.1004 209C74.1004 209 34.1066 191.955 44.825 175.7C55.5452 159.446 83.0803 164.036 84.6016 166.676C86.123 169.315 117.533 189.475 74.1004 209" fill="#DADFE5"/>
<path fill-rule="evenodd" clip-rule="evenodd" d="M183.524 190C183.524 190 144.271 172.955 154.792 156.7C165.312 140.446 192.338 145.036 193.831 147.675C195.324 150.315 226.153 170.475 183.524 190" fill="#DADFE5"/>
<path fill-rule="evenodd" clip-rule="evenodd" d="M56.0475 184C56.0475 184 57.4286 177.662 63.2972 177.268C69.1657 176.872 77.1189 171.683 81.7727 173.411C86.4257 175.14 156.572 173.427 166.108 167.67C175.646 161.915 177.562 148.373 186.537 149.106C195.513 149.838 200 147.319 200 147.319C200 147.319 180.88 127.497 181.465 117.005C182.049 106.512 178.325 96 178.325 96C178.325 96 139.37 117.155 108.064 110.967C76.7594 104.779 59.8452 99.5241 54.3215 106.831C48.7977 114.138 45 107.948 45 107.948C45 107.948 59.4994 128.204 52.5955 145.954C45.6906 163.702 56.0475 184 56.0475 184" fill="#BDCBDB"/>
<path fill-rule="evenodd" clip-rule="evenodd" d="M151 112C151 112 158.816 113.639 163.7 124.816C168.582 135.992 187.46 172.777 182.027 186.455C176.596 200.134 161.722 191.034 161.722 191.034L151 112Z" fill="white"/>
<path fill-rule="evenodd" clip-rule="evenodd" d="M151 112C151 112 158.816 113.639 163.7 124.816C168.582 135.992 187.46 172.777 182.027 186.455C176.596 200.134 161.722 191.034 161.722 191.034L151 112Z" stroke="#0A053A" stroke-width="0.75"/>
<path fill-rule="evenodd" clip-rule="evenodd" d="M102.066 90C102.066 90 87.1676 95.6765 80.251 114.41C73.3336 133.143 71.7377 199.799 77.5898 217.398C83.4436 234.995 144.1 234.428 163.255 221.939C179.217 208.882 162.19 180.261 159.531 156.986C156.871 133.711 156.871 113.843 147.293 106.462C137.715 99.0832 102.066 90 102.066 90" fill="white"/>
<path fill-rule="evenodd" clip-rule="evenodd" d="M74.5044 150C74.5044 150 77.8203 206.157 79.7404 210.491C81.6596 214.823 86.1983 223.019 90.5621 224.555C94.9259 226.089 98 230 98 230C98 230 81.0134 227.169 77.3219 218.223C72.2355 194.545 74.5044 150 74.5044 150" fill="#4AEAFF"/>
<path d="M151.517 111.454C150.359 109.438 148.974 107.758 147.293 106.462C137.715 99.0832 102.066 90 102.066 90C102.066 90 87.1676 95.6765 80.2502 114.41C73.3337 133.143 71.7378 199.799 77.5898 217.397C83.4428 234.995 144.1 234.428 163.255 221.939C179.217 208.882 162.19 180.262 159.531 156.986C158.829 150.847 156.251 143.963 155.694 138.464" stroke="#0A053A" stroke-width="0.75"/>
<mask id="mask1_0_3971" style="mask-type:alpha" maskUnits="userSpaceOnUse" x="29" y="160" width="248" height="81">
<path fill-rule="evenodd" clip-rule="evenodd" d="M29.001 160.263H276.11V241H29.001V160.263Z" fill="white"/>
</mask>
<g mask="url(#mask1_0_3971)">
<path fill-rule="evenodd" clip-rule="evenodd" d="M38.8282 200.604C32.6209 199.925 50.1572 200.161 62.6206 200.604C75.084 201.045 75.174 208.743 88.8627 200.604C102.551 192.464 113.48 177.05 125.704 178.858C137.93 180.665 177.408 178.272 180.531 171.805C183.654 165.338 192.447 155.355 204.861 163.057C217.273 170.759 241.068 164.086 241.068 164.086L257.6 203.06L276.111 241.001L48.1383 235.151L29.001 196.695L38.8282 200.604Z" fill="#EDF1F4"/>
</g>
<path fill-rule="evenodd" clip-rule="evenodd" d="M39.0504 204.321C42.9745 206.736 47.0893 208.824 51.2555 210.765C55.4317 212.687 59.7263 214.348 64.1136 215.679C68.5017 216.993 73.0183 217.935 77.5771 218.137C82.1156 218.376 86.7551 217.793 90.8745 215.862C91.911 215.39 92.8769 214.816 93.84 214.182L96.7358 212.296L102.481 208.45C106.311 205.895 110.067 203.164 114.268 201.197C118.452 199.168 123.087 198.32 127.671 197.923C132.277 197.515 136.887 197.54 141.479 197.279C146.071 197.05 150.661 196.715 155.2 196.061C159.735 195.418 164.234 194.435 168.483 192.771C170.605 191.939 172.659 190.94 174.602 189.757C176.569 188.605 178.345 187.187 180.163 185.755C183.797 182.931 187.37 179.938 191.505 177.726C193.57 176.634 195.791 175.789 198.102 175.36C200.411 174.913 202.783 174.909 205.094 175.201C206.25 175.354 207.393 175.58 208.523 175.854L211.863 176.745C214.085 177.319 216.337 177.784 218.595 178.21C227.647 179.825 236.816 180.826 246 181.454L245.995 181.546C236.797 181.084 227.602 180.281 218.505 178.716C216.233 178.311 213.967 177.865 211.723 177.31L208.378 176.463C207.265 176.211 206.142 176.009 205.013 175.878C202.756 175.631 200.467 175.674 198.254 176.141C196.04 176.59 193.919 177.435 191.93 178.528C187.932 180.702 184.378 183.666 180.752 186.508C178.954 187.933 177.118 189.408 175.103 190.593C173.107 191.805 170.99 192.805 168.817 193.64C164.464 195.309 159.893 196.27 155.313 196.887C150.724 197.483 146.111 197.739 141.503 197.898C136.896 198.087 132.284 197.991 127.703 198.316C123.13 198.622 118.545 199.479 114.386 201.449C110.239 203.434 106.493 206.16 102.716 208.793L97.0477 212.762L94.1849 214.709C93.2374 215.361 92.2284 215.989 91.1754 216.493C86.9569 218.591 82.1624 219.161 77.5385 218.963C72.888 218.726 68.3247 217.728 63.9053 216.369C59.4787 215.013 55.2033 213.22 51.0427 211.218C46.8838 209.21 42.8598 206.929 39 204.399L39.0504 204.321Z" fill="#0A053A"/>
<path fill-rule="evenodd" clip-rule="evenodd" d="M44.0504 216.321C47.9745 218.737 52.0892 220.823 56.2554 222.765C60.4326 224.687 64.7272 226.347 69.1144 227.679C73.5016 228.992 78.0181 229.934 82.5769 230.137C87.1154 230.375 91.7549 229.792 95.8752 227.861C96.9108 227.39 97.8776 226.816 98.8407 226.181L101.736 224.295L107.48 220.449C111.311 217.895 115.068 215.163 119.269 213.196C123.451 211.167 128.086 210.32 132.672 209.922C137.277 209.514 141.886 209.539 146.478 209.279C151.072 209.049 155.661 208.715 160.199 208.061C164.734 207.417 169.233 206.435 173.482 204.771C175.605 203.939 177.658 202.941 179.601 201.756C181.569 200.605 183.345 199.187 185.163 197.755C188.797 194.931 192.369 191.938 196.505 189.726C198.57 188.634 200.791 187.789 203.102 187.36C205.411 186.913 207.783 186.909 210.093 187.201C211.25 187.354 212.393 187.58 213.522 187.855L216.864 188.745C219.085 189.319 221.336 189.784 223.594 190.21C232.647 191.826 241.816 192.826 251 193.454L250.995 193.546C241.797 193.084 232.601 192.281 223.504 190.716C221.233 190.311 218.967 189.865 216.723 189.31L213.378 188.463C212.264 188.211 211.143 188.009 210.014 187.878C207.755 187.631 205.467 187.674 203.254 188.141C201.039 188.59 198.918 189.435 196.931 190.528C192.932 192.702 189.377 195.666 185.752 198.507C183.953 199.933 182.117 201.407 180.103 202.593C178.106 203.805 175.99 204.805 173.818 205.64C169.464 207.309 164.893 208.27 160.312 208.886C155.723 209.483 151.11 209.739 146.504 209.897C141.897 210.086 137.285 209.99 132.704 210.316C128.13 210.621 123.546 211.479 119.386 213.449C115.238 215.434 111.492 218.159 107.716 220.793L102.047 224.761L99.1847 226.708C98.238 227.36 97.2291 227.988 96.1761 228.493C91.9576 230.591 87.1631 231.16 82.5393 230.964C77.8888 230.725 73.3255 229.728 68.9062 228.369C64.4786 227.012 60.2033 225.219 56.0426 223.218C51.8847 221.209 47.8598 218.928 44 216.398L44.0504 216.321Z" fill="#0A053A"/>
<path fill-rule="evenodd" clip-rule="evenodd" d="M115 229.922C120.389 226.565 125.91 223.407 131.633 220.616C134.501 219.239 137.398 217.897 140.445 216.882C141.974 216.399 143.529 215.937 145.207 215.875C145.615 215.859 146.088 215.902 146.47 215.994C146.873 216.068 147.26 216.171 147.65 216.266C148.426 216.466 149.192 216.684 149.957 216.903C153.011 217.788 156.054 218.674 159.151 219.37C162.25 220.039 165.384 220.588 168.549 220.803C174.862 221.296 181.313 220.631 187.215 218.419C193.056 216.106 198.474 212.656 203.054 208.373C205.378 206.253 207.45 203.884 209.745 201.641C210.906 200.537 212.175 199.472 213.694 198.758C215.225 198.068 216.957 197.873 218.585 198.076C224.908 199.168 231.093 200.468 237.337 201.717C243.571 202.968 249.786 204.305 256 205.642L255.982 205.731L237.237 202.222C231 201.07 224.722 199.837 218.5 198.869C216.972 198.718 215.441 198.937 214.082 199.588C212.718 200.233 211.522 201.232 210.399 202.312C208.168 204.504 206.08 206.929 203.714 209.079C198.985 213.384 193.486 216.872 187.449 219.06C181.379 221.206 174.86 221.601 168.526 221.1C162.169 220.587 155.927 219.142 149.785 217.531C149.016 217.336 148.247 217.143 147.479 216.968C146.7 216.818 145.954 216.598 145.225 216.64C143.718 216.707 142.187 217.163 140.703 217.651C137.723 218.658 134.812 219.922 131.949 221.269C126.227 223.985 120.606 226.936 115.048 230L115 229.922Z" fill="#0A053A"/>
<path fill-rule="evenodd" clip-rule="evenodd" d="M203 229.943C203.823 228.762 204.727 227.638 205.695 226.568C206.652 225.487 207.687 224.471 208.805 223.537C209.915 222.597 211.12 221.725 212.543 221.185C212.893 221.049 213.279 220.942 213.644 220.88C213.987 220.813 214.336 220.758 214.671 220.661C215.349 220.491 216.01 220.249 216.637 219.932C217.912 219.321 219.018 218.385 220.175 217.535C221.304 216.64 222.49 215.812 223.711 215.034C224.363 214.63 225.104 214.44 225.821 214.302C226.547 214.166 227.277 214.092 228.005 214.049C229.463 213.958 230.917 214.008 232.366 214.086C238.155 214.484 243.872 215.455 249.492 216.809C252.297 217.511 255.092 218.258 257.815 219.283C259.183 219.838 260.439 220.458 261.811 220.893C262.484 221.126 263.17 221.326 263.869 221.459C264.552 221.57 265.321 221.699 265.939 221.409L266 221.477C265.32 221.864 264.549 221.765 263.832 221.712C263.106 221.628 262.391 221.48 261.687 221.293C260.285 220.93 258.919 220.346 257.592 219.888C254.883 218.996 252.079 218.333 249.279 217.712C243.67 216.505 238.016 215.387 232.307 214.868C230.881 214.74 229.452 214.669 228.029 214.678C226.625 214.717 225.141 214.773 223.933 215.407C222.668 216.075 221.493 216.894 220.345 217.752C219.223 218.643 218.129 219.583 216.871 220.352C216.243 220.735 215.564 221.047 214.862 221.281C214.512 221.41 214.152 221.495 213.795 221.594C213.457 221.689 213.147 221.771 212.828 221.905C212.198 222.162 211.592 222.511 211.011 222.898C210.419 223.271 209.848 223.687 209.292 224.124C207.088 225.905 205.052 227.922 203.073 230L203 229.943Z" fill="#0A053A"/>
<path fill-rule="evenodd" clip-rule="evenodd" d="M246 235.96C246.598 233.975 248.097 232.237 250.01 231.448C250.974 231.049 252.011 231.039 252.989 231C253.976 231.034 254.965 231.076 255.941 231.284C256.946 231.454 257.85 231.742 258.784 231.943C259.713 232.17 260.653 232.261 261.582 232.351C262.512 232.417 263.443 232.401 264.356 232.235C265.261 232.07 266.179 231.753 266.925 231.119L267 231.178C266.446 232.083 265.499 232.635 264.542 232.984C263.569 233.329 262.537 233.42 261.527 233.397C259.511 233.286 257.571 232.546 255.812 231.804C254.919 231.44 253.955 231.279 253.001 231.318C252.05 231.429 251.127 231.716 250.321 232.198C248.668 233.05 247.256 234.363 246.085 236L246 235.96Z" fill="#0A053A"/>
<path fill-rule="evenodd" clip-rule="evenodd" d="M136.513 120.072C136.513 120.072 143.359 166.868 140.138 170.068C136.916 173.267 125.639 174.467 122.014 170.467C121.612 160.468 120 120.072 120 117.672C120 115.272 136.513 120.072 136.513 120.072" fill="#FF4591"/>
<path fill-rule="evenodd" clip-rule="evenodd" d="M148 114.789C148 114.789 135.925 131.461 114.727 122.198C93.5278 112.935 97.2848 89.9111 100.505 87C103.457 93.8821 109.36 118.758 148 114.789" fill="#C62E73"/>
<path fill-rule="evenodd" clip-rule="evenodd" d="M150.587 107.185C150.587 107.185 154.168 116.92 140.24 121.786C126.312 126.653 105.619 116.108 101.241 103.941C96.8639 91.7729 98.8529 79.6062 107.609 77.1728C116.364 74.7395 148.199 98.6686 150.587 107.185" fill="#FF4591"/>
<path fill-rule="evenodd" clip-rule="evenodd" d="M144 104.642C144 104.642 118.537 116.757 107 86.0658C116.549 79.6032 144 104.642 144 104.642" fill="#DADFE5"/>
<path fill-rule="evenodd" clip-rule="evenodd" d="M154.091 53.7908C154.091 53.7908 159.203 85.8355 152.697 102.8C147.584 110.34 124.808 103.742 113.653 91.4899C102.497 79.2375 99.2444 58.5034 104.357 45.7796C109.47 33.0558 133.175 32.5853 140.612 35.4125C148.049 38.2397 153.626 48.6068 154.091 53.7908" fill="white"/>
<path d="M110.674 87.7625C101.953 75.351 99.7321 57.2879 104.357 45.7794C109.47 33.0565 133.175 32.5852 140.612 35.4124C148.049 38.2396 153.626 48.6066 154.091 53.7906C154.091 53.7906 159.203 85.8355 152.697 102.801C148.936 108.347 135.614 106.242 124.394 99.8634" stroke="#0A053A" stroke-width="0.75"/>
<path fill-rule="evenodd" clip-rule="evenodd" d="M128 81C128 82.6575 129.343 84 131 84C132.656 84 134 82.6575 134 81C134 79.3435 132.656 78 131 78C129.343 78 128 79.3435 128 81" fill="#DADFE5"/>
<path fill-rule="evenodd" clip-rule="evenodd" d="M148.661 92.0847C148.661 92.0847 141.192 91.6929 137.119 92.5947C133.045 93.4965 140.853 94.24 148.321 93.9274C153.414 93.6132 149.68 93.2606 149.68 92.8681C149.68 92.4764 150.699 92.2805 148.661 92.0847" fill="#0E2549"/>
<path fill-rule="evenodd" clip-rule="evenodd" d="M145 101.37C145 101.37 143.181 102.356 141.169 101C140.212 101.616 143.564 104.944 145 101.37" fill="#0E2549"/>
<path fill-rule="evenodd" clip-rule="evenodd" d="M156.792 42.1305C156.792 42.1305 160.09 43.4185 158.625 48.2047C157.158 52.989 153.678 53.5418 149.098 52.0695C144.518 50.5964 142.503 56.302 137.372 55.7502C132.243 55.1983 127.846 52.989 124.549 55.0131C121.252 57.0382 122.534 62.3753 115.022 63.2957C111.175 65.1365 111.541 69.1847 111.908 72.4977C112.274 75.8107 114.106 82.4359 114.472 83.3562C113.556 84.2757 112.274 84.0924 111.359 83.5396C110.443 82.9886 108.976 75.9941 106.595 74.7061C104.214 73.4181 101.282 73.4181 100.183 72.682C99.0833 71.9449 97.9846 63.2957 96.519 62.3753C95.0535 61.4558 92.6718 57.9585 93.0377 54.2779C93.4046 50.5964 95.2369 51.3325 95.7854 46.9157C96.3356 42.499 96.519 39.186 98.7174 37.1619C100.916 35.1368 101.923 28.1487 105.403 28.7006C108.884 29.2524 112.274 29.0636 117.404 26.1191C122.534 23.1746 123.637 12.3409 132.243 25.0153C134.433 28.2399 138.839 24.2792 143.236 25.5672C147.632 26.8552 148.592 34.5159 148.732 32.1923C149.383 21.3117 151.443 34.1685 155.327 36.7933C157.875 38.5162 156.792 42.1305 156.792 42.1305" fill="#0E2549"/>
<path fill-rule="evenodd" clip-rule="evenodd" d="M108.112 75.9295C108.112 75.9295 99.1449 66.61 95.4753 73.5992C91.8076 80.5902 110.558 90.685 110.965 85.6376C111.373 80.5902 108.112 75.9295 108.112 75.9295" fill="white"/>
<path d="M110.872 82.7682C110.261 78.9527 108.14 75.9293 108.14 75.9293C108.14 75.9293 99.1531 66.6095 95.4764 73.5998C91.8005 80.59 110.591 90.6851 111 85.6375" stroke="#0A053A" stroke-width="0.75"/>
<path fill-rule="evenodd" clip-rule="evenodd" d="M105.06 77.7716C105.06 77.7716 101.965 75.9358 101.201 77.9275C99.6018 82.102 108.055 87.0549 108 84.1085C107.945 81.1621 105.852 78.4274 105.06 77.7716" fill="#DADFE5"/>
<path fill-rule="evenodd" clip-rule="evenodd" d="M108 83.3757C108 83.3757 106.118 75.0622 101.723 74.1266C98.1793 73.3129 97.5922 76.6505 98.2188 77.6161C98.8455 78.5827 99.3679 77.5821 99.3724 76.6495C99.3787 75.7169 100.782 74.1346 103.142 76.6185C105.502 79.1045 106.725 81.7383 106.963 82.9878C107.201 84.2383 107.729 84.2853 108 83.3757" fill="#DADFE5"/>
<path fill-rule="evenodd" clip-rule="evenodd" d="M119.605 66C119.605 66 122.404 69.157 120.072 69.9467C117.972 70.5392 119.605 66 119.605 66" fill="white"/>
<path fill-rule="evenodd" clip-rule="evenodd" d="M118.605 82C118.605 82 121.404 85.157 119.072 85.9467C116.972 86.5392 118.605 82 118.605 82" fill="white"/>
<path fill-rule="evenodd" clip-rule="evenodd" d="M127.605 56C127.605 56 130.404 59.1579 128.072 59.9467C125.972 60.5392 127.605 56 127.605 56" fill="white"/>
<path fill-rule="evenodd" clip-rule="evenodd" d="M149.949 68C149.907 68 149.865 67.996 149.822 67.9901C149.304 67.913 148.939 67.382 149.008 66.8025L149.114 65.9185C149.183 65.3401 149.655 64.9307 150.178 65.0098C150.697 65.0869 151.061 65.6179 150.992 66.1974L150.887 67.0804C150.823 67.6124 150.417 68 149.949 68" fill="#0E2549"/>
<path fill-rule="evenodd" clip-rule="evenodd" d="M132.949 70C132.907 70 132.865 69.997 132.822 69.9911C132.304 69.9139 131.939 69.3818 132.008 68.8031L132.115 67.9188C132.183 67.3402 132.658 66.9307 133.178 67.0098C133.696 67.086 134.061 67.6181 133.992 68.1978L133.886 69.0811C133.823 69.6132 133.416 70 132.949 70" fill="#0E2549"/>
<path fill-rule="evenodd" clip-rule="evenodd" d="M135.48 64.993C135.352 65.0497 135.21 65.0679 135.062 65.0412C134.998 65.0283 131.869 64.4868 129.345 66.8016C128.986 67.129 128.466 67.0424 128.181 66.6068C127.895 66.1712 127.954 65.5527 128.311 65.2252C131.416 62.3797 135.126 63.0624 135.283 63.0935C135.736 63.1823 136.053 63.6885 135.993 64.2268C135.951 64.5906 135.747 64.8753 135.48 64.993" fill="#0E2549"/>
<path fill-rule="evenodd" clip-rule="evenodd" d="M142.433 82C141.925 82 141.309 81.9515 140.562 81.836C140.217 81.783 139.967 81.3333 140.004 80.8323C140.04 80.3314 140.349 79.9716 140.694 80.0218C141.94 80.2141 143.251 80.2 143.713 80.0042C143.684 79.8922 143.637 79.7405 143.595 79.6011C143.309 78.6628 142.776 76.9139 142.517 72.9999C142.484 72.4972 142.736 72.0518 143.083 72.0042C143.427 71.9565 143.735 72.3234 143.768 72.8244C144.008 76.4465 144.469 77.9599 144.744 78.8638C144.943 79.5182 145.131 80.1356 144.877 80.8923C144.775 81.1966 144.505 82 142.433 82V82Z" fill="#0E2549"/>
<path fill-rule="evenodd" clip-rule="evenodd" d="M152.306 63.6624C152.173 63.6857 152.035 63.669 151.901 63.6024C151.842 63.5735 148.985 62.2166 146.137 63.9045C145.733 64.1432 145.257 63.9189 145.073 63.4059C144.888 62.8917 145.066 62.2821 145.469 62.0423C148.972 59.968 152.352 61.6181 152.493 61.6903C152.906 61.8968 153.107 62.492 152.943 63.0206C152.832 63.377 152.583 63.6113 152.306 63.6624" fill="#0E2549"/>
<path fill-rule="evenodd" clip-rule="evenodd" d="M100 92C100 92 99.1499 96.6765 99.4076 99.0245C99.6663 101.372 87.746 110.799 86.6259 114.454C85.5068 118.109 76 132 76 132C76 132 78.9646 115.897 85.6662 104.993C92.3687 94.0883 100 92 100 92" fill="#4AEAFF"/>
<path fill-rule="evenodd" clip-rule="evenodd" d="M118 27L118.722 34.0759L120.941 33.8316L122.826 40L125 39.4056L121.978 31.3083C121.978 31.3083 120.164 32.9956 120.168 32.4284C120.173 31.8611 118 27 118 27" fill="#F7AA84"/>
<path fill-rule="evenodd" clip-rule="evenodd" d="M127.375 22L126 29.0684L128.018 29.453L127.921 35.967L130 36L129.647 27.2958C129.647 27.2958 127.573 28.4249 127.737 27.875C127.903 27.3261 127.375 22 127.375 22" fill="#F7AA84"/>
<path fill-rule="evenodd" clip-rule="evenodd" d="M139.887 22L135.841 27.9633L137.613 29.1445L135 35.1189L136.967 36L140 27.8188C140 27.8188 137.588 28.0121 137.958 27.5729C138.327 27.1338 139.887 22 139.887 22" fill="#F7AA84"/>
<path fill-rule="evenodd" clip-rule="evenodd" d="M118 16L118.516 20.8988L120.1 20.7295L121.447 25L123 24.5888L120.841 18.9825C120.841 18.9825 119.545 20.1509 119.548 19.758C119.552 19.3652 118 16 118 16" fill="#F7AA84"/>
<path fill-rule="evenodd" clip-rule="evenodd" d="M107 20L108.816 24.6821L110.246 24.1345L112.664 28L114 27.2217L110.46 22.2415C110.46 22.2415 109.57 23.7001 109.467 23.3142C109.363 22.9283 107 20 107 20" fill="#F7AA84"/>
<path fill-rule="evenodd" clip-rule="evenodd" d="M130.453 11L130 16.2126L131.714 16.3045L132.27 21L134 20.8329L132.857 14.6018C132.857 14.6018 131.243 15.6046 131.328 15.1951C131.411 14.7846 130.453 11 130.453 11" fill="#F7AA84"/>
<path fill-rule="evenodd" clip-rule="evenodd" d="M118.166 169.078C118.166 169.078 108.105 162.185 106.226 164.461C104.348 166.736 109.914 168.718 111.275 170.821C111.927 171.829 99.5 171.722 99.0176 173.693C98.5352 175.664 108.128 175.634 108.128 175.634C108.128 175.634 99.3618 177.11 100.406 178.471C101.451 179.83 108.908 178.877 110.74 178.399C110.74 178.399 101.537 180.05 102.887 181.541C104.236 183.033 112.566 181.731 112.566 181.731C112.566 181.731 106.547 183.123 107.81 184.396C109.071 185.668 119.145 184.938 123.598 182.142C126.347 179.517 125.314 171.806 118.166 169.078" fill="white"/>
<path fill-rule="evenodd" clip-rule="evenodd" d="M118.166 169.078C118.166 169.078 108.105 162.185 106.226 164.461C104.348 166.736 109.914 168.718 111.275 170.821C111.927 171.829 99.5 171.722 99.0176 173.693C98.5352 175.664 108.128 175.634 108.128 175.634C108.128 175.634 99.3618 177.11 100.406 178.471C101.451 179.83 108.908 178.877 110.74 178.399C110.74 178.399 101.537 180.05 102.887 181.541C104.236 183.033 112.566 181.731 112.566 181.731C112.566 181.731 106.547 183.123 107.81 184.396C109.071 185.668 119.145 184.938 123.598 182.142C126.347 179.517 125.314 171.806 118.166 169.078Z" stroke="#0A053A" stroke-width="0.75"/>
<path fill-rule="evenodd" clip-rule="evenodd" d="M126.762 171.2C126.762 171.2 123.168 170.352 121.797 172.15C120.425 173.948 120.558 184.202 124.339 183.997C128.122 183.792 126.762 171.2 126.762 171.2" fill="#DADFE5"/>
<path fill-rule="evenodd" clip-rule="evenodd" d="M176.979 172.216C176.979 172.216 152.411 165.474 125.367 169.041C125.367 169.041 123.205 177.837 124.319 183.45C125.139 186.798 168.282 202.161 180.196 190.991C184.522 186.933 184.135 174.344 176.979 172.216" fill="white"/>
<path d="M161.245 169.414C152.521 168.262 140.894 167.48 128.549 168.761C126.607 168.963 125.036 170.445 124.704 172.387C124.182 175.449 123.638 180.066 124.318 183.494C125.112 186.749 165.917 201.406 178.87 191.762C179.458 191.325 179.917 190.737 180.223 190.068C181.168 188 183.255 182.908 182.974 178.843C182.974 178.843 181.344 167.524 180.441 166" stroke="#0A053A" stroke-width="0.75"/>
<path fill-rule="evenodd" clip-rule="evenodd" d="M155.629 137C155.629 137 157.716 138.324 159.4 144.815C161.084 151.306 162.123 149.806 162.815 156.244C163.508 162.681 165.776 168.254 164.728 170.034C163.68 171.816 161.419 173.25 158.742 172.963C156.064 172.677 136.773 170.264 134.3 170.608C131.827 170.953 125 172.062 125 172.062L125.586 169.235L149.154 168.197C149.154 168.197 163.361 171.795 161.703 167.582C160.877 163.855 155.629 137 155.629 137" fill="#4AEAFF"/>
<path fill-rule="evenodd" clip-rule="evenodd" d="M166 194.195C166 194.195 166.085 185.22 170.591 183.281C175.098 181.343 183 182.18 183 182.18C183 182.18 182.941 187.25 179.683 190.852C179.151 191.44 178.534 191.988 177.819 192.469C172.717 195.899 166 194.848 166 194.848V194.195Z" fill="#4AEAFF"/>
<path fill-rule="evenodd" clip-rule="evenodd" d="M110 53.6299C110 53.6299 113.94 59.8409 115.022 64C118.482 61.6721 125.722 54.3807 143.54 54.8619C143.54 54.8619 150.67 55.6445 152 54.3017C152 54.3017 148.962 45.1028 149.106 42.9283C149.106 42.9283 130.27 39.925 123.925 44.7224C117.58 49.5198 110 53.6299 110 53.6299" fill="#97D3E8"/>
<path fill-rule="evenodd" clip-rule="evenodd" d="M144.78 176.097C144.78 176.097 151.521 167.705 153.647 169.172C155.775 170.64 151.599 173.722 150.972 175.854C150.672 176.877 161.048 173.673 161.932 175.231C162.817 176.789 154.78 179.167 154.78 179.167C154.78 179.167 162.478 178.228 161.936 179.648C161.392 181.067 154.919 182.124 153.267 182.175C153.267 182.175 161.373 181.276 160.607 182.884C159.842 184.493 152.551 185.47 152.551 185.47C152.551 185.47 157.929 185.149 157.184 186.548C156.436 187.949 147.826 189.851 143.418 188.584C140.476 187.038 139.462 180.211 144.78 176.097" fill="white"/>
<path fill-rule="evenodd" clip-rule="evenodd" d="M144.78 176.097C144.78 176.097 151.521 167.705 153.647 169.172C155.775 170.64 151.599 173.722 150.972 175.854C150.672 176.877 161.048 173.673 161.932 175.231C162.817 176.789 154.78 179.167 154.78 179.167C154.78 179.167 162.478 178.228 161.936 179.648C161.392 181.067 154.919 182.124 153.267 182.175C153.267 182.175 161.373 181.276 160.607 182.884C159.842 184.493 152.551 185.47 152.551 185.47C152.551 185.47 157.929 185.149 157.184 186.548C156.436 187.949 147.826 189.851 143.418 188.584C140.476 187.038 139.462 180.211 144.78 176.097Z" stroke="#0A053A" stroke-width="0.75"/>
<path fill-rule="evenodd" clip-rule="evenodd" d="M139.698 176.603C139.698 176.603 142.671 174.649 145.43 177.776C148.191 180.904 149.464 187.745 145.43 190.091C141.396 192.436 138 189.503 138 189.503L139.698 176.603Z" fill="#DADFE5"/>
<path fill-rule="evenodd" clip-rule="evenodd" d="M100.435 128.297C100.435 128.297 100.435 112.606 87.0523 113.008C73.6694 113.41 73.6694 140.77 76.5077 162.498C79.3479 184.224 79.3479 193.277 89.8906 196.898C99.1462 200.078 122.67 200.052 138.431 194.012C142.674 192.386 145.376 188.184 144.957 183.691C144.649 180.378 143.451 176.969 140.042 175.842C132.743 173.428 110.168 177.586 105.708 172.355C101.246 167.124 100.435 128.297 100.435 128.297" fill="white"/>
<path fill-rule="evenodd" clip-rule="evenodd" d="M79.3462 119.071C74.0575 128.06 74.5954 147.26 76.6834 163.363C79.4982 185.052 79.4982 194.088 89.9475 197.704C99.1203 200.877 122.433 200.852 138.053 194.822C142.259 193.198 144.936 189.005 144.522 184.519C144.216 181.212 143.029 177.808 139.65 176.684C132.415 174.275 110.043 178.424 105.622 173.203C101.201 167.982 100.397 129.222 100.397 129.222" fill="white"/>
<path d="M79.3462 119.071C74.0575 128.06 74.5954 147.26 76.6834 163.363C79.4982 185.052 79.4982 194.088 89.9475 197.704C99.1203 200.877 122.433 200.852 138.053 194.822C142.259 193.198 144.936 189.005 144.522 184.519C144.216 181.212 143.029 177.808 139.65 176.684C132.415 174.275 110.043 178.424 105.622 173.203C101.201 167.982 100.397 129.222 100.397 129.222" stroke="#0A053A" stroke-width="0.75"/>
<path fill-rule="evenodd" clip-rule="evenodd" d="M104 175.055C104 175.055 95.6065 176.668 94.2082 185C93.3687 182.581 94.7679 174.249 104 175.055" fill="#DADFE5"/>
<path fill-rule="evenodd" clip-rule="evenodd" d="M103 173.859C103 173.859 97.2935 172.963 94.0325 177C93.6243 176.326 97.0889 170.944 103 173.859" fill="#DADFE5"/>
<path fill-rule="evenodd" clip-rule="evenodd" d="M100.226 127C100.226 127 98.3404 127.326 97.883 133.206C97.4266 139.084 100.264 144.443 97.883 149.631C95.503 154.817 98.2947 170.455 101.969 173.01C105.644 175.565 105.705 175.059 107.248 176.696C108.791 178.332 122.675 179.542 128.584 178.505C134.494 177.468 137.287 176.883 140.821 178.89C144.355 180.897 144.963 184 144.963 184C144.963 184 146.558 173.577 128.899 175.651C110.977 175.825 103.96 176.618 103.403 166.323C100.574 155.499 100.226 127 100.226 127" fill="#4AEAFF"/>
<path fill-rule="evenodd" clip-rule="evenodd" d="M79 178.198C79 178.198 94.3509 175.916 97.7752 186.848C101.199 197.781 99.6511 199 99.6511 199C99.6511 199 88.8873 197.929 84.3857 193.516C79.8849 189.104 79 178.198 79 178.198" fill="#4AEAFF"/>
<path fill-rule="evenodd" clip-rule="evenodd" d="M177 175.105L181.49 168L183.271 175.695C183.271 175.695 184.911 181.385 183.271 185L177 175.105Z" fill="white"/>
<path fill-rule="evenodd" clip-rule="evenodd" d="M173.152 95.4112L171.256 95.5L160.611 95.9951C159.373 96.053 158.164 95.5946 157.25 94.7241C156.336 93.8526 155.127 93.3951 153.888 93.453L148.166 93.7194C147.591 93.7454 147.131 93.7676 146.865 93.7802C146.646 93.7898 146.432 93.7088 146.272 93.5544L146.262 93.5447C145.934 93.232 145.911 92.7012 146.211 92.3595L146.222 92.347C146.369 92.1791 146.574 92.0806 146.791 92.07L148.092 92.0102L153.815 91.7428C155.053 91.6859 156.218 91.1175 157.054 90.1639C157.892 89.2114 159.056 88.6429 160.294 88.586L170.938 88.0899L172.834 88.0021C173.902 87.9519 174.805 88.8137 174.854 89.9265L174.998 93.3063C175.046 94.4201 174.219 95.361 173.152 95.4112" fill="white"/>
<path fill-rule="evenodd" clip-rule="evenodd" d="M173.152 95.4112L171.256 95.5L160.611 95.9951C159.373 96.053 158.164 95.5946 157.25 94.7241C156.336 93.8526 155.127 93.3951 153.888 93.453L148.166 93.7194C147.591 93.7454 147.131 93.7676 146.865 93.7802C146.646 93.7898 146.432 93.7088 146.272 93.5544L146.262 93.5447C145.934 93.232 145.911 92.7012 146.211 92.3595L146.222 92.347C146.369 92.1791 146.574 92.0806 146.791 92.07L148.092 92.0102L153.815 91.7428C155.053 91.6859 156.218 91.1175 157.054 90.1639C157.892 89.2114 159.056 88.6429 160.294 88.586L170.938 88.0899L172.834 88.0021C173.902 87.9519 174.805 88.8137 174.854 89.9265L174.998 93.3063C175.046 94.4201 174.219 95.361 173.152 95.4112Z" stroke="#0A053A" stroke-width="0.5"/>
<path fill-rule="evenodd" clip-rule="evenodd" d="M147 93.9313C146.47 93.9608 146.045 93.9859 145.799 93.999C145.596 94.011 145.4 93.9193 145.251 93.7449L145.241 93.734C144.939 93.3806 144.917 92.7808 145.195 92.3948L145.205 92.3806C145.341 92.1908 145.53 92.0796 145.731 92.0676L146.932 92L147 93.9313Z" fill="#0E2549"/>
<path fill-rule="evenodd" clip-rule="evenodd" d="M173.203 94.9285L171.35 95L171 88.073L172.853 88.0015C173.895 87.9604 174.784 88.7706 174.837 89.8111L174.998 92.9719C175.051 94.0114 174.247 94.8883 173.204 94.9285H173.203Z" fill="#F4405F"/>
<path fill-rule="evenodd" clip-rule="evenodd" d="M159.639 90.2265L164.209 90.0019C165.155 89.9551 165.956 90.762 165.998 91.8031C166.041 92.8452 165.308 93.7266 164.361 93.7735L159.791 93.9981C158.845 94.0449 158.044 93.238 158.002 92.1969C157.959 91.1548 158.692 90.2734 159.639 90.2265" fill="#FF4591"/>
<path fill-rule="evenodd" clip-rule="evenodd" d="M168.675 91.2622C169.082 91.6354 169.111 92.2677 168.738 92.6744C168.365 93.0826 167.732 93.1105 167.325 92.7382C166.918 92.3658 166.889 91.7327 167.262 91.3252C167.634 90.9178 168.267 90.8891 168.675 91.2622" fill="#FF4591"/>
<path fill-rule="evenodd" clip-rule="evenodd" d="M160 92.135L161.969 92.03L162 92.864L160.031 92.97L160 92.135Z" fill="white"/>
<path fill-rule="evenodd" clip-rule="evenodd" d="M163 92.109L163.97 92.056L164 92.891L163.031 92.944L163 92.109Z" fill="white"/>
<path fill-rule="evenodd" clip-rule="evenodd" d="M168.782 91.192C168.953 91.347 168.965 91.612 168.808 91.782C168.653 91.953 168.388 91.964 168.219 91.808C168.048 91.653 168.036 91.388 168.192 91.218C168.347 91.047 168.612 91.036 168.782 91.192" fill="white"/>
</g>
</svg>
